<?xml version="1.0" encoding="iso-8859-1"?>
<svg version="1.1" id="Layer_1" x="0px" y="0px" viewBox="0 0 40 40" style="enable-background:new 0 0 40 40;" xml:space="preserve" width="40px" height="40px">
<g>
	<polygon style="fill:#DBB065;" points="1.5,35.5 1.5,4.5 11.793,4.5 14.793,7.5 38.5,7.5 38.5,35.5  "/>
	<g>
		<path style="fill:#967A44;" d="M11.586,5l2.707,2.707L14.586,8H15h23v27H2V5H11.586 M12,4H1v32h38V7H15L12,4L12,4z"/>
	</g>
</g>
<g>
	<polygon style="fill:#F5CE85;" points="1.5,35.5 1.5,9.5 12.151,9.5 15.151,7.5 38.5,7.5 38.5,35.5  "/>
	<g>
		<path style="fill:#967A44;" d="M38,8v27H2V10h10h0.303l0.252-0.168L15.303,8H38 M39,7H15l-3,2H1v27h38V7L39,7z"/>
	</g>
</g>
</svg>
