<?xml version="1.0" encoding="UTF-8" standalone="no"?>
<!-- Created with Inkscape (http://www.inkscape.org/) -->

<svg
   width="60"
   height="100"
   viewBox="0 0 15.875 26.458334"
   version="1.1"
   id="svg12736"
   sodipodi:docname="1.svg"
   inkscape:version="1.1.2 (b8e25be833, 2022-02-05)"
   xmlns:inkscape="http://www.inkscape.org/namespaces/inkscape"
   xmlns:sodipodi="http://sodipodi.sourceforge.net/DTD/sodipodi-0.dtd"
   xmlns="http://www.w3.org/2000/svg"
   xmlns:svg="http://www.w3.org/2000/svg">
  <sodipodi:namedview
     id="namedview12738"
     pagecolor="#ffffff"
     bordercolor="#666666"
     borderopacity="1.0"
     inkscape:pageshadow="2"
     inkscape:pageopacity="0.0"
     inkscape:pagecheckerboard="true"
     inkscape:document-units="mm"
     showgrid="false"
     units="px"
     inkscape:zoom="6.2217172"
     inkscape:cx="85.828395"
     inkscape:cy="121.67059"
     inkscape:window-width="3840"
     inkscape:window-height="2066"
     inkscape:window-x="-11"
     inkscape:window-y="-11"
     inkscape:window-maximized="1"
     inkscape:current-layer="layer1" />
  <defs
     id="defs12733" />
  <g
     inkscape:label="Layer 1"
     inkscape:groupmode="layer"
     id="layer1">
    <path
       id="path11986"
       style="display:inline;fill:#000000;stroke-width:0.26497"
       d="m 55.035156,7.2226562 c -0.385776,10e-8 -2.054281,1.7061896 -3.707031,3.7929688 -2.735698,3.454103 -3.154698,5.033779 -4.677734,17.619141 l -1.671875,13.824218 2.263672,2.410157 c 2.808907,2.989939 3.028519,2.987764 5.917968,-0.08789 2.036901,-2.168179 2.569995,-4.459493 4.021485,-17.275391 C 58.699763,14.099724 58.709864,12.475344 57.294922,9.9765625 56.437196,8.4618526 55.420933,7.2226562 55.035156,7.2226562 Z m -5.779297,44.9628908 -2.896484,2.580078 c -2.494677,2.222751 -3.075111,3.790361 -4.193359,11.318359 -0.71384,4.805639 -1.623791,10.635491 -2.023438,12.957032 -0.649285,3.771927 -0.356986,4.77013 2.748047,9.380859 3.390236,5.03418 3.519119,5.115205 5.335937,3.291016 1.914445,-1.922249 3.460258,-11.277683 4.529297,-27.408203 0.431018,-6.50374 0.22926,-7.819177 -1.501953,-9.814454 z"
       transform="scale(0.26458333)"
       sodipodi:nodetypes="sccccsccsccscccscc" />
  </g>
</svg>
