<?xml version="1.0" encoding="UTF-8" standalone="no"?>
<!-- Created with Inkscape (http://www.inkscape.org/) -->

<svg
   width="60"
   height="100"
   viewBox="0 0 15.875 26.458334"
   version="1.1"
   id="svg12736"
   inkscape:version="1.1.2 (b8e25be833, 2022-02-05)"
   sodipodi:docname="8.svg"
   xmlns:inkscape="http://www.inkscape.org/namespaces/inkscape"
   xmlns:sodipodi="http://sodipodi.sourceforge.net/DTD/sodipodi-0.dtd"
   xmlns="http://www.w3.org/2000/svg"
   xmlns:svg="http://www.w3.org/2000/svg">
  <sodipodi:namedview
     id="namedview12738"
     pagecolor="#ffffff"
     bordercolor="#666666"
     borderopacity="1.0"
     inkscape:pageshadow="2"
     inkscape:pageopacity="0.0"
     inkscape:pagecheckerboard="true"
     inkscape:document-units="mm"
     showgrid="false"
     units="px"
     inkscape:zoom="6.2217172"
     inkscape:cx="85.828395"
     inkscape:cy="121.67059"
     inkscape:window-width="3840"
     inkscape:window-height="2066"
     inkscape:window-x="-11"
     inkscape:window-y="-11"
     inkscape:window-maximized="1"
     inkscape:current-layer="layer1" />
  <defs
     id="defs12733" />
  <g
     inkscape:label="Layer 1"
     inkscape:groupmode="layer"
     id="layer1">
    <g
       id="g12212"
       transform="translate(-230.65374,-15.722209)">
      <path
         d="m 233.05231,40.807023 c -0.28519,-0.343633 -0.19815,-0.5535 0.54947,-1.32485 l 0.88834,-0.916546 h 3.07666 3.07665 l 0.82446,1.169665 c 0.45345,0.643316 0.75462,1.239496 0.66927,1.324848 -0.0854,0.08535 -2.08811,0.155186 -4.45058,0.155186 -3.54565,0 -4.35455,-0.07127 -4.63427,-0.408313 z m 8.94935,-1.689785 c -0.82154,-1.219922 -0.89889,-1.483961 -0.7271,-2.48195 0.10574,-0.614241 0.34678,-2.157114 0.53565,-3.428606 0.29587,-1.991783 0.44945,-2.406298 1.1095,-2.994401 l 0.7661,-0.682598 0.52899,0.609672 c 0.45805,0.527917 0.51133,0.876167 0.39729,2.596948 -0.28285,4.267867 -0.69187,6.742814 -1.1984,7.251409 -0.4807,0.48265 -0.51503,0.461486 -1.41203,-0.870474 z m -10.42464,0.09772 c -0.0933,-0.371533 0.046,-2.362025 0.3095,-4.423315 0.43288,-3.386611 0.55006,-3.825846 1.21584,-4.55764 l 0.7368,-0.809842 0.6737,0.794907 c 0.7368,0.869361 0.73468,0.75904 0.1019,5.299399 -0.31757,2.27866 -0.38013,2.428613 -1.40659,3.371286 -0.59083,0.5426 -1.1614,0.989738 -1.26793,0.993635 -0.10652,0.0039 -0.26997,-0.296897 -0.36322,-0.66843 z m 1.7664,-11.754018 c -0.3019,-0.423968 -0.4927,-0.930724 -0.42402,-1.126121 0.0687,-0.195395 0.31282,-2.024576 0.54253,-4.064845 0.31891,-2.832593 0.53115,-3.824101 0.89775,-4.193997 0.46455,-0.468723 0.5071,-0.447716 1.31318,0.648382 0.96598,1.313531 0.96421,1.290961 0.41438,5.278562 -0.37362,2.709685 -0.49482,3.099653 -1.12612,3.623164 -0.91157,0.755931 -0.96578,0.750398 -1.6177,-0.165145 z m 9.80986,0.133024 -0.59921,-0.637833 0.44263,-3.657696 c 0.40297,-3.329877 0.5139,-3.747668 1.23772,-4.661566 0.43729,-0.552127 0.87858,-1.003869 0.98065,-1.003869 0.10207,0 0.37125,0.327901 0.59819,0.728668 0.37437,0.661136 0.37157,1.090977 -0.0301,4.638017 -0.38404,3.390873 -0.52515,3.997068 -1.06408,4.570732 -0.7645,0.813767 -0.82255,0.814638 -1.56574,0.02355 z m -6.40141,-8.704123 c -0.88571,-0.929646 -1.39553,-1.785322 -1.18791,-1.993773 0.2392,-0.240166 7.41225,-0.419038 8.26104,-0.206003 0.8377,0.210249 0.7954,0.50654 -0.23113,1.618957 -0.85789,0.929675 -0.87139,0.933663 -3.56842,1.054218 -2.54165,0.11361 -2.74191,0.08465 -3.27358,-0.473399 z"
         style="display:inline;fill:#000000;stroke-width:0.0701066"
         id="path11986" />
      <path
         d="m 235.94702,30.107324 -1.54031,-1.369393 1.9893,-1.199049 5.62769,0.113559 1.47455,1.298204 -1.51294,1.203524 z"
         style="display:inline;fill:#000000;stroke-width:0.0701066"
         id="path4745-9" />
    </g>
  </g>
</svg>
