<svg xmlns="http://www.w3.org/2000/svg" width="50" height="50" viewBox="0 0 50 50">
  <defs>
    <style>
      .cls-1 {
        fill: #fff;
        fill-rule: evenodd;
      }
    </style>
  </defs>
  <path class="cls-1" d="M42.142,41.08a0.611,0.611,0,0,1-.544.9H9.449a0.611,0.611,0,0,1-.544-0.9L24.972,11.312a0.628,0.628,0,0,1,1.1,0ZM25.523,3.989a2.169,2.169,0,0,0-1.93,1.146L3.255,42.815A2.168,2.168,0,0,0,5.186,46H45.861a2.168,2.168,0,0,0,1.93-3.189L27.453,5.134a2.169,2.169,0,0,0-1.93-1.146h0Zm1.491,29.986H23.993V19.018h3.021V33.975Zm-3.021,2.057h3.021v2.991H23.993V36.032Z"/>
</svg>
