<svg xmlns="http://www.w3.org/2000/svg" style="isolation:isolate" width="21" height="21"><defs><clipPath id="a"><path d="M0 0H21V21H0z"/></clipPath></defs><g clip-path="url(#a)" fill-rule="evenodd"><path d="M 10.5 0 L 21 10.5 L 10.5 21 L 0 10.5 L 10.5 0 Z" fill-opacity="0.5"/><path d="M 10.5 1.4 L 19.6 10.5 L 10.5 19.6 L 1.4 10.5 L 10.5 1.4 Z" fill="#FFF"/><path d="M 14.307 7.585 C 14.206 7.289 14.048 7.015 13.842 6.779 C 13.633 6.545 13.383 6.352 13.105 6.209 C 12.836 6.066 12.549 5.962 12.252 5.901 C 12.013 5.851 11.772 5.815 11.529 5.792 Q 11.228 5.766 10.894 5.766 L 8.678 5.766 C 8.505 5.758 8.337 5.82 8.21 5.937 C 8.082 6.075 8.017 6.261 8.032 6.449 L 8.032 14.902 C 8.031 14.95 8.047 14.996 8.075 15.033 C 8.115 15.079 8.168 15.112 8.227 15.128 C 8.323 15.157 8.421 15.176 8.521 15.186 C 8.675 15.202 8.829 15.209 8.983 15.207 C 9.139 15.209 9.294 15.202 9.448 15.186 C 9.547 15.176 9.644 15.156 9.739 15.128 C 9.799 15.111 9.853 15.078 9.895 15.033 C 9.926 14.996 9.942 14.95 9.942 14.902 L 9.942 11.903 L 10.727 11.903 C 11.273 11.913 11.818 11.84 12.342 11.685 C 12.769 11.557 13.163 11.34 13.5 11.05 C 13.817 10.768 14.064 10.416 14.219 10.022 C 14.391 9.575 14.475 9.099 14.466 8.62 C 14.471 8.269 14.417 7.919 14.307 7.585 L 14.307 7.585 Z M 12.368 9.43 C 12.306 9.626 12.204 9.806 12.07 9.961 C 11.931 10.114 11.758 10.232 11.565 10.306 C 11.32 10.395 11.06 10.437 10.799 10.429 L 9.942 10.429 L 9.942 7.241 L 10.755 7.241 C 10.948 7.24 11.141 7.254 11.333 7.281 C 11.522 7.308 11.703 7.374 11.866 7.473 C 12.049 7.589 12.197 7.752 12.295 7.945 C 12.42 8.197 12.48 8.477 12.469 8.758 C 12.471 8.986 12.437 9.213 12.368 9.43 L 12.368 9.43 Z"/></g></svg>