<svg xmlns="http://www.w3.org/2000/svg" style="isolation:isolate" width="21" height="21"><defs><clipPath id="a"><path d="M0 0H21V21H0z"/></clipPath></defs><g clip-path="url(#a)" fill-rule="evenodd"><path d="M 10.5 0 L 21 10.5 L 10.5 21 L 0 10.5 L 10.5 0 Z" fill-opacity="0.5"/><path d="M 10.5 1.4 L 19.6 10.5 L 10.5 19.6 L 1.4 10.5 L 10.5 1.4 Z" fill="#FFF"/><path d="M 13.073 6.251 C 13.065 6.168 13.046 6.086 13.015 6.008 C 12.996 5.958 12.964 5.913 12.924 5.877 C 12.891 5.851 12.85 5.837 12.808 5.837 L 8.385 5.837 C 8.238 5.833 8.094 5.883 7.982 5.979 C 7.862 6.101 7.802 6.27 7.819 6.44 L 7.819 14.959 C 7.817 15.009 7.834 15.058 7.866 15.097 C 7.908 15.143 7.962 15.177 8.022 15.195 C 8.117 15.227 8.216 15.247 8.316 15.257 C 8.469 15.273 8.623 15.28 8.777 15.279 C 8.933 15.28 9.088 15.273 9.242 15.257 C 9.342 15.247 9.441 15.226 9.536 15.195 C 9.597 15.178 9.651 15.144 9.693 15.097 C 9.722 15.057 9.737 15.009 9.736 14.959 L 9.736 11.459 L 12.62 11.459 C 12.662 11.459 12.703 11.445 12.736 11.419 C 12.777 11.382 12.808 11.336 12.827 11.284 C 12.857 11.207 12.876 11.127 12.885 11.045 C 12.909 10.803 12.909 10.56 12.885 10.318 C 12.877 10.238 12.857 10.16 12.827 10.086 C 12.807 10.038 12.776 9.995 12.736 9.963 C 12.702 9.938 12.661 9.926 12.62 9.926 L 9.736 9.926 L 9.736 7.399 L 12.808 7.399 C 12.851 7.399 12.892 7.383 12.924 7.355 C 12.963 7.318 12.994 7.274 13.015 7.224 C 13.046 7.149 13.065 7.069 13.073 6.988 C 13.086 6.867 13.093 6.744 13.092 6.622 C 13.093 6.498 13.086 6.374 13.073 6.251 L 13.073 6.251 Z"/></g></svg>