<svg version="1.1" id="Capa_1" xmlns="http://www.w3.org/2000/svg" xmlns:xlink="http://www.w3.org/1999/xlink" x="0px" y="0px"
	 viewBox="0 0 468.505 468.505" style="enable-background:new 0 0 468.505 468.505;" xml:space="preserve">
<g>
	<path style="fill:#f0f0f0;" d="M407.971,360.547c-8.689,0-15.718,7.03-15.718,15.719v15.718h-15.719
		c-8.689,0-15.719,7.031-15.719,15.719c0,8.688,7.029,15.719,15.719,15.719h31.437c8.688,0,15.719-7.03,15.719-15.719v-31.437
		C423.69,367.577,416.659,360.547,407.971,360.547z"/>
	<path style="fill:#f0f0f0;" d="M319.616,391.983h-38.207v31.438h38.207c8.688,0,15.719-7.03,15.719-15.719
		C335.334,399.015,328.303,391.983,319.616,391.983z"/>
	<path style="fill:#f0f0f0;" d="M319.629,44.531h-38.221v31.438h38.221c8.689,0,15.719-7.031,15.719-15.719
		S328.319,44.531,319.629,44.531z"/>
	<path style="fill:#f0f0f0;" d="M407.971,44.531h-31.437c-8.689,0-15.719,7.031-15.719,15.719s7.029,15.719,15.719,15.719h15.719
		v15.719c0,8.688,7.029,15.718,15.718,15.718c8.688,0,15.719-7.03,15.719-15.718V60.25C423.69,51.563,416.659,44.531,407.971,44.531
		z"/>
	<path style="fill:#f0f0f0;" d="M407.971,132.887c-8.689,0-15.718,7.031-15.718,15.719v56.919c0,8.688,7.029,15.719,15.718,15.719
		c8.688,0,15.719-7.031,15.719-15.719v-56.919C423.69,139.918,416.659,132.887,407.971,132.887z"/>
	<path style="fill:#f0f0f0;" d="M407.971,246.725c-8.689,0-15.718,7.029-15.718,15.719v56.902c0,8.688,7.029,15.719,15.718,15.719
		c8.688,0,15.719-7.03,15.719-15.719v-56.902C423.69,253.754,416.659,246.725,407.971,246.725z"/>
	<path style="fill:#f0f0f0;" d="M60.534,44.531c-8.688,0-15.719,7.031-15.719,15.719c0,167.01,0,191.188,0,347.452
		c0,8.688,7.03,15.719,15.719,15.719c125.059,0,23.947,0,126.563,0v-31.438c-167.824,0-35.566,0-110.845,0
		c0-102.77,0-193.274,0-316.015c102.756,0,4.576,0,110.845,0V44.531C70.067,44.531,240.163,44.531,60.534,44.531z"/>
	<path style="fill:#f0f0f0;" d="M234.252,0c-13.017,0-23.578,10.562-23.578,23.578v421.349c0,13.017,10.562,23.578,23.578,23.578
		c13.017,0,23.578-10.562,23.578-23.578V23.578C257.831,10.562,247.269,0,234.252,0z"/>
</g>
</svg>
