<?xml version="1.0" encoding="UTF-8" standalone="no"?>
<svg
   height="100px"
   width="100px"
   fill="#FFFFFF"
   version="1.1"
   viewBox="0 0 32 32"
   x="0px"
   y="0px"
   id="svg4"
   sodipodi:docname="scenes.svg"
   inkscape:version="1.1.2 (b8e25be833, 2022-02-05)"
   xmlns:inkscape="http://www.inkscape.org/namespaces/inkscape"
   xmlns:sodipodi="http://sodipodi.sourceforge.net/DTD/sodipodi-0.dtd"
   xmlns="http://www.w3.org/2000/svg"
   xmlns:svg="http://www.w3.org/2000/svg">
  <defs
     id="defs8" />
  <sodipodi:namedview
     id="namedview6"
     pagecolor="#ffffff"
     bordercolor="#666666"
     borderopacity="1.0"
     inkscape:pageshadow="2"
     inkscape:pageopacity="0.0"
     inkscape:pagecheckerboard="true"
     showgrid="false"
     inkscape:zoom="8.73"
     inkscape:cx="49.942726"
     inkscape:cy="50.057274"
     inkscape:window-width="3840"
     inkscape:window-height="2066"
     inkscape:window-x="-11"
     inkscape:window-y="-11"
     inkscape:window-maximized="1"
     inkscape:current-layer="svg4" />
  <path
     d="M 27.248106,21.320969 H 2.9589882 V 17.240398 H 27.248106 v 4.051785 z M 19.151734,13.19581 H 2.9589882 V 9.1440255 H 19.151734 Z m 8.096372,16.192745 H 2.9589882 V 25.336771 H 27.248106 Z"
     id="path2"
     style="stroke-width:0.719677"
     sodipodi:nodetypes="cccccccccccccccc" />
  <g
     aria-label="S"
     transform="scale(0.99337245,1.0066718)"
     id="text8532"
     style="font-size:16.4854px;line-height:1.25;stroke-width:0.412134" />
  <path
     id="rect9551"
     style="stroke-width:0.32"
     d="m 28.638669,10.647998 c 0,1.051041 -0.376651,1.869747 -1.129954,2.456118 -0.753302,0.58637 -1.768623,0.879555 -3.045962,0.879555 -0.655045,0 -1.260962,-0.04979 -1.817751,-0.149359 -0.556789,-0.09957 -1.02078,-0.237867 -1.391972,-0.414885 v -1.427203 c 0.393027,0.177018 0.878852,0.33744 1.457476,0.481267 0.589541,0.143827 1.195459,0.21574 1.817752,0.21574 0.862477,0 1.517522,-0.171486 1.965137,-0.514457 0.447615,-0.342971 0.671422,-0.807642 0.671422,-1.394013 0,-0.387225 -0.08188,-0.713601 -0.245642,-0.9791274 C 26.755413,9.5361074 26.47156,9.2927084 26.067615,9.0714366 25.66367,8.8501647 25.11234,8.6067657 24.413625,8.3412395 23.409222,7.976141 22.655919,7.5280656 22.153718,6.9970133 21.651515,6.4659609 21.400414,5.7412957 21.400414,4.8230176 c 0,-0.6195611 0.158303,-1.1561452 0.474909,-1.6097524 0.316605,-0.4536073 0.753302,-0.8021104 1.310091,-1.0455094 0.556789,-0.243399 1.206376,-0.3650985 1.948762,-0.3650985 0.633211,0 1.217293,0.06085 1.752246,0.1825492 0.534954,0.1216995 1.026238,0.2821216 1.473853,0.4812663 L 27.901743,3.7443175 C 27.497798,3.5673 27.055643,3.4179415 26.575276,3.296242 26.094909,3.1745426 25.603624,3.1136929 25.101423,3.1136929 c -0.731468,0 -1.282798,0.160422 -1.653991,0.4812661 -0.371192,0.3097805 -0.556788,0.7246652 -0.556788,1.244654 0,0.3982893 0.08188,0.730197 0.245642,0.9957232 0.163761,0.2655262 0.431238,0.5089252 0.80243,0.730197 0.371193,0.2102083 0.873395,0.4314801 1.506606,0.6638155 0.687797,0.2544626 1.266421,0.5310524 1.73587,0.8297693 0.480367,0.2876533 0.840643,0.6361565 1.080826,1.0455094 0.251101,0.4093529 0.376651,0.9238096 0.376651,1.5433706 z"
     sodipodi:nodetypes="sssscccssssscssssssccsscssccccs" />
</svg>
