<svg xmlns="http://www.w3.org/2000/svg" width="128" height="128" viewBox="0 0 128 128">
  <defs>
    <style>
      .cls-1 {
        fill: #f0f0f0;
        fill-rule: evenodd;
      }
    </style>
  </defs>
  <path id="artifact_" data-name="artifact " class="cls-1" d="M2.64,62.823L30.921,48.856A0.757,0.757,0,0,1,30.6,48.38L26.978,29.119a0.868,0.868,0,0,1,.957-0.957L47.2,31.787a0.754,0.754,0,0,1,.352.185L62.355,1.991a1.723,1.723,0,0,1,2.97,0L80.281,32.274a0.736,0.736,0,0,1,.037-0.117,0.765,0.765,0,0,1,.521-0.37L100.1,28.162a0.748,0.748,0,0,1,.71.251,0.759,0.759,0,0,1,.247.706L97.432,48.38a0.756,0.756,0,0,1-.331.486L125.36,62.823a1.723,1.723,0,0,1,0,2.97L96.116,80.236a0.762,0.762,0,0,1,.359.512L100.1,100.01a0.757,0.757,0,0,1-.346.781,0.745,0.745,0,0,1-.469.189,0.754,0.754,0,0,1-.141-0.013L79.882,97.341a0.758,0.758,0,0,1-.33-0.16L65.326,125.987a1.567,1.567,0,0,1-1.405.874c-0.027,0-.053-0.008-0.08-0.01s-0.054.01-.08,0.01a1.567,1.567,0,0,1-1.4-.874L48.284,97.5l-18.437,3.471a0.755,0.755,0,0,1-.141.013,0.744,0.744,0,0,1-.469-0.189,0.757,0.757,0,0,1-.346-0.781l3.625-19.261a0.735,0.735,0,0,1,.07-0.165L2.64,65.793A1.724,1.724,0,0,1,2.64,62.823Zm42.14,21.323L62.9,72.168a1.939,1.939,0,0,1,1.889,0L83.532,84.563a0.665,0.665,0,0,1,.384-0.312l0.151-.053L71.541,65.252a1.943,1.943,0,0,1,0-1.889L84.262,44.123l-0.341-.965L64.785,55.811a1.569,1.569,0,0,1-.865.26c-0.027,0-.053-0.008-0.08-0.01s-0.053.01-.08,0.01a1.569,1.569,0,0,1-.865-0.26L44.046,43.347l-0.286.81,12.7,19.207a1.942,1.942,0,0,1,0,1.889L44.121,83.914ZM65.488,51.587L81.194,41.2,65.488,9.4V51.587ZM75.765,65.956L86.149,81.662l31.8-15.706H75.765ZM65.488,118.578l15.706-31.8L65.488,76.392v42.187ZM41.851,81.662L52.235,65.956H10.049Z"/>
</svg>
