<svg xmlns="http://www.w3.org/2000/svg" width="38" height="38" viewBox="0 0 38 38">
  <metadata><?xpacket begin="﻿" id="W5M0MpCehiHzreSzNTczkc9d"?>
<x:xmpmeta xmlns:x="adobe:ns:meta/" x:xmptk="Adobe XMP Core 5.6-c138 79.159824, 2016/09/14-01:09:01        ">
   <rdf:RDF xmlns:rdf="http://www.w3.org/1999/02/22-rdf-syntax-ns#">
      <rdf:Description rdf:about=""/>
   </rdf:RDF>
</x:xmpmeta>
                                                                                                    
                                                                                                    
                                                                                                    
                                                                                                    
                                                                                                    
                                                                                                    
                                                                                                    
                                                                                                    
                                                                                                    
                                                                                                    
                                                                                                    
                                                                                                    
                                                                                                    
                                                                                                    
                                                                                                    
                                                                                                    
                                                                                                    
                                                                                                    
                                                                                                    
                                                                                                    
                           
<?xpacket end="w"?></metadata>
<defs>
    <style>
      .cls-1 {
        fill: #fff;
        fill-rule: evenodd;
      }
    </style>
  </defs>
  <path class="cls-1" d="M33.879,21.028A15.02,15.02,0,0,1,21,33.883V38H17V33.883A15.02,15.02,0,0,1,4.122,21.028H0V17H4.117A15.02,15.02,0,0,1,16.973,4.122V0h4.054V4.122A15.02,15.02,0,0,1,33.883,17H38v4.023H33.879ZM21.028,6.789v3.218H16.973V6.789A12.389,12.389,0,0,0,6.778,17h3.229v4.023H6.782A12.389,12.389,0,0,0,17,31.217V27.994H21v3.223A12.389,12.389,0,0,0,31.218,21.028H27.994V17h3.229A12.389,12.389,0,0,0,21.028,6.789ZM19,21a2,2,0,1,1,2-2A2,2,0,0,1,19,21Z"/>
</svg>
