<?xml version="1.0" encoding="UTF-8" standalone="no"?>
<svg
   width="136.65466"
   height="139.7359"
   viewBox="0 0 136.65466 139.7359"
   version="1.1"
   id="svg125"
   xmlns="http://www.w3.org/2000/svg"
   xmlns:svg="http://www.w3.org/2000/svg">
  <defs
     id="defs125" />
  <path
     fill="#030303"
     d="m 74.751816,0.11512798 c 9.425,-0.604 17.19,1.06600002 24.469,7.46400002 13.430004,11.806 14.380004,29.282 15.393004,45.817 6.135,3.568 11.345,2.269 16.693,4.854 2.062,0.997 3.189,3.235 3.92,5.309 3.696,10.487 -0.329,28.214 -5.849,37.575002 -2.311,3.918 -6.109,6.861 -8.026,10.998 1.327,1.778 2.368,3.668 2.315,5.96 -0.071,3.1 -1.963,5.621 -4.169,7.622 -2.091,1.896 -5.009,4.09 -7.751,4.893 -3.453,1.011 -7.099,-0.322 -10.634,0.155 -4.131004,0.558 -7.709004,3.523 -11.926004,4.095 -9.208,1.251 -18.748,0.251 -28.03,0.921 -16.698,1.205 -30.911,4.578 -48.079,3.858 -4.4409996,-0.186 -9.2759996,-0.277 -12.46799959,-3.738 -0.418,-1.334 -0.771,-2.748 -0.533,-4.155 1.81099999,-10.741 46.32999959,-13.612 57.02799959,-20.238 -6.002,-2.943 -11.609,-7.685 -15.77,-12.934002 -4.672,-5.894 -6.931,-12.978 -5.96,-20.494 1.819,-14.084 13.772,-9.384 19.537,-14.543 0.989,-0.885 1.014,-1.456 1.119,-2.682 -0.229,-0.432 -0.415,-0.777 -0.783,-1.109 -2.756,-2.478 -7.945,-3.412 -11.316,-5.224 -2.633,-1.415 -4.951,-3.3 -7.319,-5.108 -7.942,-6.06 -10.854,-5.414 -20.305,-5.493 -2.217,-0.018 -5.004,-0.153 -6.5779996,-1.951 -0.879,-1.004 -1.129,-2.417 -1.052,-3.713 0.145,-2.43 1.305,-4.989 3.1029996,-6.621 3.179,-2.884 11.145,-2.894 16.656,-6.074 8.668,-5.002 16.368,-15.119 25.153,-18.729 3.414,-1.402 8.247,-0.583 11.862,-0.404 2.917,-2.611 5.557,-4.947 9.3,-6.31100002 z M 118.31182,120.61313 l 0.935,-1.195 -0.12,-0.851 c -5.043,-0.979 -12.084,2.939 -16.099,-1.992 -0.023,-0.733 -0.18,-0.823 0.342,-1.419 1.593,-1.82 5.276,-2.061 7.443,-2.931 5.857,-2.352 10.261,-8.349 10.325,-14.729002 0.022,-2.279 -0.432,-4.621 -0.785,-6.865 -0.643,1.05 -1.306,2.206 -2.164,3.096 -2.262,2.346 -5.443,3.846 -7.851,6.074 -1.995,1.845002 -3.357,4.433002 -5.378,6.172002 -0.791,0.691 -1.729,1.194 -2.742,1.47 -0.729,0.198 -1.476,0.208 -2.225004,0.194 l -0.878,-0.598 c -0.181,-2.164 1.429004,-4.107 2.756004,-5.682 10.026,-11.896002 8.685,-6.424002 8.473,-22.026002 -2.383,2.251 -5.086,4.27 -7.27,6.699 -2.677,2.978 -4.825004,6.624 -7.775004,9.306 -3.243,2.95 -7.337,4.854002 -10.822,7.520002 -2.421,-1.062 -4.832,-2.184 -7.298,-3.136002 0.933,-4.539 3.137,-10.824 0.413,-15.045 -2.586,-4.005 -8.009,-5.449 -11.943,-7.727 0.051,4.651 -0.393,9.292 -0.33,13.922 0.076,5.573 1.862,11.861002 0.59,17.287002 -0.607,2.585 -2.049,4.464 -3.892,6.316 -1.818,1.828 -4.155,3.515 -6.592,4.404 -8.955,3.264 -46.5659996,6.061 -48.8799996,13.405 0.189,1.063 0.451,1.548 1.357,2.214 1.944,1.428 5.6789996,1.263 7.9789996,1.329 7.431,0.211 14.746,0.043 22.082,-1.298 6.441,-1.177 12.632,-3.036 19.216,-3.415 9.719,-0.56 24.574,1.421 33.359,-0.761 3.135,-0.779 5.762,-2.707 8.816,-3.508 9.302004,-2.438 10.645004,1.217 18.958004,-6.23 z M 46.084816,50.148128 c 2.342,1.627 5.176,3.546 8.153,3.444 1.348,-0.685 1.915,-1.093 2.356,-2.66 0.813,-2.886 0.441,-5.698 1.413,-8.738 -2.467,0.238 -5.365,0.829 -7.77,0.134 -0.732,-1.047 -0.563,-2.087 -0.358,-3.318 0.438,-2.629 5.77,-16.999 7.775,-18.314 0.486,-0.319 0.606,-0.192 1.145,-0.124 2.198,3.374 1.262,9.634 0.858,13.462 2.624,-4.838 9.085,-12.406 7.492,-18.107 -0.353,-1.263 -1.172,-2.206 -2.312,-2.832 -1.495,-0.822 -3.165,-0.623 -4.801,-0.475 -11.532,4.396 -18.45,16.227 -30.235,19.257 -4.069,1.047 -11.814,1.714 -14.054,5.793 0.125,0.419 0.1,0.824 0.506,1.037 5.378,2.816 13.815,-1.778 19.32,1.341 4.207,2.383 6.679,7.169 10.512,10.1 z m 38.264,-21.501 c 1.98,2.342 3.68,4.173 3.453,7.456 -0.165,2.39 -1.584,4.978 -2.549,7.166 l 2.194,5.089 c -0.451,2.297 -0.966,4.603 -1.271,6.924 3.316,0.215 6.57,0.37 9.895,0.27 1.498,-0.125 2.502,-0.139 3.73,-1.114 2.416004,-3.482 0.102,-15.013 -0.649,-19.121 -1.063,-5.814 -3.315,-14.553 -8.206,-18.237 -1.11,-0.836 -2.723,-0.636 -4.039,-0.585 -1.539,3.64 -0.358,7.262 -2.558,12.152 z m -9.747,20.136 c -2.455,0.63 -6.533,0.481 -8.548,1.648 -0.565,1.27 -0.57,1.985 -0.042,3.323 0.476,1.207 1.009,2.163 2.092,2.924 l 2.57,0.47 c 3.136,-0.302 5.667,-0.543 7.789,-3.195 0.833,-1.041 1.327,-1.927 1.379,-3.295 -0.464,-0.921 -0.542,-1.361 -1.556,-1.758 -1.002,-0.392 -2.658,-0.355 -3.684,-0.117 z m -5.428,-4.313 c 2.987,0.622 5.69,0.881 8.382,-0.871 1.716,-1.116 3.268,-2.675 3.631,-4.771 0.312,-1.799 -0.36,-3.499 -1.47,-4.898 -0.406,-0.512 -0.781,-0.88 -1.364,-1.19 -4.621,2.926 -8.786,4.21 -13.937,5.814 1.472,2.076 2.875,4.182 4.758,5.916 z m 5.905,-16.487 c 2.647,-1.42 4.741,-2.896 5.666,-5.925 0.648,-2.123 0.735,-4.501 -0.391,-6.489 -0.776,-1.371 -2.136,-2.609 -3.688,-3.005 -1.145,-0.291 -2.353,-0.157 -3.511,-0.03 -3.497,7.223 2.151,8.278 -5.322,17.555 2.44,-0.599 4.927,-1.12 7.246,-2.106 z"
     id="path131" />
</svg>
