<?xml version="1.0" encoding="UTF-8" standalone="no"?>
<svg
   width="151.72192"
   height="123.90454"
   viewBox="0 0 151.72192 123.90454"
   version="1.1"
   id="svg125"
   xmlns="http://www.w3.org/2000/svg"
   xmlns:svg="http://www.w3.org/2000/svg">
  <defs
     id="defs125" />
  <path
     fill="#030303"
     d="m 8.2359573,0.0211945 c 0.885,-0.044 1.9679997,-0.052 2.7859997,0.309 1.868,0.8249999 3.577,2.1549999 5.445,3.0479999 7.22,3.451 16.89,6.8679996 24.93,7.0159996 12.959,0.238 19.536,-10.1289995 29.759,-9.6629995 6.042,0.2749999 10.731,3.7109999 14.637,8.0509999 0.077,-0.034 0.153,-0.069 0.23,-0.103 1.432,-0.619 2.893,-1.316 4.44,-1.583 5.342,-0.924 11.017003,1.01 15.314003,4.1359996 12.459,9.063 21.087,31.215 23.282,45.905 5.681,2.156 14.888,1.984 19.53,5.789 1.864,1.528 2.772,4.18405 3.007,6.52205 1.198,11.911 -6.361,27.848 -13.914,36.866996 -8.255,9.858 -21.971,16.207 -34.858,16.259 -4.329003,0.018 -8.916003,-1.275 -13.167003,-0.94 -3.237,0.255 -6.23,1.949 -9.665,2.211 -9.834,0.748 -14.308,-5.717 -20.993,-11.546 -6.851,-5.033 -7.527,-12.055 -12.372,-18.381996 -5.056,-6.602 -11.203,-12.394 -16.888,-18.442 C 17.472957,62.424194 5.5589573,46.718194 -4.2686549e-5,29.525194 1.4649573,27.398194 2.8329573,25.419194 5.3669573,24.462194 c 3.162,-1.195 6.5159997,-0.191 9.1609997,1.702 3.327,2.38 5.921,5.871 8.492,9.007 8.261,10.078 16.934,24.041 29.14,29.426 6.167,2.72105 10.957,2.63005 17.124,0.212 -0.224,-3.462 -0.86,-6.992 -1.317,-10.436 -1.186,-0.502 -2.358,-1.034 -3.517,-1.596 -11.661,-5.655 -20.868,-14.645 -31.535,-21.72 -7.256,-4.813 -15.472,-8.265 -22.474,-13.43 -2.2539997,-1.663 -4.4339997,-2.976 -5.3809997,-5.737 -0.723,-2.1099996 -1.219,-3.9589996 -0.868,-6.2179996 0.448,-2.884 1.795,-4.038 4.044,-5.6509999 z M 87.793957,105.84624 c -1.672,-0.85 -6.127,-2.676 -6.595,-4.476 -0.149,-0.572 0.029,-1.186 0.156,-1.748996 2.415,-1.077 5.221,0.367 7.551,1.258996 8.988,3.441 8.722,2.977 18.025003,0.38 -2.819,-1.698996 -4.428,-4.424996 -7.046003,-6.114996 -3.853,-2.486 -12.144,-2.605 -13.362,-8.025 -0.36,-1.602 0.165,-3.038 1.06,-4.354 3.183,-4.68 12.296,-8.116 17.194003,-11 -13.183003,-3.402 -20.000003,0.432 -32.476003,1.515 -7.885,0.684 -18.447,-2.022 -25.42,-5.77 -5.471,-2.94105 -10.536,-7.09305 -14.855,-11.53305 -5.766,-5.928 -14.95,-19.612 -20.952,-23.481 -0.937,-0.604 -2.1089997,-0.793 -3.2019997,-0.89 -0.997,6.539 0.638,10.217 4.5059997,15.485 7.702,10.486 17.629,18.993 25.884,28.98105 6.41,7.755 10.71,16.585 16.589,24.621996 3.387,4.63 7.402,8.098 11.316,12.196 1.753,1.834 2.801,4.156 5.179,5.29 3.429,1.643 7.13,2.647 10.92,2.961 l 1.022,-0.403 c -0.362,-4.875 -9.427,-8.051 -9.596,-12.815 1.098,-0.349 1.449,-0.315 2.482,0.218 4.32,2.233 7.557,6.092 11.998,8.232 4.321,-0.545 8.385,1.001 12.201003,0.511 l 0.265,-0.675 c -3.124003,-4.346 -7.873003,-8.439 -12.844003,-10.364 z m -27.965,-74.063046 c 1.275,-3.053 4.869,-14.922 7.046,-16.271 0.489,0.102 0.85,0.03 1.143,0.461 2.79,4.103 2.635,11.035 2.92,15.863 6.673,-6.095 9.833,-9.147 10.825,-18.41 -2.241,-3.347 -4.36,-5.6369996 -8.453,-6.4099996 -1.154,-0.218 -2.273,-0.158 -3.437,-0.058 -4.322,1.484 -7.914,4.3649996 -12.138,5.9219996 -11.034,4.068 -25.114,0.476 -35.778,-2.9489996 -2.733,-0.878 -9.251,-3.941 -11.729,-1.736 -0.226,1.002 -0.2729997,1.182 0.257,2.0789996 3.987,6.748 14.596,7.041 20.605,11.286 6.474,4.572 11.414,11.291 18.216,16.115 3.739,2.615 11.156,9.243 15.794,8.221 1.92,-0.424 3.433,-1.831 4.367,-3.512 1.026,-1.845 1.501,-4.122 0.95,-6.191 -0.331,-1.245 -1.095,-2.534 -2.233,-3.193 -1.957,-1.133 -6.073,-1.015 -8.355,-1.217 z m 38.783,0.988 c 0.807,2.661 1.630003,5.425 0.168,8.056 -0.635,1.142 -1.474,2.233 -2.246,3.286 1.36,3.074 1.879,5.527 0.607,8.748 -0.922,2.335 -2.401,4.407 -3.55,6.628 3.945,0.038 7.890003,-0.007 11.834003,-0.136 2.801,-0.368 6.606,-0.373 8.527,-2.673 1.898,-4.764 -1.52,-12.647 -3.471,-17.175 -1.341,-3.111 -4.266,-9.782 -7.483,-11.066 z m -7.424,-12.643 c -2.027,0.195 -4.006,0.379 -6.044,0.309 0.338,2.262 0.612,4.56 1.088,6.796 2.201,1.119 4.189,1.799 6.652,2.109 1.55,-0.408 2.772,-0.641 3.864,-1.918 0.59,-1.319 0.705,-2.528 0.115,-3.889 -0.64,-1.476 -2.164,-2.891 -3.702,-3.39 -0.651,-0.211 -1.312,-0.124 -1.973,-0.017 z m -10.762,33.954 c 2.032,0.027 4.081,0.107 6.109,-10e-4 1.46,-0.576 3.219,-1.142 3.949,-2.657 0.504,-1.047 0.296,-1.502 0.079,-2.6 -1.271,-1.825 -3.211,-3.073 -5.398,-3.473 -1.346,-0.237 -2.928,-0.064 -4.267,0.134 -2.061,1.284 -3.718,2.633 -5.436,4.348 1.575,1.623 3.055,3.027 4.964,4.249 z m 6.364,-21.958 c -3.674,0.448 -7.341,0.93 -11.038,1.148 l 0.361,0.463 c 2.21,2.862 3.393,7.253 6.907,8.471 3.33,0.082 7.199,0.709 9.905,-1.66 0.744,-0.651 1.22,-1.57 1.259,-2.564 0.061,-1.563 -0.82,-3.011 -1.913,-4.055 -1.049,-1.002 -2.858,-2.114 -4.328,-2.004 -0.39,0.029 -0.772,0.113 -1.153,0.201 z"
     id="path132" />
</svg>
