<?xml version="1.0" encoding="UTF-8" standalone="no"?>
<svg
   width="173.00696"
   height="133.08563"
   viewBox="0 0 173.00696 133.08563"
   version="1.1"
   id="svg125"
   xmlns="http://www.w3.org/2000/svg"
   xmlns:svg="http://www.w3.org/2000/svg">
  <defs
     id="defs125" />
  <path
     fill="#030303"
     d="m 88.743898,0.39378879 c 0.208,-0.017 0.416,-0.032 0.625,-0.045 8.161,-0.525 16.546002,-0.208 24.731002,-0.22 13.786,-0.021 28.38,-0.842 41.938,1.94300001 2.607,0.536 5.486,1.41 7.496,3.243 1.352,1.233 2.749,3.167 2.727,5.0680002 -0.014,1.247 -0.724,2.188 -1.63,2.986 -6.565,5.779 -26.304,3.355 -35.051,3.122 -7.472,-0.199 -15.771,-0.508 -21.455,5.06 -1.209,1.184 -2.071,2.661 -1.976,4.403 0.071,1.234 0.671,2.378 1.646,3.137 2.494,1.911 7.025,2.446 10.061,2.59 14.834,0.704 26.568,-5.973 39.834,-11.455 2.968,-1.226 6.596,-2.963 9.83,-3.137 1.501,-0.081 3.087,0.282 4.188,1.365 1.051,1.034 1.404,2.467 1.273,3.897 -0.334,3.64 -3.081,7.197 -5.883,9.359 -4.305,3.321 -10.151,5.31 -15.102,7.562 -8.683,3.951 -18.922,9.64 -25.814,16.267 -7.389,7.105 -9.925,18.533 -17.775,24.887 -4.187,3.389 -8.057,3.104 -13.057002,2.59 -2.038,-0.013 -3.073,-0.138 -4.56,1.283 -0.857,5.995 9.769002,9.611 11.700002,15.00795 0.773,2.160991 -0.618,5.740991 -1.603,7.666991 -5.095002,9.961 -16.394002,18.56 -26.858002,21.862 -9.381,2.959 -22.069,6.076 -31.679,2.947 -4.844,-1.577 -9.938,-4.651 -14.479,-7.015 -3.082,-1.604 -6.152,-3.337 -8.644,-5.796 -5.431,-5.361 -15.6499997,-21.596991 -17.9119997,-28.964941 -1.72599992,-5.621 -2.03899992,-13.578 0.818,-18.904 3.875,-7.225 16.8239997,-7.572 24.0689997,-7.612 2.962,-0.017 6.84,0.469 9.661,-0.525 0.681,-0.239 1.546,-0.592 1.991,-1.179 2.639,-3.489 4.201,-8.24 6.232,-12.144 1.829,-3.516 4.087,-6.781 5.664,-10.428 l 0.222,-0.521 c -1.475,-3.924 -2.456,-7.604 -2.583,-11.827 -0.196,-6.545 1.344,-12.93 5.982,-17.7500002 8.515,-8.84900001 23.973,-8.38600001 35.373,-8.72300001 z M 102.0609,33.189789 c -2.587002,3.291 -5.966002,8.563 -10.476002,9.128 -4.81,0.603 -4.653,-4.941 -11.705,-1.242 -0.749,1.17 -1.213,2.228 -0.826,3.636 1.27,4.626 9.327,5.383 9.929,9.485 -0.794,0.969 -1.132,1.241 -2.432,1.324 -4.108,0.263 -8.849,-3.521 -12.734,-1.536 -0.722,0.954 -0.952,1.59 -0.754,2.829 0.361,2.258 1.184,4.74 3.17,6.05 2.196,1.449 5.008,1.733 7.386,2.799 l 1.018,1.173 c -0.066,0.793 0.059,1.215 -0.672,1.705 -2.332,1.562 -5.234,0.158 -7.006,3.167 0,1.544 0.712,2.458 1.76,3.525 3.206,3.266 7.168,4.266 11.661,4.277 6.039,0.015 11.792002,-1.324 16.107002,-5.767 4.105,-4.226 6.696,-9.958 9.988,-14.828 8.584,-12.701 21.917,-19.09 35.414,-25.272 4.197,-1.923 14.443,-5.128 15.78,-9.657 -0.724,-1.102 -1.242,-1.277 -2.558,-1.541 -0.416,-0.083 -0.841,-0.051 -1.26,-0.033 l -0.548,0.152 c -5.629,1.601 -11.073,4.506 -16.413,6.881 -10.268,4.568 -22.685,7.566 -33.957,6.148 -3.754,-0.472 -7.208,-1.621 -10.872,-2.403 z m -38.256002,-2.75 c 1.054,1.666 1.906,2.984 3.547,4.136 l 1.255,0.243 c 0.996,-0.716 1.477,-1.102 1.701,-2.379 0.641,-3.656 -1.647,-8.099 0.961,-11.406 1.299,-0.561 1.542,-0.533 2.95,-0.311 0.768,0.854 1.051,1.212 0.975,2.395 -0.144,2.254 -1.491,4.81 0.159,6.848 0.959,1.185 1.839,1.428 3.247,1.602 1.8,-0.812 2.5,-2.482 3.162,-4.222 1.16,-3.047 1.772,-5.408 4.663,-7.298 0.901,0.466 2.511,0.964 2.732,2.048 0.396,1.939 -0.534,4.399 1.336,5.892 0.139,0.112 0.29,0.208 0.436,0.312 3.377,-0.632 6.086,-5.655 8.532,-8.025 1.783002,-1.727 3.901002,-3.306 6.068002,-4.517 4.209,-2.352 10.422,-3.659 15.207,-4.199 8.955,-1.011 18.116,0.413 27.076,0.769 2.38,0.094 5.237,0.469 7.555,0.13 1.162,-0.169 1.573,-0.561 2.354,-1.338 0.201,-1.4110002 0.187,-2.2870002 -0.802,-3.4760002 -1.402,-1.687 -3.448,-2.347 -5.57,-2.428 -20.541,-0.783 -41.482,-0.605 -62.029002,0.046 -10.519,0.138 -25.067,-1.383 -33.054,6.8540002 -3.12,3.218 -3.823,7.864 -3.686,12.191 0.129,4.097 1.26,10.038 4.362,13.018 0.776,0.746 1.418,0.952 2.462,1.099 1.787,-0.68 2.255,-1.86 3.022,-3.555 -1.425,-2.233 -3.635,-5.115 -2.992,-7.938 0.322,-1.413 0.627,-1.897 1.708,-2.741 1.354,0.248 1.361,0.42 2.22,1.418 0.384,1.609 0.402,3.189 0.443,4.832 z m 3.447,41.912 2.265,1.223 0.869,-0.285 c 0.986,-2.187 0.093,-5.603 0.184,-8.063 -2.273,-2.873 -4.417,-5.124 -3.943,-9.106 0.344,-2.89 3.444,-6.208 3.03,-8.786 -1.813,-2.24 -6.929,-2.253 -9.683,-2.606 -2.293,3.604 -10.074,15.051 -9.356,19.221 0.22,1.28 1.028,2.041 2.078,2.712 4.223,2.695 9.996,3.524 14.556,5.69 z"
     id="path130" />
</svg>
