<?xml version="1.0" encoding="UTF-8" standalone="no"?>
<svg
   width="155.96008"
   height="147.2326"
   viewBox="0 0 155.96008 147.2326"
   version="1.1"
   id="svg125"
   xmlns="http://www.w3.org/2000/svg"
   xmlns:svg="http://www.w3.org/2000/svg">
  <defs
     id="defs125" />
  <path
     fill="#030303"
     d="m 41.945098,0.11759218 c 2.024,-0.162 4.067,-0.204 6.07,0.186 9.167,1.78600002 15.151,10.45099982 20.064,17.64399982 4.901,-1.748 9.992,-3.9 15.202,-4.435 2.043,-0.21 5.547,-0.193 7.15,1.316 1.592,1.499 12.315002,19.619 13.743002,22.948 4.216,9.831 6.024,21.137 9.349,31.388 1.665,5.137 9.781,23.523 9.702,27.257 -0.032,1.47 -0.745,3.677008 -1.934,4.616008 -0.79,0.624 -1.595,0.762 -2.567,0.648 -5.679,-0.67 -11.873,-11.146008 -15.388,-15.306008 -1.773,5.62 -3.111,10.113 -6.180002,15.253008 7.030002,7.13 16.885002,11.826 25.328002,17.045 5.849,3.616 11.538,7.494 17.421,11.053 4.124,2.494 8.628,4.734 12.366,7.78 1.831,1.491 3.434,2.899 3.689,5.378 -0.233,1.22 -0.609,2.009 -1.52,2.881 -1.325,1.268 -2.58,1.46 -4.354,1.463 -8.901,-1.733 -17.34,-5.57 -25.747,-8.837 -11.388,-4.424 -30.176002,-10.972 -42.161002,-10.583 -9.93,0.322 -18.864,4.106 -28.528,5.066 -10.853,1.08 -20.428,-2.427 -28.797,-9.244 -11.164,-9.094 -15.8030002,-13.518 -21.7230002,-27.135008 -1.242,-2.854 -2.87800007,-6.157 -3.09400007,-9.284 -0.05,-0.729 -0.125,-1.881 0.374,-2.495 2.46000007,-3.034 7.72400007,-5.327 11.08600027,-7.495 4.599,-2.966 9.332,-6.449 12.922,-10.597 -0.817,-3.677 -1.696,-7.356 -2.365,-11.063 -0.832,-4.612 -1.073,-9.385 -1.453,-14.052 -0.895,-11.013 -2.324,-22.458 4.481,-32.0589998 4.338,-6.12 9.753,-8.135 16.864,-9.33700002 z m 27.561,75.40299982 c 1.175,4.595 2.502,9.209 3.496,13.843 -1.346,2.992 -2.724,5.59 -5.967,6.836 -3.17,1.217 -6.564,0.52 -9.548,-0.891 -4.015,-1.899 -7.62,-4.686 -11.518,-6.813 -4.014,-2.19 -9.048,-3.515 -12.622,-6.324 0.435,5.51 1.033,10.4 5.498,14.226 4.018,3.442 13.976,7.315008 14.502,13.476008 0.017,0.194 0.016,0.39 0.024,0.585 -0.81,0.623 -0.96,0.626 -1.992,0.46 -4.459,-0.719 -7.259,-4.616 -11.041,-6.553 -2.773,-1.421 -6.032,-2.303 -8.984,-3.307 0.408,2.914 0.714,5.863 1.655,8.662 4.372,4.583 8.15,5.237 11.258,8.084 0.704,0.645 0.957,1.516 0.989,2.433 -1.162,0.766 -2.128,0.623 -3.475,0.342 -2.647,-0.554 -7.004,-2.438 -9.392,-0.926 0.844,2.688 4.992,4.508 7.408,5.771 2.163,1.131 4.263,2.251 6.68,2.727 9.893,1.587 18.727,-4.18 28.208,-5.986 6.882,-1.311 14.121,-0.634 20.911,0.94 9.656002,2.238 18.923002,6.686 28.201002,10.143 3.068,1.143 6.443,2.683 9.653,3.224 1.43,0.241 2.66,0.251 3.859,-0.584 -0.168,-1.928 -1.783,-3.188 -3.212,-4.384 -13.31,-11.133 -37.786002,-18.821 -45.663002,-33.883008 -3.15,-6.024 -3.785,-12.991 -6.18,-19.322 -1.653,-4.371 -4.478,-8.233 -6.204,-12.543 -1.776,3.528 -4.192,6.609 -6.544,9.764 z m -7.743,-45.854 c 2.994,1.9 5.896,3.614 9.16,5.032 2.871,-0.581 7.633,-2.038 10.299,-0.456 1.286,0.763 1.858,1.903 2.07,3.352 0.68,4.653 -0.603,9.198 0.74,13.869 1.668,5.807 7.087,8.696 10.547,13.199 4.962,6.456 8.797002,13.833 13.583002,20.432 1.618,2.459 5.316,8.922 8.233,9.389 0.182,0.029 0.366,0.038 0.549,0.057 l 0.74,-0.662 c 0.103,-1.834 -0.31,-3.505 -0.847,-5.244 -2.127,-6.889 -5.368,-13.41 -7.683,-20.236 -3.531,-10.413 -6.165,-21.41 -10.641002,-31.474 -1.579,-3.553 -3.561,-6.845 -6.176,-9.737 -2.663,-2.946 -6.735,-6.139 -10.884,-6.303 -0.463,-0.018 -0.925,-0.008 -1.388,0.007 -6.003,0.423 -12.196,1.393 -16.408,6.165 -0.709,0.804 -1.307,1.716 -1.894,2.61 z m -25.716,32.906 c 3.118,-1.125 6.215,-2.321 9.449,-3.075 2.69,-0.468 5.354,-0.883 8.073,-1.159 -0.407,-4.133 -0.691,-8.33 -1.325,-12.432 -1.475,-1.819 -3.098,-3.58 -3.734,-5.881 -0.043,-0.156 -0.094,-0.31 -0.132,-0.467 -0.449,-1.845 -0.017,-4.089 0.174,-5.956 -2.639,-1.491 -4.976,-2.542 -5.826,-5.704 -0.572,-2.128 -0.013,-4.327 1.112,-6.174 1.463,-2.402 5.499,-5.452 5.87,-8.12 -0.725,-1.068 -1.006,-1.243 -2.305,-1.452 -0.779,-0.126 -1.682,-0.054 -2.472,-0.04 -4.636,0.935 -7.94,2.465 -10.672,6.474 -6.363,9.333 -2.59,26.492 -0.484,36.823 0.515,2.528 1.177,4.821 2.272,7.163 z m 24.862,-45.205 c -0.08,0.093 -0.158,0.187 -0.241,0.277 -2.937,3.214 -12.976,2.324 -12.706,7.866 0.082,1.677 1.07,3.347 2.076,4.642 2.047,0.533 3.787,0.9 5.778,-0.168 2.459,-1.319 4.443,-4.114 5.123,-6.789 0.417,-1.642 1.106,-4.031 0.17,-5.552 -0.06,-0.097 -0.133,-0.184 -0.2,-0.276 z m 0.128,17.879 c -1.877,0.453 -3.519,1.01 -4.637,2.726 -0.739,1.111 -0.956,2.489 -0.594,3.773 0.433,1.519 1.616,2.772 3.034,3.428 1.867,0.865 3.814,0.453 5.738,0.046 3.506,-1.41 4.334,-2.821 6.124,-6.077 -3.266,-2.031 -5.671,-3.814 -9.665,-3.896 z m 3.173,21.897 c 2.654,0.874 5.751,1.142 8.31,-0.231 1.397,-0.749 3.1,-2.47 3.485,-4.05 0.401,-1.645 -0.09,-4.064 -0.257,-5.754 l -0.291,-0.229 c -3.101,1.444 -6.21,1.371 -9.573,1.447 -1.439,0.974 -3.678,2.18 -4.066,4 -0.213,1 0.011,1.813 0.538,2.69 0.454,0.755 1.25,1.484 1.854,2.127 z"
     id="path129" />
</svg>
