<?xml version="1.0" encoding="UTF-8" standalone="no"?>
<svg
   width="185.48779"
   height="253.10294"
   viewBox="0 0 185.48779 253.10294"
   version="1.1"
   id="svg125"
   xmlns="http://www.w3.org/2000/svg"
   xmlns:svg="http://www.w3.org/2000/svg">
  <defs
     id="defs125" />
  <g
     id="g209"
     transform="translate(-1.3741306e-5,-235.1722)">
    <path
       fill="#0f7a0f"
       d="m 0,414.045 c 4.94758,-1.158 8.71676,0.421 12.9461,3.062 4.6355,2.896 9.2836,6.879 12.5997,11.234 2.8246,-4.319 6.8968,-9.505 12.2592,-10.646 3.2941,-0.7 6.2486,0.315 8.9511,2.174 0.6758,0.474 1.3325,0.974 1.9684,1.5 3.9231,-3.629 8.3545,-7.318 14.046,-7.09 3.7318,0.149 6.6059,2.159 9.0212,4.869 2.1032,2.36 3.4295,5.119 5.1267,7.748 2.1148,-2.506 4.0264,-5.013 7.5944,-5.202 2.2865,-0.121 4.2685,1.003 5.8396,2.571 2.2187,2.215 3.4501,4.954 4.6439,7.802 2.7047,-2.298 5.7227,-3.545 9.3477,-3.158 2.725,0.29 5.077,1.751 6.684,3.948 2.543,3.477 2.772,7.528 3.247,11.654 3.573,-0.181 9.263,-1.144 12.535,0.435 1.886,2.617 1.374,7.276 0.874,10.287 -0.596,3.588 -2.145,7.141 -5.16,9.351 -1.783,1.307 -4.148,1.554 -6.28,1.893 -0.365,5.101 -1.923,10.631 -5.965,14.098 -1.772,1.52 -3.955,2.369 -6.315,2.189 -3.847,-0.293 -6.9816,-2.946 -9.3604,-5.78 -0.275,-0.328 -0.5403,-0.664 -0.7955,-1.007 -3.9224,3.917 -8.3419,9.313 -14.4251,9.233 -3.8855,-0.051 -7.2391,-2.482 -9.7826,-5.221 -1.2003,-1.293 -2.3517,-2.68 -3.4059,-4.095 -2.5972,5.157 -6.4915,9.735 -12.1421,11.602 -4.0302,1.332 -8.0426,0.93 -11.8009,-1.006 -5.4164,-2.789 -9.7793,-8.146 -12.6153,-13.46 -3.5874,3.892 -7.1943,7.441 -12.8561,7.605 C 10.8674,480.807 6.09052,476.878 2.1059,472.954 1.37522,472.229 0.67274,471.475 0,470.696 Z"
       id="path197" />
    <g
       id="g202">
      <path
         fill="#313131"
         d="m 40.4211,295.464 c 1.1311,-0.096 2.3989,-0.106 3.5137,0.148 3.4405,0.785 6.5418,2.842 8.3416,5.889 2.1424,3.628 2.8415,8.193 1.7195,12.26 -2.3552,8.538 -10.6904,17.266 -18.3147,21.441 -4.8287,2.644 -12.8244,5.045 -18.2718,3.393 -5.2613,-1.596 -9.89071,-6.549 -12.34706,-11.318 -2.18824,-4.248 -5.502479,-18.186 -3.75602,-22.612 0.50562,-1.281 0.97237,-1.553 2.12784,-2.113 1.81025,0.505 1.89079,2.057 3.53627,2.771 l 1.08375,-2.378 c 1.08051,-0.809 1.05756,-0.816 2.39352,-0.641 1.239,0.862 1.4597,1.784 1.8942,3.157 0.2336,0.738 0.315,0.651 0.9193,1.068 0.9471,-0.869 1.814,-1.573 2.9507,-2.178 1.5473,0.158 1.7103,0.542 2.8562,1.637 1.3103,2.6 2.3936,5.346 3.5529,8.019 1.0594,0.581 2.1725,1.156 3.1538,1.863 0.8378,0.603 1.7116,1.482 1.802,2.572 0.0844,1.016 -0.2574,1.988 -1.0277,2.678 -0.9698,0.868 -1.6766,0.977 -2.888,0.998 -1.8162,-0.782 -2.9091,-2.433 -4.2885,-3.792 -1.1658,-1.149 -2.4906,-2.039 -4.192,-1.944 -1.461,0.082 -3.4467,1.045 -4.4099,2.15 -0.6926,0.796 -0.96127,1.785 -0.88993,2.825 0.17483,2.548 1.82353,4.838 3.73753,6.426 3.0401,2.523 7.2054,2.866 10.993,2.465 7.6797,-0.814 13.2397,-6.361 17.861,-12.085 2.0615,-2.553 5.5706,-7.118 4.9856,-10.671 -0.237,-1.44 -0.9803,-2.913 -2.2673,-3.677 -5.5876,-3.316 -12.5994,4.113 -17.5386,4.977 -1.2571,0.22 -1.6783,0.093 -2.7036,-0.592 -0.0978,-1.079 0.1864,-1.807 0.7521,-2.743 3.1207,-5.164 9.0312,-8.569 14.7206,-9.993 z"
         id="path198" />
      <path
         fill="#313131"
         d="m 74.1859,270.303 2.7233,0.033 c 0.8242,0.382 1.2629,0.694 1.7689,1.468 1.5801,2.419 1.5492,5.347 0.9815,8.07 -0.664,3.185 -1.7127,5.459 -4.4818,7.278 -0.2898,-0.009 -0.5795,-0.025 -0.8687,-0.046 -1.5035,-0.119 -2.6653,-0.469 -3.6193,-1.708 -1.3678,-1.777 -1.568,-4.26 -1.2671,-6.411 0.5147,-3.681 1.7812,-6.449 4.7632,-8.684 z"
         id="path199" />
      <path
         fill="#313131"
         d="m 68.6042,249.974 c 0.9898,-4.981 1.9136,-10.363 6.4807,-13.422 1.7345,-1.162 3.9684,-1.696 6.017,-1.187 2.4789,0.617 4.7564,2.643 5.9864,4.852 0.8855,1.591 1.5354,3.42 2.1607,5.128 2.9281,0.876 5.2156,1.566 6.8129,4.43 1.3926,2.497 1.0456,5.486 0.2168,8.101 -1.1573,3.65 -3.3144,7.034 -5.1274,10.391 0.5485,1.226 0.6122,1.74 1.7712,2.469 1.7083,-0.339 4.6314,-1.679 6.1507,-1.143 -0.2346,2.445 -5.806,11.404 -7.2445,14.88 2.046,5.181 3.5002,10.445 5.0639,15.78 l -9.1283,-5.828 c 0.3897,3.703 1.6463,10.507 -0.7715,13.543 -1.0387,1.304 -2.5851,1.984 -4.2251,2.086 -1.9256,0.119 -3.8811,-0.167 -5.7859,-0.42 -11.7005,16.832 -23.2168,32.308 -44.0587,37.917 -0.6177,-0.576 -13.2199,-0.299 -15.428,-0.406 l -5.4842,-2.33 c -0.9285,-0.447 -1.5908,-0.535 -2.03835,-1.486 1.32895,-0.816 3.13965,-0.674 4.66545,-0.751 2.4907,-0.076 5.0317,-0.165 7.509,-0.43 18.2151,-1.942 32.5464,-15.299 43.4904,-28.959 7.726,-9.642 19.6246,-26.456 18.0631,-39.427 -0.581,-4.826 -2.9432,-10.463 -6.9349,-13.452 C 60.8787,248.413 38.1778,294.476 19.9879,296.684 4.81761,298.525 7.92471,279.662 3.7991,276.362 2.55995,277.094 1.34029,277.602 0,278.108 v -22.281 c 2.01348,2.575 3.561,5.592 5.20458,8.414 2.98875,-2.435 5.80152,-5.737 8.96962,-7.824 0.8062,-0.531 0.8895,-0.692 1.8207,-0.502 0.6577,4.518 -2.5376,12.659 -2.5604,18.076 -0.0135,3.224 5e-4,9.128 2.5897,11.505 0.8823,0.81 1.9669,1.079 3.1473,1.021 9.2907,-0.457 18.982,-14.691 24.5935,-21.3 6.3165,-7.439 14.7483,-14.432 24.8392,-15.243 z"
         id="path200" />
      <path
         fill="#752222"
         d="m 68.6042,249.974 c 0.9898,-4.981 1.9136,-10.363 6.4807,-13.422 1.7345,-1.162 3.9684,-1.696 6.017,-1.187 2.4789,0.617 4.7564,2.643 5.9864,4.852 0.8855,1.591 1.5354,3.42 2.1607,5.128 2.9281,0.876 5.2156,1.566 6.8129,4.43 1.3926,2.497 1.0456,5.486 0.2168,8.101 -1.1573,3.65 -3.3144,7.034 -5.1274,10.391 -2.9716,-2.71 -4.9851,-8.057 -7.4439,-11.482 -2.887,-2.272 -5.8735,-4.119 -9.0433,-5.963 -1.9844,0.086 -4.1703,-0.246 -6.0599,-0.848 z"
         id="path201" />
      <path
         fill="#752222"
         d="m 76.9818,309.634 c 1.5716,-3.049 6.3878,-14.774 9.657,-15.932 l 1.1255,0.723 c 0.3897,3.703 1.6463,10.507 -0.7715,13.543 -1.0387,1.304 -2.5851,1.984 -4.2251,2.086 -1.9256,0.119 -3.8811,-0.167 -5.7859,-0.42 z"
         id="path202" />
    </g>
    <g
       id="g208">
      <path
         fill="#a17d1f"
         d="m 20.86,364.272 c 7.7362,-0.439 17.0223,0.618 23.0305,6.074 3.1445,2.856 2.7209,6.161 2.8656,10.061 -0.1855,10.469 0.5578,21.137 -0.0572,31.567 -2.8284,0.698 -6.0472,0.244 -8.9491,0.439 -3.9515,0.265 -7.5742,1.459 -11.3183,2.667 -1.597,-0.597 -3.5404,-1.177 -4.7379,-2.437 -0.9021,-0.948 -1.3365,-2.156 -1.5441,-3.428 -1.5721,-9.632 0.1086,-34.165 0.7105,-44.943 z"
         id="path203" />
      <path
         fill="#a17d1f"
         d="m 50.0746,375.096 c 5.2836,1.409 18.5555,8.603 21.1755,13.386 1.2013,2.194 2.375,19.176 1.9161,21.893 -0.4753,0.722 -0.5167,1.11 -1.4077,1.271 -6.7056,1.211 -10.0305,-3.459 -18.1203,0.903 -0.8211,0.457 -1.7263,0.814 -2.585,1.2 -1.4806,-0.161 -1.6466,-0.364 -2.7952,-1.344 2.6083,-10.968 1.4253,-25.463 1.5042,-36.828 z"
         id="path204" />
      <path
         fill="#a17d1f"
         d="m 77.1496,390.431 c 1.0286,0.355 2.0438,0.748 3.0436,1.178 3.5199,1.554 16.9613,7.74 18.0266,10.985 0.8085,2.462 1.5529,14.995 0.3585,17.159 -0.6924,1.255 -1.2323,1.33 -2.5185,1.671 -2.154,-1.785 -4.3716,-3.85 -6.7619,-5.304 -4.6037,-2.801 -7.3622,1.023 -11.6127,1.908 -0.4458,0.093 -0.74,-0.281 -1.1025,-0.525 -0.408,-1.241 0.5422,-24.033 0.5669,-27.072 z"
         id="path205" />
      <path
         fill="#a17d1f"
         d="m 105.554,406.581 c 4.196,1.232 21.67,9.479 23.368,12.965 1.356,2.782 1.027,15.026 0.078,18.198 l -4.175,-0.214 c -9.052,-0.427 -4.735,-8.017 -8.469,-11.586 -2.95,-2.819 -8.475,-2.131 -12.174,-1.974 0.177,-5.833 0.968,-11.576 1.372,-17.389 z"
         id="path206" />
      <path
         fill="#a17d1f"
         d="m 0,345.864 c 5.71052,0.693 11.7814,2.527 17.4951,1.281 2.2081,0.107 14.8103,-0.17 15.428,0.406 2.2378,1.535 9.376,2.625 12.9265,4.579 3.9155,2.156 7.5904,4.891 11.4918,7.133 9.7594,5.611 19.7322,10.844 29.513,16.414 6.9865,3.979 13.7676,8.305 20.8056,12.198 18.292,9.995 36.445,20.241 54.455,30.737 6.902,3.984 14.496,7.533 21.067,12.006 1.045,0.711 2.081,1.72 2.267,3.026 0.244,1.714 -0.704,3.298 -1.745,4.582 -1.215,1.501 -2.67,2.339 -4.617,2.498 -6.028,0.492 -21.505,-10.932 -28.169,-13.922 -3.654,6.121 -0.149,29.76 -1.849,38.809 -0.239,1.211 -1.069,2.609 -2.043,3.375 -2.964,2.33 -8.008,1.355 -11.485,1.018 -0.671,-6.204 -0.126,-12.261 -0.066,-18.477 0.11,-11.499 0.246,-23.086 -0.303,-34.573 -5.953,-3.882 -12.803,-6.737 -18.997,-10.28 L 62.7389,376.292 C 54.9643,371.827 41.012,362.024 33.1901,360.061 25.2163,358.061 8.79515,359.696 0,359.9 Z"
         id="path207" />
      <path
         fill="#a17d1f"
         d="m 0,364.353 c 4.97182,-0.213 9.95671,-0.504 14.9211,10e-4 0.2722,7.528 2.0098,38.228 -0.1068,43.983 C 11.8973,409.43 4.47545,406.012 0,406.022 Z"
         id="path208" />
    </g>
  </g>
</svg>
