<?xml version="1.0" encoding="UTF-8" standalone="no"?>
<svg
   width="138.96509"
   height="182.74599"
   viewBox="0 0 138.96509 182.74599"
   version="1.1"
   id="svg125"
   xmlns="http://www.w3.org/2000/svg"
   xmlns:svg="http://www.w3.org/2000/svg">
  <defs
     id="defs125" />
  <g
     id="g184"
     transform="translate(5.3447478e-5,-1.7122472e-5)">
    <path
       fill="#313131"
       d="m 15.9923,0 h 11.2486 5.9161 10.2963 c 1.9005,5.13946 4.1901,9.63616 6.9626,14.3501 1.3842,2.3537 3.1458,4.8178 4.2264,7.3099 6.3552,-0.2038 38.6713,-0.6523 42.7152,0.5887 0.1264,10.6638 0.0906,21.317 0.5857,31.9729 1.9585,0.0765 4.2268,0.3021 6.1498,-0.0582 13.887,-2.6011 15.336,-16.3062 34.155,-14.5683 0.06,7.5956 0.33,15.2059 0.312,22.7983 -0.015,6.5938 -0.722,13.4845 0.405,20.0101 -0.333,7.7823 -0.692,15.8378 -0.525,23.6225 -0.21,11.816 0.01,23.609 -0.071,35.423 -0.03,4.376 0.434,9.527 -0.403,13.809 -1.391,0.853 -2.831,0.297 -4.139,1.252 -0.496,0.137 -0.851,0.14 -1.372,0.056 -3.059,-0.492 -5.865,-4.95 -7.42,-7.266 -2.639,-3.855 -6.688,-7.22 -9.662,-10.965 l -2.373,-2.993 -0.74,0.256 c 0.422,1.062 0.795,2.449 1.577,3.292 2.693,5.276 5.263,11.288 8.864,16.004 l 0.397,-0.302 c 1.53,1.439 3.063,3.852 3.629,5.877 -0.367,0.265 -0.465,0.5 -0.684,0.887 1.666,4.109 4.465,7.715 6.449,11.695 -5.417,3.527 -11.379,6.464 -16.992,9.695 -3.761,-8.267 -8.693,-16.307 -12.894,-24.406 C 89.5551,133.178 75.8889,108.29 62.4665,83.3234 L 38.9786,38.883 C 36.3248,33.9275 34.016,28.2493 30.9727,23.5616 30.2462,22.4425 29.7667,22.3468 28.56,22.0814 c -1.6314,0.4276 -2.6868,1.4142 -3.7621,2.6591 -3.5176,4.0722 -6.235,9.44 -9.0901,14.0061 C 10.5446,46.9618 5.30842,55.131 0,63.2532 V 44.7805 33.0986 18.6659 C 5.56418,12.7295 10.9513,6.38809 15.9923,0 Z m 87.1697,117.887 0.746,0.423 c 1.193,-2.115 1.276,-50.0748 0.503,-53.5148 -1.282,-0.2778 -2.393,-0.208 -3.693,-0.0865 l -1.7263,0.588 c -1.3327,4.7362 -0.4099,35.8273 0.5168,41.7043 0.5805,3.684 2.2405,7.441 3.6535,10.886 z m 8.221,-54.6653 c -0.052,2.2828 -0.694,7.3811 0.817,9.0809 5.549,-3.7459 11.29,-7.2765 17.363,-10.12 0.574,-3.8213 1.142,-7.7038 0.474,-11.5472 l -0.449,-0.5712 c -6.005,4.0107 -12.942,8.2516 -18.205,13.1575 z m 18.754,66.5373 c -5.424,-1.678 -13.979,-6.679 -18.761,-9.819 -0.258,2.11 -0.506,4.147 -0.411,6.276 6.792,5.208 12.435,11.829 19.181,16.963 z m -0.454,-11.292 c 0.037,-0.324 0.071,-0.648 0.101,-0.973 0.271,-3.057 1.487,-11.637 -0.404,-13.877 l -1.73,-0.041 -0.936,-0.287 -0.428,0.193 c -2.159,0.988 -4.157,3.061 -6.501,3.308 -1.646,-0.606 -2.295,-1.264 -3.184,-2.803 -0.953,-0.972 -1.906,-1.314 -3.224,-1.517 -0.776,0.338 -1.086,0.389 -1.555,1.09 -0.996,1.488 -1.289,3.744 -0.802,5.468 0.117,0.414 0.418,1.006 0.692,1.327 0.923,1.085 14.88,6.393 17.971,8.112 z m -0.09,-26.9473 c 0.089,-2.7551 1.132,-10.607 -0.449,-12.8131 -5.759,2.4447 -11.738,5.5674 -17.777,7.1648 0.017,1.7764 -0.389,5.9048 0.61,7.2732 5.748,-1.2205 11.787,-0.6961 17.616,-1.6249 z"
       id="path177" />
    <path
       fill="#752222"
       d="m 15.9923,0 h 11.2486 5.9161 c 9.066,16.7633 17.5307,33.7997 26.3275,50.691 2.2028,4.2298 4.818,8.2388 6.9953,12.4824 4.3034,8.3872 8.0186,17.1402 12.5062,25.4236 1.7916,3.3069 4.0265,6.3708 5.8376,9.6726 2.133,3.8884 3.8925,7.9804 5.9507,11.9094 7.3306,13.993 14.7007,27.874 21.7887,42.002 1.984,3.953 4.965,7.632 6.736,11.574 0.855,1.903 0.925,4.063 0.391,6.066 -0.957,0.829 -0.962,0.955 -2.293,0.982 -4.211,-2.396 -16.773,-30.477 -19.8531,-36.477 -2.428,-4.731 -5.4644,-9.172 -7.9703,-13.872 L 60.5858,65.7455 C 51.9063,49.0592 44.3475,31.5967 34.5644,15.5121 30.9745,14.7091 27.6323,14.2433 23.9429,14.4843 16.7396,20.5247 7.56793,36.6309 0,44.7805 V 33.0986 18.6659 C 5.56418,12.7295 10.9513,6.38809 15.9923,0 Z"
       id="path178" />
    <path
       fill="#313131"
       d="M 15.9923,0 H 27.2409 C 22.7984,4.05751 19.3314,9.30504 15.6181,14.021 12.9298,17.4353 10.0128,20.6643 7.34345,24.092 4.97169,27.1376 2.81407,30.4445 0,33.0986 V 18.6659 C 5.56418,12.7295 10.9513,6.38809 15.9923,0 Z"
       id="path179" />
    <path
       fill="#752222"
       d="m 54.6423,21.66 c 6.3552,-0.2038 38.6713,-0.6523 42.7152,0.5887 -0.1279,0.9767 -0.3696,1.8422 -0.6701,2.7791 -0.9361,0.5418 -1.8444,0.8098 -2.9048,0.985 C 89.0709,26.7913 58.7427,27.6046 56.1182,25.363 54.9439,24.36 54.7385,23.1196 54.6423,21.66 Z"
       id="path180" />
    <path
       fill="#752222"
       d="m 61.2326,31.5014 c 6.1465,1.6456 12.3534,1.4194 18.6481,1.3147 2.3916,-0.0398 5.281,-0.3661 7.5932,0.2397 0.6597,0.1728 1.0634,0.4994 1.3913,1.0922 0.8458,1.5297 0.2219,3.4502 -0.2492,5.0012 -4.899,1.9706 -17.7398,0.3155 -23.6685,0.234 -2.4328,-2.7133 -3.7088,-4.1303 -3.7149,-7.8818 z"
       id="path181" />
    <path
       fill="#752222"
       d="m 78.7396,49.4175 c 2.9487,-0.2708 6.981,-1.0681 9.5567,0.8295 0.9018,0.6644 0.8983,0.8191 1.0517,1.9204 -0.2464,0.4351 -0.4583,0.8288 -0.8475,1.1572 -2.8611,2.4145 -7.0616,1.9174 -10.5476,1.9047 -2.0085,0.0896 -3.9952,0.1743 -5.9404,-0.4247 -1.484,-0.4569 -2.5295,-0.8896 -3.2633,-2.2746 0.1043,-0.3036 0.1036,-0.3707 0.3377,-0.6575 2.1259,-2.6039 6.6297,-2.3558 9.6527,-2.455 z"
       id="path182" />
    <path
       fill="#752222"
       d="m 76.6853,64.0744 c 2.8643,0.0518 5.9122,-0.4818 8.7316,-0.0872 1.5611,0.2185 2.0947,0.7229 2.9398,1.9197 0.2685,1.6084 -0.0913,2.8907 -0.4847,4.432 -0.967,0.2875 -1.9401,0.5754 -2.9291,0.7776 -1.704,0.3483 -3.6521,-0.1625 -5.0607,-1.165 -1.9392,-1.3801 -2.7826,-3.6359 -3.1969,-5.8771 z"
       id="path183" />
    <path
       fill="#752222"
       d="m 83.7248,79.1757 c 1.1184,-0.1145 2.724,-0.3861 3.8067,-0.0037 1.1883,0.4197 1.3235,1.0491 1.7278,2.1176 -0.0821,1.8819 -0.9787,3.3546 -1.8346,4.9856 -0.1068,-0.0544 -0.2173,-0.1019 -0.3203,-0.1632 -1.8364,-1.0916 -3.2939,-3.9421 -3.93,-5.9161 z"
       id="path184" />
  </g>
</svg>
