<?xml version="1.0" encoding="UTF-8" standalone="no"?>
<svg
   width="185.47107"
   height="249.46738"
   viewBox="0 0 185.47107 249.46738"
   version="1.1"
   id="svg125"
   xmlns="http://www.w3.org/2000/svg"
   xmlns:svg="http://www.w3.org/2000/svg">
  <defs
     id="defs125" />
  <g
     id="g192"
     transform="translate(5.6321502e-5,-67.537633)">
    <path
       fill="#a17d1f"
       d="m 0,191.727 c 13.7259,0.091 27.7852,-0.445 41.4635,0.543 99.8399,66.34568 135.52275,84.46785 144.0075,92.403 -1.498,2.715 -3.614,7.937 -6.523,9.236 -6.558,0.271 -24.642,-14.396 -31.209,-18.277 0.167,13.681 0.847,27.716 0.236,41.373 -4.402,-0.097 -8.806,-0.153 -13.199,-0.474 -0.384,-16.668 0.351,-33.476 -0.836,-50.106 C 133.36292,266.10582 47.945055,213.02382 35.7985,203.867 24.7808,202.295 11.3458,203.605 0,203.251 Z"
       id="path186" />
    <g
       id="g191">
      <path
         fill="#313131"
         d="m 37.3894,94.4389 c 0.3518,0.075 0.7018,0.158 1.0497,0.2491 2.4785,0.6548 4.2665,2.4688 5.5066,4.661 1.0412,1.841 1.4352,3.891 0.795,5.949 -0.507,1.629 -1.4094,2.245 -2.856,3.033 l -0.4482,-0.08 c -2.6571,-0.492 -4.5006,-1.987 -5.9549,-4.23 -1.1371,-1.754 -1.7315,-3.836 -1.2192,-5.9141 0.4681,-1.8988 1.5795,-2.6951 3.127,-3.668 z"
         id="path187" />
      <path
         fill="#313131"
         d="m 22.11,73.8567 c 2.329,-2.3284 4.3753,-4.7888 7.5995,-5.8651 1.8734,-0.6254 3.8498,-0.6696 5.6296,0.2798 4.3462,2.3187 5.3914,8.2151 6.5827,12.5197 0.5798,-2.3011 0.9699,-5.1443 2.5202,-6.9952 l 0.9793,-0.4135 c 3.324,2.3102 4.0087,9.9627 6.4836,13.6536 0.0361,0.0539 0.0684,0.1104 0.1026,0.1657 2.6123,-0.5545 5.1977,-1.0738 7.8496,-1.4121 -0.9407,2.686 -3.0124,6.5227 -2.855,9.3286 l 0.8247,0.6953 c 4.5263,-0.0681 7.5314,0.199 10.9285,3.4222 1.832,1.7383 3.2236,4.0863 3.2134,6.6673 -0.0087,2.232 -0.8194,4.176 -2.4646,5.664 -0.4152,0.372 -0.8401,0.733 -1.2742,1.083 6.9108,9.941 10.6179,30.448 8.4893,42.486 -1.8402,10.407 -7.4175,21.616 -16.1693,27.756 -5.7031,4.002 -12.7566,6.396 -19.762,5.914 -2.7772,-1.172 -5.7974,-0.543 -8.5034,-1.707 3.1962,-1.608 6.9707,-2.286 10.3339,-3.578 9.4358,-3.624 16.78,-11.275 20.8671,-20.44 5.9649,-13.376 4.2351,-27.918 -0.9264,-41.215 -4.0137,-10.341 -12.8129,-26.021 -23.3805,-30.5646 -3.8792,-1.6678 -8.4937,-1.973 -12.4412,-0.3546 -5.0504,2.0704 -8.0682,6.4823 -10.0869,11.3412 1.9482,13.431 13.5251,22.791 12.4515,37.005 -0.332,4.395 -1.9529,8.752 -5.4034,11.64 -2.8429,2.38 -6.7889,3.619 -10.4806,3.232 C -1.10798,152.662 3.77768,134.468 1.7219,131.903 L 0,132.612 v -9.924 c 1.62502,0.098 3.45654,0.057 5.03292,0.461 2.99691,0.77 9.07188,4.686 10.54388,7.544 0.5721,1.111 0.2638,1.685 -0.1275,2.743 -1.7545,1.394 -4.5348,1.825 -6.68394,2.407 -0.05909,0.57 -0.10454,1.141 -0.15495,1.711 -0.14382,1.629 -0.28334,3.247 0.67798,4.682 0.81611,1.217 2.49131,1.899 3.86821,2.233 1.7134,0.415 3.3656,0.354 4.8765,-0.644 8.1137,-5.361 -3.3103,-22.12 -5.4934,-28.802 C 10.3409,108.292 9.37837,100.673 10.8628,93.717 9.73736,91.8882 8.52541,90.0338 7.81166,87.9975 6.39863,83.9662 6.13083,79.0144 8.09173,75.1131 c 0.85441,-1.6999 2.21427,-3.0548 4.07177,-3.602 3.4961,-1.0298 6.9855,0.645 9.9465,2.3456 z"
         id="path188" />
      <path
         fill="#752222"
         d="m 22.11,73.8567 c 2.329,-2.3284 4.3753,-4.7888 7.5995,-5.8651 1.8734,-0.6254 3.8498,-0.6696 5.6296,0.2798 4.3462,2.3187 5.3914,8.2151 6.5827,12.5197 -0.1062,1.2638 -0.0193,2.2546 -0.7426,3.3334 -6.7249,-1.7514 -16.8765,-1.4598 -23.1027,2.0994 -2.7508,1.5726 -4.6121,7.4967 -7.2137,7.4931 C 9.73736,91.8882 8.52541,90.0338 7.81166,87.9975 6.39863,83.9662 6.13083,79.0144 8.09173,75.1131 c 0.85441,-1.6999 2.21427,-3.0548 4.07177,-3.602 3.4961,-1.0298 6.9855,0.645 9.9465,2.3456 z"
         id="path189" />
      <path
         fill="#752222"
         d="m 57.8268,95.8135 c 4.5263,-0.0681 7.5314,0.199 10.9285,3.4222 1.832,1.7383 3.2236,4.0863 3.2134,6.6673 -0.0087,2.232 -0.8194,4.176 -2.4646,5.664 -0.4152,0.372 -0.8401,0.733 -1.2742,1.083 -4.1219,-4.474 -7.4724,-11.436 -10.4031,-16.8365 z"
         id="path190" />
      <path
         fill="#313131"
         d="m 29.7856,149.114 c 1.8448,-3.984 3.7481,-8.328 8.2283,-9.869 3.63,-1.248 8.9334,-0.352 12.2888,1.387 2.978,1.543 4.9922,4.125 5.9613,7.316 1.6975,5.589 0.5115,11.656 -2.2274,16.697 -5.3032,9.759 -16.6252,18.308 -27.3465,21.439 -5.9625,1.74 -12.6229,1.4 -18.08756,-1.692 C 5.30807,182.528 2.41835,179.741 0,176.842 v -2.778 l 0.394631,-0.362 c 1.224809,-1.133 2.000059,-1.832 2.031169,-3.6 0.04092,-2.326 -2.43081951,-7.435 -0.88898,-9.034 1.43991,0.22 2.45407,0.706 3.7138,-0.105 0.24838,-1.064 0.4774,-2.132 0.68696,-3.205 3.34399,-1.106 15.02602,-2.674 18.15152,-1.065 0.2335,0.12 0.3301,0.192 0.5333,0.329 0.1134,0.696 0.2297,0.823 -0.1791,1.41 -1.9255,2.767 -7.2967,4.912 -10.3917,6.052 1.075,1.781 2.6724,3.864 2.8041,5.976 -0.3412,0.851 -0.3247,1.187 -1.2257,1.601 -1.2878,0.592 -2.2797,0.215 -3.1269,1.48 0.2808,1.297 0.8783,2.181 1.5943,3.273 6.303,2.072 12.1067,2.042 18.137,-0.994 6.1822,-3.113 13.0909,-10.186 15.1759,-16.882 0.6542,-2.1 0.7275,-4.381 -0.2917,-6.388 -1.0437,-2.054 -2.9942,-3.418 -5.1657,-4.06 -4.0307,-1.193 -8.153,-0.101 -12.1673,0.624 z"
         id="path191" />
    </g>
  </g>
</svg>
