<?xml version="1.0" encoding="UTF-8" standalone="no"?>
<svg
   width="187.00403"
   height="231.94302"
   viewBox="0 0 187.00403 231.94302"
   version="1.1"
   id="svg125"
   sodipodi:docname="bg_right_1.svg"
   inkscape:version="1.4.2 (f4327f4, 2025-05-13)"
   xmlns:inkscape="http://www.inkscape.org/namespaces/inkscape"
   xmlns:sodipodi="http://sodipodi.sourceforge.net/DTD/sodipodi-0.dtd"
   xmlns="http://www.w3.org/2000/svg"
   xmlns:svg="http://www.w3.org/2000/svg">
  <sodipodi:namedview
     id="namedview1"
     pagecolor="#ffffff"
     bordercolor="#000000"
     borderopacity="0.25"
     inkscape:showpageshadow="2"
     inkscape:pageopacity="0.0"
     inkscape:pagecheckerboard="0"
     inkscape:deskcolor="#d1d1d1"
     inkscape:zoom="1.3074332"
     inkscape:cx="68.072314"
     inkscape:cy="48.568448"
     inkscape:window-width="2560"
     inkscape:window-height="1494"
     inkscape:window-x="-11"
     inkscape:window-y="-11"
     inkscape:window-maximized="1"
     inkscape:current-layer="svg125" />
  <defs
     id="defs125" />
  <g
     id="g162"
     transform="translate(-799.99596,-84.111)">
    <path
       fill="#a17d1f"
       d="m 987,188.463 v 11.951 c -5.095,-0.021 -11.51,-0.68 -16.323,0.98 -57.99193,34.24988 -78.85075,45.64554 -104.666,61.925 0.40604,14.95259 0.30984,26.12183 0.34409,52.73502 L 853.573,316.045 c 0,0 0.13744,-29.77361 -0.653,-44.561 -16.88217,9.31751 -40.20293,25.48847 -47.485,29.119 -2.04822,-4.66536 -4.09,-7.633 -5.439,-11.94 41.58,-25.437 83.435,-50.422 125.557,-74.95 11.361,-6.618 24.061,-16.871 35.888,-21.725 8.621,-3.539 16.415,-3.594 25.559,-3.525 z"
       id="path157" />
    <g
       id="g161">
      <path
         fill="#313131"
         d="m 902.31,118.473 c 1.154,-0.033 2.439,-0.068 3.542,0.298 2.382,0.788 4.51,2.793 5.562,5.044 1.774,3.794 1.272,6.911 -0.12,10.702 -0.679,-0.033 -1.424,-0.062 -2.08,-0.258 -2.637,-0.791 -5.013,-2.763 -6.309,-5.178 -1.868,-3.48 -1.702,-6.931 -0.595,-10.608 z"
         id="path158" />
      <path
         fill="#313131"
         d="m 893.603,84.111 c 2.423,0.062 4.806,0.1115 7.098,0.9878 5.133,1.9624 7.986,5.9617 10.129,10.8394 l 0.515,0.8195 c 5.289,0.9961 9.936,0.8829 15.017,3.1146 11.996,5.2697 18.957,18.0947 32.846,19.0677 4.844,0.339 12.099,-0.51 15.849,-3.905 0.595,-0.538 0.909,-0.953 0.928,-1.786 0.056,-2.426 -0.792,-5.41 -1.158,-7.858 -0.634,-4.24 -0.72,-8.2774 -0.471,-12.548 l 6.686,1.7789 c 2.094,-2.3061 3.713,-4.8708 5.958,-7.0846 V 99.593 l -0.171,0.518 c -0.819,2.529 -0.556,4.768 -0.671,7.37 l -0.668,0.318 -2.21,-1.382 c -0.507,0.721 -0.412,1.069 -0.294,1.961 0.631,4.79 4.112,6.456 0.585,11.678 -3.065,4.536 -8.894,6.566 -14.047,7.449 -9.589,1.643 -18.251,1.02 -26.384,-4.809 -11.305,-8.102 -18.432,-19.073 -34.236,-16.5 -4.049,0.659 -7.823,2.162 -10.27,5.613 -2.896,4.085 -3.666,10.027 -2.765,14.87 2.001,10.754 32.428,37.334 41.989,43.702 7.079,4.79 14.924,8.337 23.197,10.486 2.385,0.624 15.156,1.597 16.128,2.39 -0.008,0.42 0.11,0.697 -0.206,1.004 -3.547,3.454 -12.274,4.705 -17.052,4.516 -6.861,-0.271 -13.261,-3.014 -19.18,-6.321 -1.709,-0.954 -3.567,-2.412 -5.379,-3.077 -3.157,-2.962 -6.035,-4.666 -10.064,-6.185 l 0.778,-0.351 c -0.57,-1.867 -8.013,-8.425 -9.877,-10.405 -2.013,-0.166 -4.712,-0.156 -6.517,-1.123 -2.932,-1.571 -2.112,-4.97 -3.011,-7.628 -0.465,-1.373 -1.726,-3.12 -3.115,-3.669 -1.934,-0.765 -4.588,5.286 -6.642,6.236 -2.73,-1.825 -4.062,-9.624 -5.218,-12.934 -4.821,-1.022 -9.442,-1.205 -14.347,-1.159 3.886,-2.923 7.98,-5.599 11.924,-8.451 -1.131,-3.284 -0.686,-11.709 -2.31,-13.592 -3.635,-3.291 -6.366,-7.881 -7.05,-12.784 -0.322,-2.309 0.061,-4.21 1.483,-6.087 1.498,-1.079 3.204,-1.035 4.986,-1.183 -0.169,-3.1498 -0.597,-6.6767 0.444,-9.7077 1.169,-3.4017 3.728,-4.8069 6.773,-6.2453 z"
         id="path159" />
      <path
         fill="#752222"
         d="m 893.603,84.111 c 2.423,0.062 4.806,0.1115 7.098,0.9878 5.133,1.9624 7.986,5.9617 10.129,10.8394 -1.329,1.3973 -3.512,1.7038 -5.319,2.2488 -12.571,3.79 -13.882,11.149 -18.544,21.931 -3.635,-3.291 -6.366,-7.881 -7.05,-12.784 -0.322,-2.309 0.061,-4.21 1.483,-6.087 1.498,-1.079 3.204,-1.035 4.986,-1.183 -0.169,-3.1498 -0.597,-6.6767 0.444,-9.7077 1.169,-3.4017 3.728,-4.8069 6.773,-6.2453 z"
         id="path160" />
      <path
         fill="#313131"
         d="m 987,169.686 c -3.022,2.393 -5.975,4.471 -9.704,5.605 -6.822,2.073 -15.727,1.182 -22.009,-2.189 -5.377,-2.886 -9.589,-7.881 -11.256,-13.78 -1.289,-4.559 -0.872,-9.523 1.504,-13.661 2.191,-3.818 5.243,-5.986 9.482,-7.082 4.05,-1.046 16.887,-1.554 20.636,0.693 -2.93,3.085 -18.699,2.631 -23.913,11.562 -1.115,1.911 -1.365,3.92 -0.775,6.049 1.051,3.786 4.62,6.864 7.96,8.645 4.876,2.601 11.88,4.371 17.296,2.592 4.777,-1.569 7.02,-5.627 9.188,-9.812 -5.379,1.548 -11.396,3.932 -17.035,3.424 l -0.431,-0.539 c 1.717,-3.178 5.167,-5.945 7.679,-8.596 -3.231,-1.19 -6.412,-2.386 -9.527,-3.859 5.92,-4.046 13.721,-7.902 20.453,-10.387 -0.637,2.692 -3.166,6.819 -2.535,9.443 1.294,0.18 1.903,-0.438 2.987,-1.072 z"
         id="path161" />
    </g>
  </g>
</svg>
