<?xml version="1.0" encoding="UTF-8" standalone="no"?>
<svg
   width="187.18665"
   height="252.9906"
   viewBox="0 0 187.18665 252.9906"
   version="1.1"
   id="svg125"
   sodipodi:docname="bg_right_2.svg"
   inkscape:version="1.4.2 (f4327f4, 2025-05-13)"
   xmlns:inkscape="http://www.inkscape.org/namespaces/inkscape"
   xmlns:sodipodi="http://sodipodi.sourceforge.net/DTD/sodipodi-0.dtd"
   xmlns="http://www.w3.org/2000/svg"
   xmlns:svg="http://www.w3.org/2000/svg">
  <sodipodi:namedview
     id="namedview1"
     pagecolor="#ffffff"
     bordercolor="#000000"
     borderopacity="0.25"
     inkscape:showpageshadow="2"
     inkscape:pageopacity="0.0"
     inkscape:pagecheckerboard="0"
     inkscape:deskcolor="#d1d1d1"
     inkscape:zoom="1.1986611"
     inkscape:cx="240.26807"
     inkscape:cy="63.821207"
     inkscape:window-width="2560"
     inkscape:window-height="1494"
     inkscape:window-x="-11"
     inkscape:window-y="-11"
     inkscape:window-maximized="1"
     inkscape:current-layer="svg125" />
  <defs
     id="defs125" />
  <g
     id="g176"
     transform="translate(-799.81336,-231.45534)">
    <g
       id="g163">
      <path
         fill="#0f7a0f"
         d="m 903.088,436.086 c 6.474,-0.226 10.34,2.758 14.847,6.93 1.479,-0.885 3.071,-1.804 4.688,-2.409 1.986,-0.744 4.567,-0.89 6.484,0.076 1.673,0.844 2.642,2.417 3.151,4.173 1.356,4.678 -1.213,8.95 -3.303,12.916 0.533,5.574 1.621,11.307 -1.891,16.225 -1.292,1.808 -3.185,3.176 -5.438,3.427 -4.341,0.485 -7.686,-2.503 -10.723,-5.127 -1.808,4.938 -3.324,8.542 -7.883,11.519 -1.231,0.333 -2.585,0.764 -3.869,0.59 -4.934,-0.667 -8.977,-5.646 -11.653,-9.41 -2.419,2.001 -4.62,3.728 -7.875,3.892 -1.83,0.092 -3.443,-0.611 -4.707,-1.923 -3.966,-4.115 -2.837,-11.476 -2.6,-16.642 7.72,-5.121 4.103,-7.193 7.054,-13.858 1.128,-2.547 3.307,-3.9 5.795,-4.869 3.709,-1.446 7.436,0.622 10.806,2.126 2.103,-3.343 3.393,-5.879 7.117,-7.636 z"
         id="path162" />
      <path
         fill="#0f7a0f"
         d="m 971.413,409.307 c 5.093,-5.299 8.291,-6.836 15.587,-7.191 v 71.034 c -2.844,0.698 -3.891,2.466 -5.991,4.423 -2.514,2.344 -5.458,4.544 -9.079,4.287 -5.177,-0.366 -10.146,-5.472 -13.24,-9.2 -1.792,2.417 -3.69,5.479 -6.271,7.094 -2.05,1.282 -4.468,1.477 -6.782,0.85 -8.1,-2.192 -8.032,-16.476 -7.322,-23.177 0.635,-5.997 4.555,-17.794 1.189,-23.004 -1.373,-2.125 -4.392,-2.38 -6.652,-2.85 -2.936,0.786 -5.511,2.248 -8.174,3.667 -3.596,-2.342 -6.05,-5.559 -8.609,-8.926 0.521,-1.762 1.154,-3.453 1.901,-5.131 1.962,-4.412 4.483,-8.248 9.203,-9.999 6.386,-2.368 13.937,-0.389 19.847,2.385 1.479,-2.706 3.304,-5.484 5.545,-7.621 2.203,-2.101 4.941,-3.567 8.054,-3.443 4.779,0.191 7.774,3.569 10.794,6.802 z"
         id="path163" />
    </g>
    <g
       id="g175">
      <g
         id="g168">
        <path
           fill="#313131"
           d="m 922.893,266.479 c 0.09,0.021 0.18,0.041 0.27,0.064 2.106,0.536 3.165,1.906 4.18,3.731 1.728,3.108 3.051,8.172 1.85,11.653 -0.445,1.291 -0.928,1.473 -2.07,2.031 l -0.519,-0.193 -0.536,-0.191 c -2.997,-1.083 -4.43,-2.85 -5.736,-5.674 -1.306,-2.825 -1.961,-6.004 -0.733,-8.988 0.692,-1.684 1.711,-1.852 3.294,-2.433 z"
           id="path164" />
        <path
           fill="#313131"
           d="m 913.58,244.324 c 0.412,-2.173 0.745,-4.527 1.69,-6.547 1.212,-2.594 3.296,-4.947 6.07,-5.867 2.635,-0.874 5.539,-0.432 7.965,0.848 5.526,2.917 7.591,8.839 9.38,14.397 0.623,1.934 9.531,7.588 11.845,9.774 4.952,4.679 13.914,17.29 18.23,19.45 2.545,1.274 6.437,0.435 9.01,-0.523 1.57,-0.585 3.136,-1.494 3.824,-3.101 0.783,-1.826 0.286,-3.879 -0.499,-5.614 -0.745,-1.646 -7.117,-8.977 -7.128,-9.096 -0.038,-0.405 0.269,-0.768 0.403,-1.152 5.165,-2.276 6.463,5.11 9.708,-3.291 0.881,-2.283 1.516,-4.879 2.922,-6.894 v 26.894 c -1.109,4.115 -2.769,6.825 -6.519,9.024 -3.394,1.991 -8.189,3.871 -12.157,2.668 -4.444,-1.347 -8.065,-7.577 -11.079,-11.032 -8.075,-9.26 -23.041,-25.137 -36.62,-18.373 -3.17,1.579 -5.535,4.049 -6.621,7.45 -3.358,10.516 3.893,22.651 8.72,31.705 6.154,11.541 21.917,35.147 34.429,38.94 7.379,2.236 19.855,1.861 27.497,0.747 -2.448,2.839 -4.418,4.657 -7.792,6.293 -0.972,0.432 -2.032,0.818 -2.935,1.379 -3.513,-0.881 -10.696,0.598 -14.793,0.686 -2.53,-0.278 -5.056,-0.546 -7.474,-1.377 -11.165,-3.838 -19.328,-14.847 -24.693,-24.958 -0.909,-1.713 -1.451,-3.607 -2.312,-5.362 -2.5,-0.418 -4.788,-0.641 -6.725,-2.49 -3.001,-2.863 -2.426,-7.956 -2.427,-11.747 -0.095,-0.876 -0.377,-1.675 -0.646,-2.509 -0.576,-0.458 -0.862,-0.889 -1.637,-0.878 -2.46,0.036 -6.131,4.534 -7.83,6.23 1.219,-5.293 2.952,-10.355 3.885,-15.734 -3.437,-2.987 -7.566,-5.17 -11.223,-7.902 3.205,-0.846 6.354,-1.827 9.512,-2.831 -0.211,-3.412 0.687,-7.064 0.274,-10.342 -1.116,-1.065 -2.461,-2.427 -3.176,-3.8 -0.98,-1.883 -1.355,-4.213 -0.721,-6.264 1.421,-4.602 5.659,-6.781 9.643,-8.801 z"
           id="path165" />
        <path
           fill="#752222"
           d="m 913.58,244.324 c 0.412,-2.173 0.745,-4.527 1.69,-6.547 1.212,-2.594 3.296,-4.947 6.07,-5.867 2.635,-0.874 5.539,-0.432 7.965,0.848 5.526,2.917 7.591,8.839 9.38,14.397 -4.772,1.255 -9.683,-0.882 -14.54,-0.892 -5.698,2.845 -9.591,6.296 -12.915,11.724 -1.085,1.772 -1.973,3.669 -3.396,5.202 -1.116,-1.065 -2.461,-2.427 -3.176,-3.8 -0.98,-1.883 -1.355,-4.213 -0.721,-6.264 1.421,-4.602 5.659,-6.781 9.643,-8.801 z"
           id="path166" />
        <path
           fill="#752222"
           d="m 915.499,297.155 c 3.065,1.03 4.734,2.924 6.158,5.787 1.333,2.679 2.158,5.587 2.994,8.45 -2.5,-0.418 -4.788,-0.641 -6.725,-2.49 -3.001,-2.863 -2.426,-7.956 -2.427,-11.747 z"
           id="path167" />
        <path
           fill="#313131"
           d="m 987,285.222 v 37.841 c -6.928,4.272 -14.253,7.945 -22.643,7.582 -5.264,-0.227 -10.035,-2.586 -13.53,-6.519 -3,-3.375 -4.692,-7.61 -4.409,-12.156 0.264,-4.251 2.174,-8.03 5.373,-10.83 5.652,-4.948 11.963,-5.033 19.016,-4.523 -3.608,1.591 -7.18,3.086 -10.289,5.571 -2.654,2.122 -4.991,4.951 -5.287,8.464 -0.211,2.382 0.585,4.745 2.195,6.514 2.443,2.733 6.233,3.989 9.81,4.172 5.551,0.283 11.482,-2.16 15.508,-5.948 1.294,-1.217 2.668,-3.097 2.733,-4.917 -2.242,-1.777 -7.028,4.512 -10.049,4.18 -0.752,-2.303 1.672,-9.278 2.265,-11.956 -2.159,2.725 -6.41,9.291 -9.802,10.04 l -0.519,-0.694 c 0.033,-0.832 0.132,-1.646 0.361,-2.448 2.797,-9.78 10.566,-19.418 19.267,-24.373 z"
           id="path168" />
      </g>
      <g
         id="g174">
        <path
           fill="#a17d1f"
           d="m 921.581,383.927 c 0,0 0.26068,15.31515 0.56659,23.17873 -1.883,1.251 -4.13959,2.80327 -6.04459,4.02127 -1.745,3.723 -2.497,7.786 -3.289,11.79 -4.151,2.569 -9.544,4.272 -14.319,5.171 -0.665,-0.754 -1.201,-1.491 -1.411,-2.495 -1.35,-6.475 -0.322,-21.16 -0.258,-28.457 7.935,-4.835 16.297,-9.387 24.755,-13.209 z"
           id="path169" />
        <path
           fill="#a17d1f"
           d="m 967.146,361.498 c 2.947,-0.182 5.754,-0.089 8.689,0.128 0.433,5.695 -0.008,28.15741 0.0255,33.04529 0.008,1.15519 -2.4655,1.63371 -3.5075,2.00471 -2.957,1.05 -5.759,-0.198 -8.432,-1.377 -3.21,-0.961 -6.215,-1.268 -9.561,-1.219 -0.537,-8.569 -1.431,-17.403 -1.02,-25.979 4.5,-3.592 8.105,-5.595 13.806,-6.603 z"
           id="path170" />
        <path
           fill="#a17d1f"
           d="m 948.16427,369.87503 c 0.25661,12.2814 0.34473,22.74097 0.32273,26.34797 -7.024,5.217 -13.055,6.92162 -21.618,7.66062 -0.43056,-9.82468 -0.68,-15.30562 -0.581,-22.23462 7.049,-4.394 14.33527,-8.31597 21.87627,-11.77397 z"
           id="path171" />
        <path
           fill="#a17d1f"
           d="m 892.28253,399.87056 c -0.0811,11.23112 0.34314,20.33162 0.16947,30.10844 -10.1524,4.04626 -12.74946,4.26914 -18.91427,6.63429 -0.76794,-14.67058 -0.61116,-16.78293 -0.83356,-26.51826 6.34519,-3.292 10.47923,-5.8175 19.57836,-10.22447 z"
           id="path172" />
        <path
           fill="#a17d1f"
           d="m 959.13,343.089 c 4.097,-0.088 11.28,-1.567 14.793,-0.686 l 3.307,0.398 c 3.279,0.292 6.487,0.185 9.77,0.066 v 11.936 c -7.132,1.215 -18.919,0.282 -24.32,1.927 -11.399,3.472 -27.828,15.039 -38.882,21.106 -19.29,10.589 -39.461,20.136 -58.242,31.591 0.613,20.901 0.589,41.817 -0.071,62.717 -3.996,0.339 -7.893,0.298 -11.887,0.011 l -0.332,-29.608 c -0.133,-8.845 1.23472,-18.61468 0.662,-26.93 -16.39453,8.95397 -32.97811,17.49687 -49.559,26.087 -1.775,-2.794 -4.55558,-10.48456 -4.55558,-10.48456 C 853.66048,401.37495 913.74191,369.62863 959.13,343.089 Z"
           id="path173" />
        <path
           fill="#a17d1f"
           d="M 980.24547,361.87094 C 983.16006,361.58644 984.257,361.513 987,361.204 v 33.809 c -1.561,-0.575 -4.66747,-0.33188 -7.01256,-0.36679 0.10636,-12.70387 0.16944,-18.31693 0.25803,-32.77527 z"
           id="path174" />
      </g>
    </g>
  </g>
</svg>
