<?xml version="1.0" encoding="UTF-8" standalone="no"?>
<svg
   width="112.06396"
   height="53.612198"
   viewBox="0 0 112.06396 53.612198"
   version="1.1"
   id="svg125"
   xmlns="http://www.w3.org/2000/svg"
   xmlns:svg="http://www.w3.org/2000/svg">
  <defs
     id="defs125" />
  <g
     id="g140"
     transform="translate(-874.93586)">
    <path
       fill="#0f7a0f"
       d="m 874.936,0 h 110.873 c -1.048,1.06639 -2.144,2.14659 -3.32,3.07022 -5.227,4.10514 -11.309,5.90876 -17.872,5.20851 -1.777,3.42057 -3.491,7.14747 -5.986,10.09817 -2.077,2.4569 -4.83,4.408 -8.14,4.5756 -4.357,0.2205 -7.391,-2.1435 -10.42,-4.9443 -1.936,4.636 -4.44,9.38 -9.107,11.7802 -2.15,1.1057 -4.679,1.4835 -6.985,0.6283 -3.711,-1.3755 -5.539,-5.0123 -7.108,-8.3798 -2.546,3.6602 -5.505,7.5476 -9.627,9.5007 -2.514,1.1908 -5.36,1.4875 -7.971,0.4176 -5.634,-2.3093 -8.401,-9.7049 -10.515,-14.9331 C 880.271,11.1585 877.862,10.1258 874.936,0 Z"
       id="path139" />
    <path
       fill="#0f7a0f"
       d="M 987,5.17483 V 26.3164 c -0.803,0.4867 -1.689,0.8558 -2.555,1.215 -4.759,1.9742 -9.373,1.4094 -14.028,-0.5434 -0.738,1.6564 -1.569,3.2696 -2.49,4.8319 -2.749,4.5624 -6.708,10.0372 -12.238,11.2845 -4.691,1.0581 -8.95,-0.883 -12.798,-3.3754 -2.67,3.0002 -5.521,6.009 -8.585,8.6118 -3.402,2.89 -7.581,5.6751 -12.262,5.2229 -4.882,-0.4716 -8.796,-4.1969 -11.815,-7.7576 -4.134,3.0089 -8.213,6.0911 -13.497,6.5833 -4.37,0.407 -8.447,-1.145 -11.735,-3.9855 -4.327,-3.7373 -9.393,-10.6626 -9.755,-16.5504 -0.267,-4.3545 0.785,-10.723 3.786,-14.0619 l 0.798,0.0295 c 2.194,2.3882 3.24,6.1009 4.899,8.9179 2.699,4.5844 7.294,10.8943 12.856,12.0947 5.324,1.149 10.724,-3.6106 14.994,-6.1955 3.425,1.9208 6.87,4.2652 10.857,4.7448 7.105,0.8547 11.768,-7.5717 16.692,-11.4114 l 0.371,-0.2854 c 4.514,2.0958 9.136,4.2147 14.202,2.7482 6.802,-1.9693 10.179,-9.7017 13.313,-15.418 0.783,0.0988 1.56,0.2248 2.342,0.3285 7.225,0.9582 11.389,-4.15528 16.648,-8.17007 z"
       id="path140" />
  </g>
</svg>
