<?xml version="1.0" encoding="UTF-8" standalone="no"?>
<svg
   width="44.824219"
   height="64.261047"
   viewBox="0 0 44.824219 64.261047"
   version="1.1"
   id="svg125"
   xmlns="http://www.w3.org/2000/svg"
   xmlns:svg="http://www.w3.org/2000/svg">
  <defs
     id="defs125" />
  <path
     fill="#030303"
     d="m 22.57295,7.4130199 c -0.11,-1.353 -0.704,-4.503 -0.048,-5.634 2.211,0.724 2.824,1.602 5.129,0.403 3.417,-1.77799995 5.437,-2.88699995 9.316,-1.66899995 2.901,0.90999995 5.197,2.96899995 6.546,5.67699995 1.591,3.194 1.686,6.9640001 0.529,10.3150001 -1.642,4.758 -6.167,8.203 -9.429,11.896 2.707,4.953 5.873,10.415 4.123,16.263 -1.688,5.637 -8.866,6.482 -9.622,11.961 1.695,2.235 5.411,2.815 6.904,5.273 -0.605,0.581 -0.571,0.599 -1.42,0.581 -1.235,-0.026 -2.193,-0.407 -3.327,-0.85 -0.703,-0.829 -1.201,-1.074 -2.317,-1.206 -2.908,-0.344 -6.021,2.601 -8.431,3.838 0.827,-3.637 5.63,-5.476 6.191,-7.731 -3.113,-3.359 -9.187,-5.499 -13.19,-8.038 l -6.6579995,2.789 c -0.039,0.08 -0.082,0.158 -0.119,0.238 -1.256,2.74 0.382,5.59 -2.687,7.441 l -1.011,-0.174 c -0.565,-0.952 -0.448,-1.264 -0.392,-2.343 0.376,-0.935 1.126,-2.441 0.759,-3.442 -0.774,-2.113 -2.70700001,-3.685 -3.419000006538,-5.894 C 1.8019505,46.84102 3.7169505,48.47002 5.1339505,49.47602 c 2.49,-1.339 5.4889995,-2.61 6.2549995,-5.624 0.476,-1.877 -0.191,-3.595 -1.221,-5.141 -1.7919995,-2.69 -4.8189995,-4.616 -4.4539995,-8.088 1.383,-1.945 3.793,-2.021 5.9829995,-2.394 0,-2.195 0.293,-4.055 1.633,-5.878 l 1.363,-0.294 c 3.998,2.861 3.398,12.445 8.845,12.908 2.077,-1.106 3.535,-4.302 4.091,-6.515 0.31,-1.231 0.107,-2.489 -0.606,-3.551 -1.42,-2.118 -3.96,-3.372 -5.589,-5.398 -0.421,-2.263 -0.889,-4.529 -1.165,-6.815 l -3.607,-3.8930001 z"
     id="path137" />
</svg>
