<?xml version="1.0" encoding="UTF-8" standalone="no"?>
<svg
   width="43.25415"
   height="64.661957"
   viewBox="0 0 43.25415 64.661957"
   version="1.1"
   id="svg125"
   xmlns="http://www.w3.org/2000/svg"
   xmlns:svg="http://www.w3.org/2000/svg">
  <defs
     id="defs125" />
  <path
     fill="#030303"
     d="m 21.649146,0.23697929 c 2.496,-0.204 5.231,-0.351 7.726,-0.118 7.558,0.707 6.938,7.66199991 10.862,10.31200071 1.028,0.694 2.126,0.634 3.017,1.696 -0.633,1.723 -2.394,3.138 -3.682,4.435 0.888,1.437 2.253,3.304 2.149,5.009 -0.748,0.09 -1.951,0.083 -2.639,0.318 -0.667,0.227 -5.545,5.842 -8.107,7.355 0.877,1.568 1.871,3.236 2.314,4.989 0.892,3.532 -0.303,9.276 1.889,12.181 1.893,-0.016 5.576,-3.168 7.546,-4.038 l 0.451,0.359 c -0.323,1.684 -1.555,2.914 -2.62,4.191 0.264,1.997 1.297,5.984 0.333,7.637 -3.288,-0.269 -1.987,-4.495 -4.464,-5.872 -2.289,-1.272 -6.248,-0.281 -8.559,0.524 -2.202,0.767 -5.805,2.513 -6.667,4.843 -1.114,3.012 2.776,4.812 3.894,7.145 0.481,1.002 0.189,1.497 -0.095,2.507 -1.442,0.033 -2.201,0.039 -3.352,0.952 -1.88,-1.571 -3.531,-3.8 -5.26,-5.577 -1.56,0.738 -2.93,1.365 -4.647,1.655 -1.224,-0.341 -1.29,-0.428 -2.0680001,-1.441 1.0050001,-1.846 3.8400001,-1.951 5.3740001,-3.639 0.986,-4.625 -5.6700001,-9.337 -8.0650001,-12.878 -0.839,-1.241 -1.361,-2.765 -1.884,-4.162 -1.876,-0.619 -3.779,-1.005 -4.93800001,-2.708 -0.123,-0.797 -0.308,-1.219 0.059,-1.968 1.07000001,-2.18 3.53500001,-2.737 5.65600001,-3.463 0.669,-1.983 1.15,-4.134 2.762,-5.571 3.0990001,-0.7 3.8810001,6.902 7.0750001,8.202 1.177,0.479 2.378,0.181 3.462,-0.385 1.899,-0.991 3.214,-2.52 3.9,-4.543 -0.722,-3 -4.847,-5.675 -6.574,-8.307 -2.024,-3.085 -2.723,-7.223 -1.886,-10.8130008 0.919,-3.947 3.754,-6.721 7.038,-8.82699991 z"
     id="path136" />
</svg>
