<?xml version="1.0" encoding="UTF-8" standalone="no"?>
<svg
   width="82.53418"
   height="67.589142"
   viewBox="0 0 82.53418 67.589142"
   version="1.1"
   id="svg125"
   xmlns="http://www.w3.org/2000/svg"
   xmlns:svg="http://www.w3.org/2000/svg">
  <defs
     id="defs125" />
  <g
     id="g212"
     transform="translate(-1514.1357,-437.69473)">
    <path
       fill="#030303"
       d="m 1587.2849,437.69473 c 0.488,0.174 0.884,0.503 1.309,0.795 0.587,1.761 -0.461,2.777 -0.699,4.447 -0.157,1.099 0.097,1.753 0.831,2.544 1.68,1.811 5.665,1.392 7.944,1.387 -1.562,1.542 -3.337,2.867 -5.057,4.227 -3.443,19.415 -13.372,11.977 -18.611,16.74 -0.515,1.042 -0.749,1.599 -0.606,2.766 3.766,4.047 11.649,-0.597 16.396,3.464 1.39,1.189 1.935,2.845 1.987,4.629 0.072,2.45 -0.86,5.896 -2.595,7.66 -0.437,0.122 -0.955,0.387 -1.399,0.262 -2.306,-0.649 -3.887,-3.051 -6.065,-4.138 -1.534,-0.766 -4.003,-0.738 -5.267,-1.843 -1.042,-0.911 -1.907,-2.697 -2.627,-3.89 -1.836,2.691 -4.082,5.585 -4.402,8.922 1.07,3.37 3.575,1.738 6.094,3.115 l 0.255,1.238 c -1.056,1.224 -2.703,0.995 -4.054,1.908 0.79,1.369 2.396,1.748 2.625,3.352 l -1.02,0.72 c -1.77,0.104 -3.338,-1.128 -4.822,-1.992 -2,0.113 -2.604,1.172 -4.33,2.018 -1.071,0.526 -1.825,0.383 -2.898,-0.02 l -0.046,-1.115 c 0.82,-1.617 2.095,-1.588 3.499,-2.442 0.805,-0.49 1.207,-0.905 1.383,-1.857 0.323,-1.752 -1.173,-3.497 -2.103,-4.864 -2.443,0.54 -4.956,1.3 -7.474,1.153 -1.563,-0.091 -3.319,-0.133 -4.808,-0.63 -2.674,-0.894 -5.743,-3.763 -8.497,-3.699 -1.704,1.284 -1.922,2.909 -2.512,4.894 -1.049,0.737 -1.093,0.597 -2.3,0.413 -1.006,-1.296 -0.913,-3.311 -1.064,-4.902 -1.635,-1.048 -3.814,-1.99 -4.756,-3.672 0.569,-1.401 4.089,-3.296 5.412,-4.366 0.45,0.849 0.901,1.865 1.487,2.624 0.747,0.967 1.169,1.072 2.348,1.182 0.716,-0.836 0.727,-1.043 0.721,-2.155 -0.01,-2.231 -1.979,-3.62 -3.47,-5.056 1.331,-2.92 3.375,-7.332 6.024,-9.249 3.741,0.018 4.951,5.318 8.07,6.813 0.954,-0.484 1.57,-0.924 1.979,-1.978 0.494,-1.274 -3.19,-6.863 -3.864,-8.694 -1.06,-0.618 -2.436,-1.259 -3.335,-2.084 -0.748,-0.687 -1.043,-1.415 -1.111,-2.416 -0.062,-0.914 0.237,-1.805 0.894,-2.471 1.395,-1.417 3.594,-1.792 5.508,-1.67 7.05,0.45 5.896,7.258 9.594,11.441 1.283,0.594 1.326,0.584 2.691,0.206 2.726,-2.489 0.692,-11.277 2.011,-15.287 0.77,-2.343 2.123,-4.365 4.414,-5.459 3.609,-1.725 8.458,-0.831 12.027,0.456 z"
       id="path135" />
    <g
       id="g211"
       transform="translate(745.06678,-20.51113)">
      <path
         fill="#030303"
         d="m 784.693,513.179 c 1.146,-0.026 1.777,0.036 2.8,0.568 l 0.063,0.898 c -3.522,2.689 -11.285,3.544 -15.727,4.543 -1.388,0.06 -1.611,0.127 -2.76,-0.616 l 0.078,-0.802 c 3.061,-2.642 11.416,-3.632 15.546,-4.591 z"
         id="path210" />
      <path
         fill="#030303"
         d="m 794.014,515.394 c 0.436,0.312 0.689,0.684 1.018,1.103 -0.066,0.143 -0.126,0.288 -0.197,0.428 -1.556,3.077 -12.008,7.812 -15.389,8.87 l -0.756,-0.901 c 1.447,-2.851 12.243,-7.779 15.324,-9.5 z"
         id="path211" />
    </g>
  </g>
</svg>
