<?xml version="1.0" encoding="UTF-8" standalone="no"?>
<svg
   width="39.734009"
   height="64.183044"
   viewBox="0 0 39.734009 64.183044"
   version="1.1"
   id="svg125"
   xmlns="http://www.w3.org/2000/svg"
   xmlns:svg="http://www.w3.org/2000/svg">
  <defs
     id="defs125" />
  <path
     fill="#030303"
     d="m 17.743045,34.082206 c 1.166,-1.107 2.471,-2.12 2.836,-3.757 -0.055,-3.429 -3.918,-6.373 -5.859,-9.001 -2.07,-2.8 -3.297,-6.105 -2.749,-9.616 0.483,-3.0859998 2.21,-6.7169998 4.868,-8.4859998 3.439,-2.28699998 7.432,-1.138 11.244,-1.793 1.649,-0.284 3.14,-1.72399998 4.752,-1.37499998 0.222,2.19699998 0.31,4.40399998 0.421,6.60899998 1.613,-0.151 3.222,-0.337 4.827,-0.558 0.312,3.03 0.865,5.8459998 1.651,8.7859998 v 2.91 c -0.655,1.447 -1.326,3.031 -2.401,4.221 -2.868,3.173 -8.755,4.875 -6.849,10.261 0.778,2.2 3.87,6.599 6.135,7.378 0.925,0.319 2.144,0.246 3.115,0.243 v 2.13 c -2.246,0.312 -3.813,0.431 -5.304,2.339 -2.462,3.15 -3.021,6.203 -7.585,6.886 -3.624,0.541 -10.031,0.339 -12.642,2.952 -0.256,1.094 -0.353,1.291 0.205,2.267 0.402,0.705 1.046,1.056 1.694,1.51 1.755,1.231 4.926,3.099 5.344,5.361 -0.403,0.463 -0.452,0.746 -1.099,0.821 -2.57,0.298 -5.725,-4.701 -12.449,-4.506 l -3.556,-0.298 c 1.641,-2.279 4.594,-3.51 6.979,-4.9 -0.2,-2.012 -0.485,-3.95 -0.899,-5.929 -2.966,-3.458 -9.158,-6.619 -10.421999929845,-10.901 0.121999999845,-0.938 0.06599999985,-1.388 0.667999999845,-2.128 0.203,-0.248 0.39299993,-0.506 0.60899993,-0.743 1.692,-1.853 1.331,-3.368 2.158,-5.549 0.599,-1.579 1.941,-3.24 3.483,-3.927 2.28,0.436 4.98,4.887 6.95,6.532 1.105,0.922 2.598,1.6 3.875,2.261 z"
     id="path138" />
</svg>
