<?xml version="1.0" encoding="UTF-8" standalone="no"?>
<svg
   width="29.664795"
   height="38.955444"
   viewBox="0 0 29.664795 38.955444"
   version="1.1"
   id="svg125"
   xmlns="http://www.w3.org/2000/svg"
   xmlns:svg="http://www.w3.org/2000/svg">
  <defs
     id="defs125" />
  <path
     fill="#030303"
     d="m 22.691636,3.3842901 c 3.7845,3.51872 6.6446,10.7833709 6.9311,16.9202909 0.2865,6.13692 -0.8584,10.9054 -4.4758,14.70781 -4.2519,3.1554 -8.3025,4.22536 -13.2079,3.88148 -4.9052997,-0.34388 -7.6301997,-3.39368 -9.6855997,-6.65881 -2.76639998,-4.39282 -2.61649998,-9.61591 -1.50969998,-14.51323 C 2.0325363,12.020001 5.9115363,4.1062601 10.097536,1.4801201 c 4.186,-2.62613 8.8096,-1.61454995 12.5941,1.90417 z m -9.0255,27.9762309 c 3.3944,0.61518 8.5732,-2.46294 8.379,-10.21115 -0.088,-3.53816 -1.5348,-8.79763 -4.1972,-11.2969209 -3.7332,-3.50258 -5.6644,-1.12034 -6.7789,0.3067009 -2.9131997,3.72977 -5.0003997,8.40777 -4.3055997,13.24822 0.4339,4.26899 3.5082997,7.33797 6.9026997,7.95315 z"
     id="path195" />
</svg>
