<?xml version="1.0" encoding="UTF-8" standalone="no"?>
<svg
   width="159.8678"
   height="66.893005"
   viewBox="0 0 159.8678 66.893005"
   version="1.1"
   id="svg125"
   xmlns="http://www.w3.org/2000/svg"
   xmlns:svg="http://www.w3.org/2000/svg">
  <defs
     id="defs125" />
  <g
     id="g194"
     transform="translate(-650.51245,-534.72897)">
    <path
       fill="#030303"
       d="m 757.442,534.729 0.439,0.743 c -2.849,8.863 -6.412,17.954 -10.427,26.354 5.83,6.452 14.809,18.424 19.499,25.859 -6.679,-1.42 -13.101,-3.459 -19.51,-5.797 0.02,5.431 0.457,10.876 0.541,16.315 -5.432,-4.762 -11.188,-9.331 -16.95,-13.685 -5.425,5.427 -10.197,11.498 -15.443,17.104 0.08,-4.927 1.148,-14.539 -0.479,-18.902 -1.172,-0.172 -1.937,0.28 -3.018,0.69 -6.451,3.215 -13.303,5.888 -19.923,8.755 4.626,-9.692 12.751,-19.923 18.536,-29.203 -3.508,-6.813 -5.826,-14.445 -8.442,-21.636 6.564,2.349 13.155,6.555 19.411,9.773 2.967,-4.659 5.359,-9.709 8.043,-14.539 2.657,3.942 4.755,8.477 7.01,12.671 6.154,-5.48 13.853,-9.935 20.713,-14.502 z m -40.35,32.434 c -2.402,3.524 -5.31,6.535 -8.008,9.816 4.073,-1.511 8.069,-2.871 12.408,-3.414 0.217,3.992 0.372,7.986 0.465,11.982 2.013,-2.942 4.258,-5.647 6.392,-8.492 0.655,-0.449 1.055,-0.969 1.878,-0.841 3.193,0.494 7.444,4.955 10.088,6.864 -0.233,-2.401 -0.879,-5.385 -0.037,-7.683 0.65,-0.682 0.85,-1.094 1.884,-1.15 2.568,-0.142 6.708,1.885 9.193,2.748 -3.279,-3.751 -10.007,-8.943 -9.574,-14.211 0.249,-3.024 1.894,-6.321 2.969,-9.158 -3.727,2.346 -7.166,5.232 -10.956,7.429 -1.27,-2.808 -2.526,-7.699 -4.329,-9.962 -1.253,3.092 -2.418,6.264 -3.858,9.274 -4.952,-1.821 -9.673,-4.886 -14.117,-7.709 2.186,4.723 3.452,9.777 5.602,14.507 z"
       id="path192" />
    <path
       fill="#030303"
       d="m 672.826,554.202 c 0.904,1.334 0.115,5.896 -0.008,7.706 2.667,1.595 5.672,2.217 8.255,3.677 1.258,0.711 1.421,1.119 1.759,2.417 -0.436,1.916 -2.582,3.613 -3.952,4.976 0.751,3.142 2.021,5.876 3.391,8.781 -5.98,2.394 -11.011,3.26 -17.406,3.12 -3.647,-0.425 -7.461,-0.752 -10.581,-2.874 -1.916,-1.304 -3.231,-3.165 -3.626,-5.473 -0.664,-3.873 1.035,-8.058 3.268,-11.15 4.152,-5.75 11.988,-10.027 18.9,-11.18 z m -4.99,25.95 c 2.037,-0.472 4.214,-0.781 5.954,-2.004 0.288,-1.73 -1.255,-2.547 -1.525,-4.071 -0.206,-1.16 0.182,-3.285 0.263,-4.491 -2.342,-2.189 -5.717,-1.99 -7.823,-4.755 -3.314,1.567 -6.271,3.225 -7.592,6.87 -0.585,1.614 -0.59,3.471 0.254,4.993 0.948,1.711 2.899,3.028 4.785,3.465 1.707,0.395 3.925,0.061 5.684,-0.007 z"
       id="path193" />
    <path
       fill="#030303"
       d="m 787.308,545.295 c 4.552,-0.274 9.107,0.788 13.212,2.747 3.931,1.877 7.893,5.086 9.348,9.339 0.777,2.269 0.695,4.519 -0.417,6.674 -3.065,5.94 -9.712,7.309 -15.497,9.26 l -7.815,2.059 c -2.945,-1.995 -5.714,-4.636 -8.144,-7.219 1.895,-2.443 4.26,-4.626 6.413,-6.847 -1.43,-2.137 -4.834,-5.754 -4.554,-8.406 0.271,-2.575 5.455,-5.863 7.454,-7.607 z m 11.348,21.552 c 2.577,-1.786 5.348,-3.493 5.838,-6.89 0.226,-1.563 -0.292,-3.01 -1.243,-4.24 -2.607,-3.373 -7.668,-4.797 -11.724,-5.13 -1.988,-0.163 -4.046,0.017 -6.027,0.226 l -1.528,1.19 c 0.615,3.66 5.315,5.004 6.7,8.092 1.265,2.822 -0.861,6.394 0.452,8.825 1.723,0.655 2.937,0.063 4.554,-0.661 1.002,-0.448 2.01,-0.895 2.978,-1.412 z"
       id="path194" />
  </g>
</svg>
