<?xml version="1.0" encoding="UTF-8" standalone="no"?>
<svg
   width="157.18268"
   height="21.383118"
   viewBox="0 0 157.18268 21.383118"
   version="1.1"
   id="svg125"
   xmlns="http://www.w3.org/2000/svg"
   xmlns:svg="http://www.w3.org/2000/svg">
  <defs
     id="defs125" />
  <path
     fill="#0f7a0f"
     d="m 93.408937,3.3997335 c 2.4854,-0.191 4.0751,-3.32 6.1731,-3.39899999545 C 100.27104,-0.0242665 100.64704,0.6197335 101.11804,1.0827335 c 0.25,2.781 1.346,5.082 2.624,7.531 2.38,-1.847 5.003,-5.017 7.755,-6.074 l 0.866,0.325 c 0.752,1.844 0.283,4.117 0.17,6.074 1,0.407 1.794,0.413 2.857,0.073 1.103,-0.353 2.131,-1.524 2.908,-2.337 2.31,0.177 3.624,2.139 5.113,3.7570005 2.535,-2.5700005 5.387,-6.3140005 9.089,-7.0240005 1.278,0.466 1.396,0.755 2.014,1.966 0.695,1.359 0.79,2.449 2.199,3.335 1.41,0.152 1.614,0.16 2.866,-0.487 1.209,-1.624 2.001,-5.681 4.029,-6.057 1.417,-0.263 2.979,0.686 4.03,1.544 1.46,1.193 2.801,2.617 4.135,3.95 1.04,-1.272 1.847,-2.138 3.347,-2.909 l 1.152,-0.027 c 0.887,1.011 0.975,1.822 0.881,3.159 -0.28,3.9810005 -1.926,7.8700005 -3.676,11.4070005 -5.529,0.659 -11.103,0.623 -16.66,0.871 -13.912,0.62 -27.654,0.78 -41.586103,0.797 -10.5441,0.013 -21.1667,0.667 -31.6933,0.33 -6.2921,-0.202 -12.5264,-1.145 -18.8233,-1.281 -9.9316,-0.215 -35.6004998,0.124 -43.82603982,-2.024 -0.9271,-1.148 -0.79044,-1.87 -0.888280001438,-3.272 C 0.48169718,13.378734 1.2250872,12.757734 2.4842472,12.153734 c 1.68692,-0.809 3.44938,-1.089 4.60469,-2.5900005 -0.3089,-1.315 -1.18052,-2.56 -2.33586,-3.352 -0.0789,-0.054 -0.16578,-0.095 -0.24868,-0.143 -0.0551,-1.03 0.17848,-1.908 0.79086,-2.762 0.71405,-0.996 1.92638,-1.959 3.19118,-2.058 1.4078,-0.111 2.1089998,0.677 3.1588998,1.462 0.1365,1.302 0.0399,1.459 1.0686,2.331 2.1571,1.83 5.9041,4.001 8.6139,4.777 1.2517,-0.379 1.527,-0.527 2.1131,-1.732 0.7334,-1.508 0.6201,-3.021 2.1538,-4.009 1.2818,-0.134 1.6587,-0.114 2.7499,0.72 0.8373,0.64 1.9708,2.452 3.0417,2.307 1.9734,-0.268 2.8827,-2.377 5.124,-0.714 0.7879,0.584 1.3055,1.735 1.7757,2.581 3.7526,-2.784 8.7969,-7.534 13.3623,-8.46 l 1.1777,0.315 c 0.9753,2.022 0.9221,4.688 1.1045,6.911 0.8319,-1.542 1.4731,-3.235 3.0935,-4.062 2.5773,-0.116 6.2753,2.895 8.9298,3.835 1.7058,-1.997 3.9493,-4.615 6.5262,-5.406 1.1347,0.254 1.5788,0.33 2.216,1.422 0.8305,1.423 1.1474,3.399 2.3964,4.51 l 1.5912,-1.133 c 0.8627,0.23 2.9184,2.644 3.0914,2.514 1.85,-1.398 0.718,-3.605 3.9953,-3.451 1.6032,1.003 2.7848,2.396 4.0502,3.779 1.2412,-2.047 2.691,-4.13 3.5884,-6.346 z"
     id="path134" />
</svg>
