<?xml version="1.0" encoding="UTF-8" standalone="no"?>
<svg
   width="101.18744"
   height="26.169312"
   viewBox="0 0 101.18744 26.169312"
   version="1.1"
   id="svg125"
   xmlns="http://www.w3.org/2000/svg"
   xmlns:svg="http://www.w3.org/2000/svg">
  <defs
     id="defs125" />
  <path
     fill="#0f7a0f"
     d="m 92.059847,5.1660004 c -0.106,1.043 -0.304,1.877 0.295,2.81 1.337,-0.708 2.518,-4.421 3.218,-5.872 0.573,-1.19000001 1.101,-1.67600001 2.333,-2.10400000609561 C 101.37885,2.0810004 98.195847,9.3670004 99.306847,12.327001 c 0.334,0.89 1.257003,1.853 1.854003,2.585 0.039,1.161 0.137,1.763 -0.62,2.747 -1.674003,2.179 -4.380003,3.154 -7.001003,3.56 -4.05,0.626 -8.024,-1.199 -12.058,-0.88 -4.672,0.37 -9.295,1.241 -13.975,1.565 -4.578,0.316 -9.55,0.035 -14.049,0.818 -3.944,0.686 -7.682,2.834 -11.643,3.344 -3.794,0.488 -5.988,-0.789 -8.88,-3.062 -7.434,1.97 -14.097,1.203 -21.565,-0.073 -3.0110001,-0.515 -9.4570001,-1.431 -11.13100007,-4.2 -0.406,-0.672 -0.208,-0.77 -0.036,-1.479 2.06299997,-2.147 4.85499997,-2.409 7.64699997,-2.928 -0.928,-3.124 -1.415,-6.3930006 -2.462,-9.4710006 0.926,-0.858 1.112,-0.894 2.368,-1.101 2.5950001,0.779 3.9910001,3.785 6.5500001,4.164 1.219,-0.805 1.151,-1.278 1.579,-2.637 3.152,1.046 13.796,1.568 15.602,3.983 2.297,1.4840006 4.112,1.8750006 6.816,2.1290006 l 2.361,-1.6480006 -0.096,-0.75 c 1.562,-0.987 2.988,-2.169 4.437,-3.312 2.529,0.225 5.062,0.816 7.602,0.689 4.001,0.067 7.652,-0.034 11.525,-1.145 1.755,-0.89 3.107,-1.008 4.992,-0.428 l 0.868,4.272 c 0.054,0.838 0.743,1.5420006 1.222,2.2000006 1.076,0.408 1.504,0.55 2.607,0.118 1.855,-0.726 2.546,-2.6230006 3.318,-4.3010006 0.722,-0.805 1.227,-1.178 2.23,-1.593 2.047,0.216 3.804,2.602 5.189,4.017 2.388,-2.119 4.364,-3.57 7.502,-4.344 z"
     id="path133" />
</svg>
