<?xml version="1.0" encoding="UTF-8" standalone="no"?>
<svg
   width="178.8938"
   height="187.29449"
   viewBox="0 0 178.8938 187.29449"
   version="1.1"
   id="svg125"
   xmlns="http://www.w3.org/2000/svg"
   xmlns:svg="http://www.w3.org/2000/svg">
  <defs
     id="defs125" />
  <path
     fill="#030303"
     d="m 92.279967,2.8119555e-6 h 6.066 C 97.759967,15.254402 113.24797,36.149202 121.97597,48.419302 c -7.175,1.5189 -12.247,3.8694 -16.386,10.2849 -2.863,4.4373 -4.048,9.6538 -5.403,14.6884 l -3.879003,-4.6528 c 0,2.4585 0.33,5.3802 -0.746,7.6381 -0.883,0.5151 -1.969,-0.002 -2.193,0.741 -0.801,2.6543 1.498,6.104 0.834,9.0848 -1.437,0.4851 -1.92,-1.2232 -3.112,-0.1304 -1.361,6.8599 1.904,13.8494 5.64,19.458698 1.625,2.44 3.756003,4.767 5.112003,7.341 -1.596,5.933 -3.352003,11.432 -6.204003,16.891 -1.206,2.309 -9.917,15.881 -9.991,16.615 2.249,0.634 5.445,-1.262 7.387,-2.342 5.522,-3.113 10.394003,-7.258 14.352003,-12.209 -0.628,-2.179 -2.13,-5.4 -1.587,-7.601 0.909,-1.077 1.826,-1.319 3.124,-1.737 1.38,-2.81 -1.153,-5.027 2.16,-7.052 0.931,0.083 1.134,0.505 1.719,1.203 4.314,5.152 4.823,8.92 12.659,9.828 1.387,0.161 2.821,0.177 4.216,0.159 -0.518,-3.565 -0.955,-7.141 -1.31,-10.726 -0.074,-0.11 -0.146,-0.221 -0.222,-0.329 -1.733,-2.448 -7.167,-5.795 -7.447,-8.635 0.913,-1.169 1.575,-2.134 2.97,-2.76 1.411,0.449 1.774,1.105 2.444,2.4 1.455,2.815 2.63,5.549 5.878,6.686 2.077,0.728 4.285,0.622 6.236,-0.426 3.311,-1.779 4.803,-6.182 8.934,-5.864 1.753,0.981 3.303,2.514 3.834,4.506 0.121,0.455 -0.117,0.901 -0.243,1.346 -1.23,1.036 -3.635,1.63 -4.155,2.991 0.43,2.43 1.027,4.758 1.711,7.129 2.621,-2.527 5.268,-5.061 6.941,-8.348 -0.044,-3.76 -0.077,-7.254 -2.932,-10.07 -2.152,-2.123 -4.909,-2.843 -7.715,-3.699 -3.488,0.951 -7.091,2.17 -10.634,2.836 -3.426,-2.401 -6.095,-5.582298 -9.418,-8.023398 -4.051,-2.9759 -11.76,-5.7208 -14.321,-9.9737 l 0.164,-0.5599 c 2.614,-0.5089 4.514,0.4589 6.86,1.4481 l 0.139,-0.2162 c 3.912,-6.1769 5.594,-18.2828 13.856,-20.054 4.225,-0.9059 8.058,0.9261 11.789,2.6555 1.868,-1.9266 3.693,-3.9143 5.808,-5.5753 -0.558,2.5384 -1.222,4.9653 -2.068,7.4231 1.541,0.3186 3.772,0.0996 4.768,1.2599 -0.487,1.7569 -1.851,2.357 -3.422,3.2306 -1.528,0.8442 -3.085,1.6344 -4.669,2.3693 0.539,7.0198 0.512,12.3836 -1.697,19.1743 3.528,-0.1633 6.677,0.196 10.105,1.0045 1.48,-8.036 7.286,-13.8223 13.763,-18.2683 l 0.811,-0.554 c -0.891,-8.9491 -2.938,-16.7203 -10.206,-22.6672 -5.747,-4.7019 -12.892,-8.4593 -20.306,-9.3952 -2.802,-0.3535 -5.645,-0.2502 -8.447,-0.5485 -3.353,-9.7257 -8.613,-18.2734 -13.933,-27.013 -2.231,-3.6648 -5.085,-7.5221 -6.623,-11.5220992 6.196,5.4808992 11.994,13.6723992 16.26,20.7684992 1.057,1.7579 4.541,8.8879 5.798,9.7053 1.319,0.8572 4.645,0.5279 6.208,0.4852 -3.613,-12.7561 -17.191,-31.0831092 -27.889,-38.8184991880444 h 7.506 C 117.15897,2.7657328 119.44297,5.6977528 122.08597,8.1931128 c 0.485,-2.73402 0.926,-5.42174 1.15,-8.1931099880444 h 16.717 C 149.59197,12.893802 153.72197,18.770402 154.88497,35.340202 c 0.301,4.2795 0.678,8.5531 0.419,12.8441 5.715,6.0806 10.615,11.0066 13.141,19.2232 0.934,3.0379 1.558,6.6378 3.158,9.3879 1.488,-0.3293 1.419,-1.6636 3.13,-1.4946 1.015,1.8421 -0.229,3.3519 0.658,5.3379 1.069,-0.017 1.777,-0.5621 2.65,-1.1071 l 0.708,0.2632 c 0.275,1.5814 0.226,2.3288 -0.747,3.7239 -1.269,1.8182 -3.081,3.4545 -4.118,5.3881 -2.095,3.9056 -2.323,8.793 -4.43,12.698198 -1.643,3.046 -4.588,5.151 -6.407,8.052 -3.321,5.297 -7.617,20.274 -14.687,21.434 -0.63,0.104 -1.141,0.002 -1.648,-0.395 -0.629,-0.493 -1.213,-1.401 -1.705,-2.034 -1.867,-0.171 -2.869,0.654 -4.236,1.788 -2.954,2.452 -5.057,3.356 -8.925,3.027 -5.117,-0.434 -10.179,-2.431 -14.886,-4.394 -6.747,15.4 -14.692,19.345 -29.698003,25.217 -2.572,1.006 -10.468,2.672 -11.816,4.723 0.326,1.399 0.711,2.137 2.034,2.925 5.676,3.382 14.302,2.852 20.36,0.99 5.429003,-1.667 9.658003,-4.638 14.007003,-8.14 1.377,-1.109 2.862,-2.548 4.42,-3.37 1.199,-0.634 1.338,-0.605 2.592,-0.318 0.988,0.862 1.446,1.765 1.517,3.084 0.08,1.492 0,3.026 -0.046,4.519 3.69,-0.291 10.515,-1.641 13.602,0.921 1.285,1.067 1.53,2.503 1.581,4.082 0.011,0.365 0.01,0.729 0.012,1.094 0.041,4.066 6.864,8.036 3.31,11.786 -1.19,1.255 -5.242,2.049 -5.391,3.411 -0.275,2.515 1.702,3.871 -0.842,6.06 -1.653,1.421 -4.134,1.323 -6.177,1.092 -6.878,-0.777 -13.343,-3.543 -20.268,-4.165 -17.774003,-1.597 -41.092003,4.792 -53.692003,-11.271 -2.217,-2.826 -3.784,-5.855 -5.19,-9.137 -6.619,1.034 -14.595,4.084 -21.197,3.63 -0.795,-0.706 -1.149,-1.335 -1.604,-2.289 -6.434,-0.518 -9.264,2.026 -16.4680007,-0.932 -1.438,-0.591 -3.273,-1.412 -4.377,-2.526 -0.566,-2.025 -2.099,-4.438 -3.628999982196,-5.877 C 0.18096632,152.409 0.79296632,151.106 1.9369663,149.3 c 1.555,2.316 4.361,6.774 7.42,7.266 0.521,0.084 0.8760007,0.081 1.3720007,-0.056 l 1.148,0.42 c 6.393,2.306 9.414,2.575 15.611,-0.33 1.918,-8.465 2.158,-31.241 0.061,-39.737 -1.146,-4.644 -3.263,-8.597 -5.526,-12.763 2.397,-2.016 4.693,-4.482498 6.053,-7.324098 1.968,-4.1154 1.62,-7.3182 0.161,-11.5078 l -0.549,-0.2287 c -0.5,1.1433 -0.505,1.5159 -1.614,2.1549 -1.91,-0.5248 -2.258,-2.1089 -3.984,-2.808 -0.54,0.2374 -0.971,0.4428 -1.366,0.8952 -3.338,3.8186 -2.304,14.3022 -1.992,19.125498 -0.918,1.071 -2.069,1.194 -3.39,1.619 -0.167,-7.784698 0.192,-15.840198 0.525,-23.622498 1.189,-1.8883 2.573,-4.5602 4.32,-5.967 2.246,-1.8089 2.751,0.8913 4.932,1.2327 1.754,-0.8828 2.71,-3.0385 3.701,-4.6866 2.579,3.2497 4.84,7.2569 5.787,11.319 1.764,7.5655 -1.332,13.6557 -5.238,19.878398 2.609,1.076 5.68,2.293 8.548,2.156 3.782,-0.18 6.909,-2.285 10.484,-3.235 3.075,-0.818 6.397,-1.09 9.537,-1.622 10.429,-1.765398 19.199,-3.195298 29.737,-0.866 -3.775,-9.312798 -2.518,-11.596298 0.462,-20.768298 -1.298,-5.576 -1.172,-10.6273 -0.91,-16.3054 1.501,1.8053 3.044,3.3329 4.836,4.8497 0.233,-2.4912 0.378,-5.0931 0.872,-7.5469 0.301,-1.5004 0.801,-2.11 2.024,-2.9098 1.85,0.2844 2.48,1.1649 3.874,2.3764 3.700003,-7.6689 6.467003,-11.2281 13.958003,-15.1222 -7.29,-14.6274 -19.343003,-28.4266 -20.511003,-45.1864991880445 z M 132.46597,171.119 c -2.044,-0.919 -4.142,-1.781 -6.144,-2.786 1.612,-1.211 3.732,-2.459 4.536,-4.363 l -0.378,-0.77 c -4.718,-1.219 -11.193,2.934 -14.277,-2.265 -0.557,-0.939 -1.041,-1.925 -1.526,-2.902 -6.913,7.397 -12.94,11.323 -23.548003,11.725 -6.929,0.262 -15.354,-1.303 -20.543,-6.264 -1.517,-1.45 -2.261,-3.193 -3.077,-5.09 -2.917,-6.785 -7.421,-7.419 -14.293,-7.874 -0.754,6.018 0.055,12.936 3.846,17.888 4.275,5.582 11.842,8.374 18.617,9.17 7.973,0.936 15.936,-1 23.944,-0.03 8.924003,1.082 18.869003,5.558 27.772003,4.921 l 0.591,-0.549 c -0.412,-1.668 -2.025,-4.035 -1.658,-5.653 1.652,-1.575 6.779,-1.622 7.238,-3.552 z m 8.354,-129.736098 c 3.018,1.4018 6.02,2.7831 9.128,3.9779 l 0.943,-0.4044 c 2.284,-6.3362 -1.764,-19.8038 -4.484,-25.616 -2.011,-4.2975 -8.16,-15.2694492 -12.446,-16.8105492 -1.078,-0.38796 -2.576,-0.23933 -3.708,-0.10228 -2.098,2.74276 -2.448,5.49262 -2.933,8.8449292 1.929,5.3847 5.581,10.2235 8.128,15.3514 2.359,4.7486 3.604,9.7985 5.372,14.759 z m 1.719,78.434098 c -1.272,1.276 -4.035,3.475 -4.2,5.299 l 1.109,1.095 c 1.484,-0.454 2.768,-0.943 3.525,-2.401 0.458,-0.88 0.496,-1.988 0.18,-2.925 -0.134,-0.4 -0.376,-0.726 -0.614,-1.068 z m 16.396,-17.431 1.537,0.27 c 3.022,-2.899098 5.818,-11.854898 5.881,-15.954098 0.01,-0.4266 -0.079,-0.5723 -0.215,-0.9264 l -0.714,-0.1827 c -3.896,2.4459 -7.457,7.3639 -8.449,11.8808 -0.24,1.0935 -0.284,1.9881 0.096,3.061398 0.618,0.618 1.228,1.252 1.864,1.851 z m -24.913,14.565 c -0.61,1.827 -0.8,2.961 -0.48,4.88 l 0.705,1.037 c 0.779,-0.156 0.901,-0.143 1.448,-0.705 0.792,-1.261 1.822,-2.471 1.672,-4.019 -1.148,-0.955 -1.905,-0.954 -3.345,-1.193 z m -6.544,-27.110498 c 0.523,-1.4219 0.851,-2.9414 2.177,-3.8024 1.422,-0.3141 2.489,-0.3622 3.61,-1.3544 -0.084,-1.3183 -0.23,-2.7538 -0.083,-4.0665 0.192,-1.7116 2.008,-3.7352 1.292,-5.434 -1.963,-0.7666 -4.122,-0.605 -6.197,-0.6192 -1.906,4.6785 -4.325,8.9316 -6.699,13.3761 1.505,1.0884 3.097,2.5286 4.978,2.812 0.501,-0.324 0.741,-0.3215 0.922,-0.9116 z M 48.720967,128.959 c -2.448,3.196 -5.146,7.21 -4.539,11.465 0.216,1.516 0.924,2.657 1.8,3.877 l 1.171,0.138 c 2.011,-2.826 2.39,-11.05 1.818,-14.512 -0.056,-0.344 -0.143,-0.637 -0.25,-0.968 z"
     id="path209" />
</svg>
