<?xml version="1.0" encoding="UTF-8" standalone="no"?>
<svg
   width="69.75354"
   height="67.661369"
   viewBox="0 0 69.75354 67.661369"
   version="1.1"
   id="svg125"
   xmlns="http://www.w3.org/2000/svg"
   xmlns:svg="http://www.w3.org/2000/svg">
  <defs
     id="defs125" />
  <path
     fill="#030303"
     d="m 35.742893,0.10732878 0.213,-0.021 c 4.513,-0.478 7.629,1.10900002 11.715,2.78900002 1.088,-0.375 2.276,-0.88 3.42,-1.021 0.899,-0.111 0.983,-0.011 1.636,0.535 -0.095,1.887 -1.249,3.449 -2.177,5.047 1.951,1.849 4.031,3.2329992 6.289,4.6599992 -2.803,2.422 -3.499,4.216 -4.605,7.617 -1.786,5.495 -4.314,4.37 -8.508,6.724 -0.841,0.472 -1.557,1.233 -1.671,2.236 -0.146,1.297 0.231,1.955 0.976,2.896 2.684,0.71 6.211,-2.176 8.611,-3.36 3.359,-1.657 7.193,-2.429 10.813,-1.171 2.714,0.943 4.945,2.872 6.143,5.496 0.881,1.93 1.579,5.063 0.853,7.093 -2.642,1.376 -6.289,-1.552 -9.038,-2.004 -1.05,-0.172 -1.126,-0.215 -2.005,0.383 -0.665,5.563 6.218,10.718 6.603,16.897 0.273,4.396 -1.909,8.116 -4.702,11.312 -0.928,0.348 -1.869,0.698 -2.831,0.94 -9.058,2.279 -17.587,-3.622 -24.913,-8.088 -0.742,-0.345 -2.01,-1.143 -2.79,-1.069 -2.475,0.234 -8.926,6.928 -16.771,7.764 -3.2150001,0.342 -6.5280001,-0.054 -9.1020001,-2.163 -2.412,-1.977 -3.53800008,-4.998 -3.80500008,-8.033 -0.855,-9.708 4.07200008,-15.835 9.92400018,-22.805 0.382,1.8 0.701,4.692 1.893,6.103 1.067,1.263 2.649,2.363 4.364,2.319 2.14,-0.056 3.715,-1.607 5.051,-3.089 -0.154,-1.139 -5.93,-4.775 -7.149,-6.412 -0.1,-0.133 -0.195,-0.269 -0.292,-0.404 -2.058,-0.265 -4.9080001,-0.258 -6.7210001,-1.299 -1.377,-0.79 -1.712,-1.626 -2.076,-3.048 0.173,-0.696 0.388,-1.317 0.875,-1.864 1.942,-2.181 5.4080001,-3.096 8.2270001,-3.19 5.339,-0.18 9.452,2.231 13.266,5.721 l 3.722,-3.486 c -4.296,-4.166 -4.843,-7.285 -5.514,-13.032 0.131,-0.31 0.269,-0.611 0.409,-0.917 2.091,-4.5999992 5.491,-7.3729992 9.667,-10.05599922 z m 12.46,59.00099922 c 2.075,0.933 3.974,1.667 6.269,0.867 1.334,-0.466 2.214,-1.457 2.757,-2.739 1.32,-3.117 0.202,-7.37 -1.147,-10.301 -0.942,-2.046 -2.22,-4.292 -4.161,-5.512 -0.9,-0.158 -1.808,-0.347 -2.714,-0.462 l -1.294,6.987 c -1.772,-0.542 -3.576,-1.041 -5.325,-1.651 0.479,2.448 1.34,4.549 -0.205,6.751 -0.544,0.775 -1.177,1.438 -1.866,2.081 2.072,1.741 5.226,2.821 7.686,3.979 z m -28.301,-2.281 c 0.877,-0.844 1.925,-1.618 2.255,-2.828 -6.189,-3.992 -3.317,-4.163 -5.946,-6.842 -0.304,-0.311 -0.57,-0.545 -1.014,-0.393 -0.779,0.266 -1.369,0.955 -1.952,1.513 -0.701,0 -1.254,0.146 -1.811,-0.371 -1.415,-1.313 -1.5620001,-3.408 -3.3070001,-4.677 -1.795,3.232 -3.093,6.948 -1.999,10.671 0.534,1.817 1.593,3.4 3.303,4.305 2.1910001,1.16 4.5070001,1.009 6.7630001,0.183 1.252,-0.459 2.511,-0.971 3.708,-1.561 z"
     id="path126" />
</svg>
