<?xml version="1.0" encoding="UTF-8" standalone="no"?>
<svg
   width="191.73047"
   height="311.13669"
   viewBox="0 0 191.73047 311.13669"
   version="1.1"
   id="svg125"
   xmlns="http://www.w3.org/2000/svg"
   xmlns:svg="http://www.w3.org/2000/svg">
  <defs
     id="defs125" />
  <path
     id="path128"
     d="M 124.10546,1.9160657e-4 C 121.01546,4.3641916 119.56776,8.3365416 118.01176,13.402542 c -2.71,0.095 -5.453,-0.009 -8.166,-0.0254 -0.598,-1.493 -1.2337,-3.08018 -2.4317,-4.2011804 -4.943,-4.623 -14.779502,-2.62706 -20.517502,-0.66406 -2.656,0.909 -6.2363,2.8202304 -9.0313,2.7402404 -2.863,-0.082 -4.9952,-2.6741604 -6.9063,-4.5351604 -1.786,0.776 -3.7584,1.35047 -4.8554,2.98047 0.284,1.0500004 0.4704,1.9745004 0.5234,3.0625004 -1.384,2.057 -15.0897,16.12301 -17.2617,17.66601 -0.435,0.309 -0.6309,0.44247 -0.7969,0.98047 l 0.7481,0.39258 c 5.567,-0.292 11.7765,-4.82623 16.8105,-7.11523 3.304,-1.502 6.6666,-2.73825 10.1016,-3.90625 1.779,0.713 3.9679,1.48098 4.9609,3.20898 -0.62,1.868 -7.9925,2.15533 -10.1015,2.98633 -2.984,1.176 -5.6611,3.01495 -7.8301,5.37695 -5.557,6.054 -5.9626,13.01611 -5.6446,20.78711 4.648,-7.719 5.4855,-12.10809 14.1895,-16.49609 2.107,-1.093 3.9745,-1.90385 6.3945,-1.21485 l 0.6797,0.73438 c -0.828,1.109 -2.5481,1.97384 -3.9531,2.21484 -3.53,2.99 -5.1811,5.20972 -5.5781,9.88672 -0.615,7.226 0.4179,13.21927 -2.4121,20.19727 2.256,1.061 3.9389,1.91911 4.8769,4.41211 0.779,2.074 1.1348,4.47257 1.5938,6.64257 -4.408,-0.025 -5.9827,-0.12422 -9.1407,-3.32421 -7.133,-7.231 -9.2876,-9.50949 -19.1797,-12.77149 0.042,-3.165 0.4323,-5.97659 -2.0097,-8.43359 -1.473,-1.482 -3.4925,-2.16133 -5.5625,-2.11133 -2.877,0.069 -5.6664,1.40086 -7.6074,3.50586 -1.843,1.997 -2.7995,4.65614 -2.6465,7.36914 0.124,2.522 1.3878,4.6368 2.7148,6.7168 -2.604,3.526 -4.4838,7.19532 -3.8808,11.73632 0.533,4.016 2.2149,7.95105 3.2109,11.87305 1.372,5.397 2.4756,18.291918 7.1426,21.919918 2.337,1.817 5.3412,1.99127 8.1562,2.44727 4.456,4.825 6.9476,9.97564 14.2246,10.18164 9.295,0.263 18.7578,-5.77856 25.8828,-11.22656 4.252,0.917 8.2435,1.32181 12.6055,1.38281 -0.279,2.524 -0.2368,5.47765 -2.3828,7.22266 -3.351,2.723 -8.6884,1.47398 -11.5644,5.08398 -2.602,3.267 -5.1446,15.0238 -7.6016,19.8418 -1.577,3.092 -4.4024,5.27051 -6.1524,8.22851 -2.613,4.416 -4.1515,9.43316 -6.6855,13.91016 -4.061,7.176 -9.3032,13.73959 -13.1152,21.05859 -2.852,5.474 -2.0488,13.38763 -7.0078,17.51563 -6.204,5.166 -30.5648,14.87631 -32.1348,16.69531 -0.272,0.315 -0.5425,1.23381 -0.6055,1.63281 -0.247,1.574 0.3449,3.66285 0.6719,5.21485 -2.673,3.029 -7.1329,7.16456 -6.6719,11.60156 0.273,2.633 2.1795,4.3617 4.1875,5.8457 9.848,7.278 48.938,25.30675 52.211,32.34375 -0.132,0.708 0.017,0.97577 -0.6387,1.38477 -2.408,1.501 -7.7833,-0.30838 -10.3203,-1.10938 -2.578,-0.814 -4.9959,-2.07136 -7.5879,-2.81836 -11.742,-3.386 -20.0267,0.32427 -31.1797,2.57227 -1.748,-0.657 -3.5247,-1.5483 -5.4297,-1.2793 l -0.5273,0.7793 0.5429,2.42578 -0.5254,0.76562 c -1.437,0.15 -3.2692,-0.10445 -4.36519999,0.81055 0.526,1.531 2.33609999,2.2807 3.58009999,3.3457 -1.021,0.964 -3.86469999,1.93443 -4.011699990558,3.35743 C 0.99305801,296.28517 2.171658,296.74321 3.640658,296.83221 c 0.126,0.007 0.2509,-0.006 0.3769,-0.008 0.1868,0.54891 0.355,1.10491 0.5118,1.66406 15.745,6.10835 30.9804,10.13477 30.9804,10.13477 h 40.9727 l 14.4277,-8.79688 c -0.5082,-0.88475 -0.3221,-1.6918 -0.2207,-2.68945 0.566,-1.084 0.584,-2.43758 0.461,-3.64258 -1.238,-12.136 -36.4523,-36.45845 -46.2793,-44.68945 4.208,-2.245 7.7501,-5.44695 12.1211,-7.50195 0.714,-0.336 1.3339,-0.61669 2.1289,-0.67969 4.302,-0.343 8.6527,-0.0858 12.9687,-0.42383 6.412,-0.501 19.4062,-3.76209 25.2832,-2.24609 7.542002,1.944 14.427102,6.93201 21.996102,8.29101 4.43,0.795 6.1783,-0.086 9.7793,-2.62695 1.121,0.237 2.2275,0.5412 3.3125,0.9082 2.039,0.677 3.8929,1.31071 4.9219,3.34571 0.553,4.118 -15.8806,35.57726 -18.6836,42.32226 -1.804,4.343 -3.9827,9.86709 -1.9707,14.4961 1.258,2.896 3.8737,4.67518 6.7617,5.74218 1.971,0.729 3.9254,0.95172 5.9824,0.38672 7.1,-1.951 13.2914,-6.92191 20.2754,-9.3789 6.597,-2.321 14.2026,-2.29254 20.5176,-5.26954 2.194,-1.033 4.1653,-2.89267 5.9433,-4.51367 3.8191,-3.483 6.8321,-7.77495 10.7891,-11.12695 1.279,-1.083 4.2054,-2.90559 4.7324,-4.4336 -0.432,-1.12399 -0.8914,-2.14409 -0.6504,-3.37109 0.195,-0.995 0.2764,-1.89911 0.3204,-2.91211 -0.715,-0.509 -2.6237,0.82267 -3.7227,0.88867 -0.399,-1.652 0.8824,-4.76198 1.3594,-6.45898 -2.209,1.296 -4.3268,2.78341 -6.4668,4.19141 -2.856,0.008 -5.6759,-0.66516 -8.5469,-0.53516 -9.133,0.416 -18.1186,4.61647 -26.5566,7.85547 3.712,-9.108 15.6877,-29.22196 14.7597,-38.25195 -0.753,-7.328 -11.5996,-9.5486 -16.9316,-12.9336 -2.255,-1.432 -2.0565,-3.79491 -3.9375,-5.0039 -4.445,-2.856 -9.2294,-4.39982 -13.4824,-7.75782 4.603,-3.313 21.676,-14.03975 23.582,-17.96875 0.8,-1.649 0.4757,-3.83895 0.9297,-5.62695 0.468,-1.847 1.6906,-3.66163 1.9726,-5.51563 0.177,-1.163 -0.032,-2.13146 -0.4062,-3.23046 l -0.6738,-0.30274 c -0.676,0.271 -1.3224,0.59849 -2.0684,0.52149 -0.413,-0.042 -0.4045,-0.0858 -0.6875,-0.42579 -1.544,-1.854 -0.6172,-6.64936 -0.4102,-8.94335 -3.353,4.43999 -4.2945,10.00876 -7.6015,14.63476 -0.579,-2.9 -0.8125,-5.89112 -1.1445,-8.82812 -6.02,18.02 -9.2385,12.66562 -23.1915,19.14062 -2.695,1.251 -4.2543,3.63447 -6.6933,4.98047 -1.41,0.777 -2.2659,0.23344 -3.6289,-0.22656 -4.404,-6.103 13.2556,-38.34827 17.5996,-44.57227 4.264,-6.109 10.2006,-11.38325 14.0156,-17.65625 1.362,-2.239 2.3475,-4.81837 2.1445,-7.48437 -0.266,-3.467 -2.6079,-5.6791 -5.1289,-7.7461 1.416,-3.494 3.0645,-6.84856 4.7325,-10.22656 0.094,1.539 0.1359,3.15178 0.3789,4.67578 0.198,1.248 0.5355,1.82822 1.5175,2.57422 1.933,-0.42 3.0427,-2.58244 4.0137,-4.14844 1.599,-2.581 3.5937,-5.72808 4.2227,-8.70508 1.197,-5.669 -3.5582,-14.689318 -0.2012,-19.611318 0.438,-0.118 0.8312,-0.37468 1.2402,-0.13868 5.455,3.148 6.534,13.325798 6.295,18.841798 -0.153,3.532 -1.3094,7.64861 -0.4434,11.09961 l 0.6426,0.24805 c 0.197,-0.181 0.2698,-0.24003 0.4668,-0.45703 2.4,-2.647 3.738,-7.74357 4.914,-11.10157 9.309,-26.588998 -11.1489,-26.205558 -11.6699,-34.601558 0.581,-1.182 1.0668,-1.74698 2.1758,-2.45898 5.954,0.077 8.7262,12.76276 13.9512,15.88476 1.227,0.734 1.734,0.54864 3,0.18164 l 0.2382,-0.52148 c -1.346,-2.301 -3.0553,-4.08014 -4.0253,-6.61914 -3.013,-7.891 1.525,-16.95672 -2.168,-24.38672 -1.937,-3.897 -5.1119,-5.35575 -9.0449,-6.71875 3.322,-17.156 6.8901,-26.59517 -0.2989,-43.9511704 -6.115,2.017 -12.2328,4.73061 -17.7968,7.9746104 -2.162,1.261 -5.4574,4.54139 -7.6504,4.90039 l -0.836,-0.95117 c -0.533,-3.583 2.7342,-8.1681004 4.3672,-11.2461004 -3.489,-0.957 -6.9554,-1.98675 -10.4004,-3.0937499934339 z M 126.47076,3.2560516 c 0.959,0.657 1.5462,1.00367 1.9062,2.13867 -0.435,2.804 -2.7199,5.5332104 -4.2539,7.9082104 -0.517,0.144 -0.8998,0.0599 -1.4258,0.004 -0.139,-0.373 -0.1992,-0.43848 -0.1992,-0.89648 -0.032,-2.7660004 2.3057,-7.0113004 3.9727,-9.1543004 z M 95.035158,11.285352 c 0.1159,0.002 0.2432,0.0111 0.5332,0.0351 1.424,0.117 2.7935,0.57586 3.6875,1.75586 0.962002,1.271 0.981102,2.88372 0.7071,4.38672 -0.282,1.548 -1.1341,4.10324 -2.4161,4.99024 l -0.5136,-0.82227 c -1.783,-6.752 -4.4115,-5.00706 -7.2285,-9.16406 1.41,-0.922 3.1295,-0.95897 4.7675,-1.16797 0.2435,-0.008 0.347,-0.0153 0.4629,-0.0137 z m 57.435602,2.32031 0.7324,0.69531 c 2.2,10.559 3.2087,18.84489 -1.3203,29.08789 -3.934,8.896 -7.0357,9.41628 -15.3867,12.61329 0.159,-3.022 0.094,-6.45143 0.9511,-9.35743 1.117,-3.789 2.626,-8.42584 4.334,-11.96484 1.301,-2.696 3.229,-5.06656 4.336,-7.85156 0.2,-0.504 0,-0.87463 -0.1172,-1.39063 l -0.6758,-0.0684 c -4.291,4.063 -10.9828,7.11563 -13.9258,12.26563 -1.868,3.27 -1.3198,7.93367 -3.7168,10.88867 l -0.7891,-0.15039 c -0.687,-0.715 -1.5004,-1.49363 -1.9414,-2.39063 -0.923,-1.88 -0.5341,-4.33531 0.2539,-6.19531 7.385,-17.436 10.3307,-19.31164 27.2657,-26.18164 z m -35.8809,3.77344 c 1.8705,0.0605 3.7379,0.24373 5.5879,0.55273 1.934,0.342 4.0834,1.02213 5.2344,2.70313 0.045,1.497 -0.3771,2.04517 -1.0801,3.32617 -3.753,-0.357 -7.0605,-2.72205 -11.0215,-2.74805 -1.55,-0.011 -3.6191,0.76831 -4.8301,-0.17969 -0.123,-1.33999 0.028,-2.20489 0.4981,-3.46289 1.866,-0.189 3.7408,-0.2519 5.6113,-0.1914 z m -17.835902,26.49805 c 1.039,1.23799 1.461902,3.2266 2.462902,4.5996 1.128,1.546 2.9522,2.22654 3.9921,3.89454 -2.05,3.427 -8.375902,1.71607 -11.544902,3.33007 -2.27,1.157 -3.8611,3.94427 -6.3261,4.69727 l -2.2266,-1.53516 c -2.816,-0.676 -5.7665,-0.0682 -8.5645,-0.82422 -0.16,-0.454 -0.321,-0.87723 -0.332,-1.36523 -0.193,-8.936 11.2993,-6.53652 16.3613,-8.35352 2.442,-0.877 4.3698,-2.65535 6.1778,-4.44335 z m 17.562502,11.92773 0.4668,0.22266 c 0.097,2.025 0.086,4.3702 0.7929,6.2832 1.436,3.887 6.4618,8.68151 5.3418,12.97851 -0.793,3.039 -3.5607,4.44716 -6.0547,5.91016 l 0.5137,0.55078 c 2.068,2.247 3.4758,4.06013 3.2188,7.32813 -0.308,3.918 -3.2539,6.55703 -6.1309,8.83203 2.183,-0.11 6.5269,-0.85816 8.4219,0.21484 1.56,5.157998 -7.1085,12.609738 -8.2695,17.802738 -0.23,1.03 -0.098,1.18236 0.4453,2.06836 3.172,1.346 9.1996,-0.72813 12.4746,-1.45313 -1.734,1.98 -4.3135,3.57781 -5.4375,6.00781 -0.467,1.01 -0.6061,1.19194 -0.2051,2.21094 0.858,0.166 1.9346,0.26145 2.6406,0.81445 0.437,0.342 0.3663,0.21622 0.4043,0.82422 0.334,5.258 -21.9274,32.00388 -26.898402,36.79688 -2.856,2.754 -6.2635,5.02422 -10.3965,4.82422 -1.184,-0.058 -2.4774,-0.39599 -3.2734,-1.33399 -6.019,-7.107 15.2594,-34.92751 18.146402,-42.60351 1.167,-3.102 1.2464,-6.99639 1.3594,-10.27539 2.554,-2.331 4.8909,-4.76918 7.2149,-7.32618 -2.639,1.016 -5.1255,2.39535 -7.7715,3.40235 -6.715002,2.555 -13.354302,1.74143 -20.322302,1.27343 -1.811,1.401 -3.3496,3.14516 -5.1816,4.53516 -4.971,3.77 -13.3021,8.33853 -19.6231,8.39453 -2.922,0.025 -4.5451,-0.91362 -6.5761,-2.89062 -0.05,-0.227 -0.1272,-0.5171 -0.1172,-0.7461 10e-4,-0.033 0.1218,-0.83325 0.1718,-0.90625 0.477,-0.696 4.298,-2.17809 5.209,-2.74609 1.218,-0.761 2.2648,-1.845 3.2578,-2.875 4.804,-0.873 9.86,-1.41109 14,-4.24609 3.167,-2.169 5.8215,-4.86004 9.4395,-6.33204 1.125,0.42501 2.1646,0.94291 3.2266,1.50391 3.995,-0.017 8.1777,-3.30103 11.9707,-4.58203 1.587002,-1.961998 2.764202,-3.775938 3.783202,-6.085938 -1.562,-2.091 -3.252302,-3.83709 -5.154302,-5.62109 -12.246,5.9 -24.8123,8.96203 -38.4903,7.70703 -7.771,-0.713 -12.654,-1.85983 -17.791,-8.04883 l -0.6836,1.85547 c -0.063,0.174 -0.1196,0.34848 -0.1816,0.52148 -0.453,1.26201 -1.0014,2.38688 -2.3164,2.92188 -0.888,0.362 -1.6121,0.41875 -2.4981,-0.0312 -1.612,-0.819 -2.7207,-3.24605 -3.3047,-4.87305 -1.85,-5.159 -1.7422,-10.5054 0.5918,-15.4414 3.229,2.411 6.4262,4.79148 9.8672,6.89648 -0.092,-2.212 -0.2463,-4.65103 0.1387,-6.83203 0.28,-1.584 0.8922,-3.41189 2.2832,-4.33789 5.558,-3.7 15.8704,10.9993 19.7344,14.1543 3.497,2.856 6.4786,4.29343 10.8906,5.14843 l -0.6738,-4.4082 c 2.01,-0.68 4.2165,-1.62311 6.3105,-0.91211 1.257,1.191 1.298,2.00267 1.711,3.63867 3.223,0.491 5.6425,-3.19422 8.4355,-4.44922 6.142,-2.759 14.514202,0.13169 20.365202,2.55469 -1.085,-1.913 -2.2844,-3.76867 -3.4414,-5.63867 1.966,-4.913 0.087,-11.6732 0.8594,-12.9082 l 1.5234,0.0898 0.4063,-0.52344 c -0.658,-2.706 -2.6885,-4.62004 -3.3555,-7.12304 -0.211,-0.794 -0.013,-0.77936 0.3809,-1.44336 2.579,-1.456 5.2794,-1.26544 8.1504,-1.27344 z m -79.127002,0.83789 c 0.623,0.093 1.3624,0.16697 1.9414,0.41797 1.115,0.483 1.3221,1.08783 1.6211,2.17383 -0.466,1.942 -2.0483,3.22661 -3.4023,4.59961 l -0.6836,0.57812 -0.9473,-0.49219 c -0.633,-1.008 -0.8785,-1.82629 -0.8535,-3.02929 0.043,-2.058 0.9192,-2.93605 2.3242,-4.24805 z m 60.4102,3.14648 c 1.335,-0.04 2.432502,0.0572 3.646502,0.65821 2.243,1.111 3.9235,3.103 4.6425,5.5 0.967,3.231 1.234,8.68104 -0.75,11.62304 -0.702,1.042 -1.3182,1.06594 -2.4492,1.21094 -1.13,-0.58 -1.3076,-0.84111 -2.0156,-1.91211 -4.745002,-5.363 0.2572,-4.96739 -1.218802,-9.90039 -2.428,-2.756 -4.7461,-1.35505 -7.9121,-2.12305 l -0.084,-0.75195 c 1.6601,-2.52 3.3887,-3.30669 6.1407,-4.30469 z m -17.4082,1.91407 c 1.583,0.037 2.9618,0.31461 4.2148,1.34961 2.854,2.358 4.2413,7.15689 4.4453,10.71289 0.114,1.984 0.1345,3.89822 -1.2715,5.44922 -1.233,0.417 -1.8166,0.33075 -3.0546,-0.0312 -2.404,-5.727 -3.8241,-3.48624 -2.9981,-10.86524 -1.758,0.219 -3.6281,0.89661 -5.2461,-0.0254 -0.82,-1.048 -0.93,-1.17419 -1,-2.49219 1.076,-2.415 2.6082,-3.13765 4.9102,-4.09765 z m 14.9179,32.80664 0.7598,0.60351 c -0.01,0.443 0.1156,0.83669 -0.1914,1.17969 -0.94,1.053 -2.3696,1.55419 -3.7676,1.61719 -0.173,0.008 -0.3465,-0.009 -0.5195,0.004 -1.803,0.132 -2.1731,0.72164 -3.3281,1.93164 -0.551,0.261008 -0.7274,0.165328 -1.3184,0.11133 -0.489,-1.273 -0.3476,-1.34898 0.068,-2.58398 1.559,-1.566 5.5496,-1.49028 7.8066,-2.61328 z m -47.2675,3.25 c 2.39,0.167 4.4844,0.67142 6.7754,1.35742 -0.498,2.479998 -1.3457,4.901448 -2.0997,7.314448 -0.55,0.78 -0.5809,0.76916 -1.5039,1.03516 -0.351,-0.177 -0.6148,-0.31438 -0.8828,-0.60938 -1.966,-2.167 -2.238,-6.34065 -2.289,-9.097648 z m -11.2461,0.0605 c 1.454,0.049 2.2009,-0.0479 3.4609,0.74415 0.453,0.947 1.0241,2.023928 1.0781,3.085928 0.102,1.989 -0.5469,3.97411 -1.8359,5.41211 -1.201,-0.878 -2.1225,-1.88114 -2.9395,-3.11914 -0.85,-1.289 -1.9786,-3.07836 -1.5156,-4.693358 0.222,-0.774 1.083,-1.03269 1.752,-1.42969 z m 3.1113,12.406248 c 2.851,-0.037 6.3962,0.25944 9.1992,0.77344 1.405,0.257 2.5738,0.3472 3.4238,1.5332 l -0.3242,1.59961 c -0.24,0.013 -0.4816,0.0223 -0.7226,0.0293 -3.336,0.088 -9.3952,0.30219 -11.9922,-2.13281 z m 35.0645,73.57422 c 1.1739,0.51 1.989,0.76978 2.623,1.92578 -0.217,1.43 -0.7076,1.87504 -1.5586,2.95704 -0.972,0.213 -1.2241,0.3059 -2.2051,0.004 l -0.4511,-1.14453 c 0.202,-1.546 0.7638,-2.47619 1.5918,-3.74219 z m 72.414002,2.05274 c 0.28,0.12 0.5786,0.44743 0.8106,0.64844 l -0.09,1.38671 c -1.787,2.472 -2.1563,5.63199 -3.8613,7.95899 -3.026,4.132 -16.4421,11.12747 -21.5371,14.23047 l -5.9766,-4.64649 c -0.502,-0.453 -0.9079,-0.93608 -1.3379,-1.45508 0.2,-0.551 0.3919,-1.0337 0.7969,-1.4707 3.857,-4.16 13.7673,-6.22375 19.1543,-6.71875 1.641,-1.421 2.5592,-4.43983 3.4512,-6.42383 0.176,0.271 0.356,0.53774 0.539,0.80274 0.985,1.426 1.6034,2.21948 3.3164,2.52148 2,-1.419 2.5995,-4.55851 4.3965,-6.47851 z m -42.7598,18.43164 c 3.876,0.916 23.3641,13.25742 28.0411,16.23242 -4.301,3.52 -9.1874,6.885 -12.5254,11.375 -1.626,2.188 -2.7224,6.57059 -5.0664,7.80859 -1.296,0.081 -1.9505,-0.10462 -3.0645,-0.76562 l -0.082,-0.92774 c 0.936,-1.62 2.1472,-1.46543 3.5332,-2.39843 0.661,-0.445 1.0233,-0.89169 1.1113,-1.67969 0.198,-1.778 -0.8853,-3.22055 -1.9043,-4.56055 l -0.3086,-0.40234 c 0.487,-1.747 1.3637,-4.06028 1.2637,-5.86328 -0.074,-1.327 -0.6468,-2.34102 -1.6758,-3.16602 -5.017,-4.026 -6.3388,1.44324 -10.4648,1.36524 -1.946,-0.037 -3.294302,-1.31188 -5.404302,-1.04688 -4.489,2.204 -2.5982,8.09136 -5.4492,11.44336 -1.707,2.009 -27.4785,4.7113 -31.1485,4.9043 0.356,-1.492 0.9763,-3.55436 0.7403,-5.06836 -0.5601,-3.598 -4.0376,-9.73269 -6.9766,-11.92969 -5.283,-0.848 -3.8558,1.7208 -7.7598,2.7168 -1.323,-0.712 -2.3759,-1.31405 -3.9219,-1.37305 -1.218,0.393 -2.4243,1.03066 -3.1933,2.09766 -2.019,2.799 1.8391,4.4489 1.9101,6.8789 0.06,2.035 -1.3768,3.8036 -0.8808,5.9336 0.366,1.575 3.8188,3.373 5.1738,4.25 -2.15,1.518 -4.3933,2.85231 -6.6543,4.19531 -6.454,-6.278 -14.8297,-9.38199 -22.8437,-13.20899 3.168,-2.20299 6.8838,-3.93956 10.2558,-5.85156 8.297,-4.705 16.567,-9.27553 24.461,-14.64453 5.341,2.131 10.467,4.18585 16.205,4.96485 17.585,2.389 23.1639,-1.0043 36.628902,-11.2793 z m -51.419902,18.17383 1.0489,0.002 c 0.986,1.016 1.1855,1.89891 1.5175,3.25391 -0.785,2.881 -3.0238,0.83853 -2.0078,5.14453 l -0.5722,1.33593 -0.4336,-0.041 -0.024,-0.12891 c -0.123,0.028 -0.2471,0.062 -0.3711,0.084 -1.732,0.303 -2.5663,-0.34052 -3.9433,-1.22852 -0.135,-0.619 -0.2962,-0.70706 0.051,-1.28906 0.3319,-0.56 0.6178,-0.79402 1.1308,-1.16602 0.826,-2.171 1.6335,-4.57679 3.6035,-5.96679 z m 45.0996,0.45312 c 0.346,0.02 0.701,0.0444 1.043,0.10938 1.593002,0.307 2.430302,0.95856 3.281302,2.22656 l -0.4649,1.33984 c -1.364,0.466 -1.4756,0.5848 -2.808602,0.0918 -0.881,-1.223 -0.9298,-2.32458 -1.0508,-3.76758 z m 10.832102,0.0371 c 0.2612,0.006 0.5219,0.0277 0.7929,0.0762 1.026,0.183 1.004,0.22742 1.627,1.10742 -0.023,1.303 -0.1415,1.45621 -0.8945,2.53321 l -0.8399,-0.19727 -0.3633,-0.72265 c -0.958,0.341 -1.3556,0.43565 -2.3496,0.22265 0.025,-1.285 0.5925,-1.93876 1.2305,-3.00976 0.274,-0.008 0.5356,-0.0161 0.7969,-0.01 z m -63.652402,1.17383 c 0.8393,0.014 1.5599,0.6339 1.6836,1.48047 0.133,0.903 -0.4595,1.75236 -1.3515,1.94336 -0.632,0.135 -1.2853,-0.0919 -1.6973,-0.58985 -0.411,-0.498 -0.5118,-1.18234 -0.2598,-1.77734 0.252,-0.594 0.8131,-0.99978 1.4571,-1.05078 0.057,-0.005 0.112,-0.007 0.1679,-0.006 z m 91.400402,1.83984 c 3.411,0.681 7.8022,3.25719 11.0332,4.74219 3.599,1.653 8.4315,3.74194 9.8945,7.71094 0.061,4.54 -12.4426,35.05383 -15.3496,40.29883 -4.727,3.074 -10.7862,4.95911 -16.0312,7.03711 l -0.4688,-0.0996 c -0.82,-4.073 14.747,-30.80749 16.793,-37.77149 0.364,-1.242 0.5908,-2.29312 -0.1172,-3.45312 -1.942,-3.18 -8.1653,-3.713 -11.5293,-4.375 -2.696,-0.531 -5.5908,-0.72753 -7.2148,-3.14454 0,-0.49699 -0.023,-0.9634 0.1445,-1.4414 1.559,-4.477 8.9627,-7.50891 12.8457,-9.50391 z m -79.566402,2.62305 c 0.16,0.073 0.3265,0.1337 0.4805,0.2207 1.008,0.57 1.082,1.25058 1.375,2.26758 -0.259,1.432 -0.6328,2.01456 -1.7188,2.97656 -0.659,-0.302 -1.1796,-0.67856 -1.7636,-1.10156 -0.123,-1.864 0.7199,-2.75928 1.6269,-4.36328 z m 47.527402,0.10156 c 1.076,0.458 2.065,0.61655 2.621,1.68555 l -0.8437,1.71875 c -0.899,-0.103 -1.7229,-0.32922 -2.5899,-0.57422 -0.296,-1.198 0.2685,-1.78108 0.8126,-2.83008 z m -59.326202,2.78711 c 0.822,0.194 1.3517,0.47824 1.9297,1.11524 0.967,1.065 0.965,2.29648 0.8339,3.64648 -1.2559,-0.346 -2.2044,-0.69617 -3.2714,-1.45117 -0.391,-1.484 -0.047,-1.93255 0.5078,-3.31055 z m 52.5429,0.004 c 0.3394,-0.005 0.6741,0.14461 0.8985,0.42773 0.36,0.454 0.3173,1.10481 -0.098,1.50781 -0.309,0.299 -0.759,0.39596 -1.164,0.25196 -0.404,-0.145 -0.6913,-0.5066 -0.7403,-0.9336 -0.048,-0.427 0.1497,-0.84417 0.5118,-1.07617 0.1829,-0.117 0.3881,-0.1749 0.5917,-0.17773 z m 13.064502,0.0918 c 0.3785,0.002 0.748,0.15294 1.0195,0.42969 0.365,0.37 0.4975,0.9073 0.3535,1.4043 -0.144,0.498 -0.5428,0.87805 -1.0468,0.99805 -0.764,0.181 -1.5326,-0.28393 -1.7246,-1.04493 -0.193,-0.761 0.2615,-1.53528 1.0195,-1.73828 0.1252,-0.0335 0.2527,-0.0494 0.3789,-0.0488 z m -8.5,2.41993 c 1.244,0.022 1.9775,0.25847 3.0645,0.85546 0.76,1.032 0.8671,1.68413 0.8671,2.95313 -1.792,-0.497 -3.4539,-0.67008 -4.4199,-2.33008 z m -50.923802,1.13672 c 1.251,0.73799 2.2641,1.05082 2.8711,2.42382 l -0.5625,1.2793 c -1.32,0.103 -1.7791,0.23434 -2.9981,-0.34766 -0.362,-1.213 0.2375,-2.24046 0.6895,-3.35546 z m -34.8946,1.63867 c 4.084,1.176 8.2651,2.53297 12.0821,4.41797 1.958,0.966 6.0763,2.92328 6.8203,5.11328 l -0.4278,0.49218 c -2.8239,0.795 -6.4693,0.10232 -9.4003,-0.0547 l -0.2286,0.54882 c 4.767,3.09601 11.9318,3.12386 19.1778,8.25586 6.37,4.512 37.575,27.2093 38.209,33.6543 0.129,1.314 -0.4762,2.70267 -1.3672,3.63867 -3.14,3.3 -9.4987,3.70955 -13.7207,3.93555 -1.885,-0.58 -3.2372,-0.46031 -4.9922,0.42969 -3.873,1.111 -7.5244,1.21153 -11.5254,1.14453 -2.54,0.127 -5.0726,-0.46445 -7.6016,-0.68945 -3.857,-0.579 -7.5449,-1.31618 -11.2129,-2.70118 -1.968,-0.743 -5.4657,-2.10175 -6.3027,-4.21875 -0.365,-0.922 -0.2561,-1.68436 0.2109,-2.56836 0.583,-1.108 1.9287,-1.87668 3.0547,-2.30468 7.6,-2.891 22.3711,2.18368 29.7071,5.55468 0.21,0.834 0.3201,1.63629 0.4121,2.48829 1.756,0.365 3.5163,0.41931 5.1093,-0.55469 1.314,-0.804 2.2998,-2.58531 2.5918,-4.07031 0.578,-2.949 -0.9353,-5.68311 -2.8613,-7.78711 -6.564,-7.172 -32.9113,-20.49546 -43.1543,-26.43946 -3.44,-1.996 -9.1908,-4.59692 -11.1738,-8.16992 -0.588,-1.044 -0.7295,-2.27969 -0.3945,-3.42969 0.918,-3.103 4.3402,-5.23454 6.9882,-6.68554 z m 156.281302,34.42968 c 1.122,-0.016 1.7828,0.0254 2.5918,0.77539 -0.053,0.142 -0.1012,0.28774 -0.1602,0.42774 -0.659,1.554 -4.6483,3.9067 -6.0683,4.9707 -9.129,6.838 -12.6829,9.04331 -24.2149,10.57032 -3.574,0.473 -7.0621,0.99948 -10.3691,2.52148 -6.371,2.931 -9.3709,6.35226 -11.7559,12.82226 -0.491,0.56501 -0.9773,0.71619 -1.6543,0.99219 l -0.9941,-0.54687 c -0.347,-0.652 -0.6385,-1.28925 -0.7285,-2.03125 -0.317,-2.627 0.7605,-5.48508 2.3125,-7.58008 1.292,-1.713 2.921,-3.14222 4.789,-4.19922 3.568,-2.038 7.9804,-3.11416 11.7774,-4.78516 10.305,-4.536 21.4495,-12.06435 32.6855,-13.69335 0.582,-0.10801 1.1961,-0.23615 1.7891,-0.24415 z m 2.7285,4.81641 0.5703,0.29297 0.1309,0.94727 c -2.313,4.85399 -7.4794,9.07954 -11.6914,12.31054 -8.779,6.734 -20.5248,14.41372 -32.0528,12.88672 -0.027,-2.425 0.2845,-4.89234 1.7325,-6.90234 1.914,-0.938 4.1157,1.28561 6.3457,1.22461 8.972,-0.247 29.0628,-14.83577 34.9648,-20.75977 z M 19.228558,286.54712 c 0.784,4.199 1.4403,7.61264 5.2383,10.18164 4.003,2.707 10.0384,3.31333 14.7304,4.23633 l 0.096,0.75 -2.3613,1.64843 c -2.704,-0.254 -4.5174,-0.6449 -6.8144,-2.1289 -1.806,-2.415 -12.4516,-2.93838 -15.6036,-3.98438 -1.741,-0.988 -3.6287,-2.09915 -4.1777,-4.16015 -0.142,-0.532 0.086,-1.33564 0.3438,-1.80665 1.466,-2.682 5.8638,-3.87932 8.5488,-4.73632 z m 56.539,12.50976 c -0.772,1.678 -1.4614,3.57674 -3.3164,4.30274 -1.103,0.432 -1.5314,0.28886 -2.6074,-0.11914 -0.479,-0.658 -1.1686,-1.36122 -1.2226,-2.19922 2.274,-0.726 4.7684,-1.78538 7.1464,-1.98438 z" />
</svg>
