<?xml version="1.0" encoding="UTF-8" standalone="no"?>
<svg
   width="174.77649"
   height="305.93933"
   viewBox="0 0 174.77649 305.93933"
   version="1.1"
   id="svg125"
   xmlns="http://www.w3.org/2000/svg"
   xmlns:svg="http://www.w3.org/2000/svg">
  <defs
     id="defs125" />
  <path
     id="path127"
     d="m 82.054678,0.00772721 c -0.6241,0.042 -1.0263,0.258344 -1.7051,0.777344 -2.187,1.67399999 -4.0405,4.16537499 -6.2285,5.98437499 -4.147,3.4480008 -8.7273,6.7367788 -12.1563,10.9257808 -6.344,7.749 -7.2173,21.88075 -8.6543,31.59375 -3.23,2.552 -6.4736,5.00614 -8.7636,8.49414 -2.263,3.447 -6.0454,16.13558 -5.1524,20.26758 2.345,-0.612 6.652,-10.48459 10.459,-12.43359 l 0.4551,0.40429 c -0.751,8.50601 -10.1743,15.52413 -11.3613,25.45313 -0.399,3.332 -0.8239,10.405313 1.4531,13.070313 0.52,0.608 0.6212,0.54205 1.4062,0.62305 2.116,-2.808 2.2573,-11.661033 5.6153,-16.582033 0.928,-1.36 1.7996,-2.12999 3.4316,-2.45899 1.156,0.172 1.704,0.2831 2.541,1.1211 0.143,5.004 -7.6544,15.287593 -8.5644,22.808593 -0.851,7.025 2.501,12.97452 6.666,18.35352 -1.527,-8.567 -1.7546,-14.51366 2.1504,-22.47266 2.177,2.413 4.0603,4.99558 6.5273,7.14258 2.312,2.012 5.0005,2.79609 7.8555,3.74609 -0.519,3.977 -1.4402,8.55097 -1.2012,12.54297 0.402,6.716 6.3947,14.98761 9.3067,21.09961 3.081,6.465 6.5997,17.47848 4.0507,24.39649 -0.342,0.92799 -0.8286,2.37818 -1.8066,2.74218 -3.737,1.388 -11.4333,-9.01861 -14.2363,-11.59961 -1.341,-1.235 -2.9338,-2.17507 -4.5078,-3.08007 -0.579,-2.244 -2.2252,-4.2391 -3.5332,-6.1211 l -6.1055,0.20899 c -4.006,-2.87 -8.8154,-6.4103 -14.0664,-5.7793 -2.395,0.288 -4.3719,1.3208 -5.8789,3.2168 -6.17,7.764 -2.561,25.29834 -1.586,34.52734 0.25,1.677 0.5836,3.35478 0.3496,5.05078 l -0.3964,0.0547 -0.3965,-0.83985 c -2.419,-5.175 -4.8865,-12.06606 -10.7715,-14.16406 -1.823,-0.65 -3.6051,-0.93248 -4.9941,-2.39648 -0.461,-1.288 -0.6538,-2.73677 -1.8028,-3.50977 -0.9510006,1.01 -1.2177006,2.30155 -2.5937006,2.56055 -0.746,-0.872 -1.3733,-1.76833 -1.9903,-2.73633 l -0.8398,0.0273 c -0.361,0.971 -0.6722,1.93755 -0.9492,2.93555 l -0.7696,0.24024 c -0.957,-0.528 -1.9116,-1.04625 -2.89060002,-1.53125 -0.606,0.744 -0.4087,1.23845 -0.3027,2.18945 1.75400002,15.628 0.37,27.79139 10.41800062,41.40039 3.481,4.713 7.8048,8.88075 11.0878,13.71875 2.983,4.397 3.9601,10.15616 8.3731,13.53516 2.396,1.835 5.9651,2.78775 8.9551,2.21875 2.838,-0.541 5.1883,-2.92888 6.6523,-5.29688 6.561,-10.613 3.4384,-27.85131 2.9414,-39.69531 -0.17,-4.033 0.1317,-8.04722 0.098,-12.07422 5.332,5.421 10.2579,11.85942 14.5879,18.10742 4.156,5.995 8.4753,16.11155 14.2363,20.31055 10.758,7.842 29.865602,7.82686 38.976602,15.13086 1.245,0.999 2.1677,2.46825 3.0527,3.78125 -5.232,4.245 -11.4037,7.48812 -17.1777,10.95312 l -22.716802,13.70899 c -5.705,3.371 -12.1302,6.56478 -16.8282,11.30078 -2.122,2.14 -3.024,3.93309 -3.582,6.87109 -0.196,-0.007 -0.3984,-0.0194 -0.6055,-0.0332 0.3792,1.28748 0.6231,2.08789 0.6231,2.08789 l 7.9765,9.06445 c 0,0 -1.0871,2.53907 11.6036,2.53907 12.6906,0 56.925702,1.44921 56.925702,1.44921 l 14.8672,-3.26171 4.0137,-6.59571 c -0.4506,0.11083 -0.93,0.20371 -1.4902,0.16211 -0.18,-0.683 -0.3574,-1.54873 -0.6934,-2.17773 -0.622,-1.162 -2.1029,-1.24168 -3.2559,-1.51367 l -1.082,-2.38086 c -1.095,-0.812 -1.072,-0.85183 -2.416,-0.67383 -6.54,-2.161 -12.1448,-5.29049 -19.0488,-6.77149 -7.909,-1.697 -16.226,-1.57847 -24,-3.73047 7.035,-4.028 15.201,-7.43462 22.707,-10.51562 8.245,-3.383 19.5863,-5.98917 25.7383,-12.95117 1.23,-1.393 1.6378,-3.68796 1.5078,-5.50196 -0.221,-3.073 -2.0136,-5.49392 -3.3496,-8.16992 -0.885,-1.774 -0.6334,-3.90342 -1.4824,-5.48242 -2.987,-5.551 -16.1919,-16.48397 -21.4629,-20.91797 0.572,-8.268 0.283,-16.40503 -1.127,-24.58203 -1.036,-6.009 -2.5948,-12.05467 -3.0508,-18.13867 -0.337,-4.491 0.3983,-9.11738 0.6153,-13.60938 0.391,-8.096 -0.8059,-15.46536 -2.6719,-23.31836 3.459,1.377 7.0894,2.78727 10.7324,3.57227 6.216,1.338 11.141,0.26106 16.416,-3.21094 10.907,-7.179 0.7569,-7.85784 2.2559,-15.08984 0.684,-1.066 1.1413,-1.58022 2.3203,-2.07422 1.134,0.839 1.1608,2.72412 1.7188,4.07812 0.285,0.69 1.3376,1.2843 2.0156,1.5293 1.562,0.564 3.082,0.42153 4.543,-0.35547 3.341,-1.777 5.0138,-4.81173 5.9628,-8.30273 0.693,-0.526 1.3825,-1.05861 2.0645,-1.59961 3.787,-3.012 6.0181,-6.50263 6.5391,-11.39063 0.567,-5.318003 -0.1568,-10.230123 -3.5118,-14.453123 1.008,-3.578 2.4161,-7.95388 0.3321,-11.42188 -1.186,-1.974 -3.6904,-4.0514 -5.9864,-4.4414 -5.485,-0.93 -7.8066,6.47815 -11.3046,9.16015 -1.494,1.146 -4.4133,1.02333 -6.2403,1.36133 -4.474,0.827 -9.5993,5.56231 -13.2363,8.19532 -1.592,-0.82 -3.0866,-1.80382 -4.5996,-2.75782 1.233,-3.441 2.7445,-10.08853 5.3535,-12.64453 l 2.6055,0.2168 c 2.574,-2.143 3.474,-12.54435 3.834,-16.15235 -1.366,-1.83 -3.255,-3.94098 -4.045,-6.08398 -0.493,-1.336 -0.6135,-2.27464 -0.062,-3.55664 1.277,-0.265 1.9146,-0.10145 3.0606,0.56055 5.447,3.149 5.0719,12.27484 6.5859,17.71484 l 0.1504,0.5332 c 0.231,-1.002 0.4326,-2.00943 0.6016,-3.02343 2.347,-13.864 -0.9254,-14.47599 -8.4434,-25.08399 15.846,9.767 11.343,12.30534 17.002,27.90235 1.006,-7.179 1.3766,-17.03726 -0.8594,-24.03126 -2.426,-7.58799 -8.5451,-10.69928 -15.1641,-14.11328 2.854,-0.454 5.6664,-0.1834 8.4414,-0.5664 1.034,-0.143 1.6907,-0.21464 2.3457,-1.05664 -0.085,-0.123 -0.1639,-0.25114 -0.2539,-0.36914 -0.74,-0.968 -2.6699,-1.57513 -3.7949,-1.95313 -9.905,-3.333 -12.121,0.84878 -17.625,-0.0742 l -0.096,-0.67969 c 0.326,-0.337 0.6558,-0.65584 1.0098,-0.96484 6.964,-6.062 22.2653,-3.11715 30.7773,-2.53516 -4.132,-3.828 -9.046,-5.25631 -14.543,-6.07031 -8.216,-1.216 -19.4295,-2.04292 -27.1445,1.45508 -1.929,0.874 -3.722,2.33561 -5.414,3.59961 -3.681,-0.938 -7.2108,-1.88709 -10.7168,-3.37109 0.773,-4.718002 2.0945,-9.3393188 2.8925,-14.0703188 -3.545,-0.622 -7.114502,-1.043328 -10.685502,-1.486328 0,4.319 -0.047,9.5668448 -1.1875,13.7148468 -0.302,1.098 -0.5183,1.53345 -1.4863,2.06445 -4.35,-1.215 -7.5259,-14.6108908 -10.4219,-18.46289079 -0.2755,-0.0199999941 -0.5088,-0.02572 -0.7168,-0.01172 z m 17.6426,7.67578099 c 1.242002,0.452 1.478102,0.403407 2.203102,1.566407 0.298,2.2309998 -0.494,4.9059198 -1.457,6.9199218 l -0.449302,1.09961 -0.5625,-0.11328 c -0.563,-2.795 -0.4893,-6.720658 0.2657,-9.4726588 z m -18.7871,2.6464858 c 0.08,0.035 0.1662,0.06042 0.2402,0.107422 1.897,1.208999 3.9263,8.425201 4.6523,10.658201 4.193,12.887 -3.6838,20.83341 -9.2168,31.69141 0,-6.152 -0.3258,-11.42172 -1.9218,-17.38672 3.066,-6.134 4.8144,-10.92545 5.2304,-17.81445 -1.992,2.118 -3.6186,4.56087 -5.3066,6.92187 -6.789,9.163 -5.2363,20.50885 -7.3223,31.21485 -1.015,-0.889 -2.0097,-1.84113 -2.9297,-2.82813 -3.222,-3.454 -2.8494,-9.08394 -2.6465,-13.46094 0.686,-14.796 9.1018,-19.91552 19.2208,-29.103513 z m 13.5371,12.664063 c 1.714,0.018 3.4286,0.0628 5.1406,0.13477 2.724002,0.13 5.997302,0.34365 7.945302,2.47265 0.378,1.374 0.1876,1.59067 -0.2754,2.88868 -3.696,-0.678 -10.544302,-0.50574 -13.322302,-2.92774 -0.321,-1.342 -0.1162,-1.40236 0.5118,-2.56836 z m 13.783202,22.08789 c 0.311,1.961 0.078,9.96063 0.8515,10.89063 3.388,-0.942 5.5066,-5.84207 9.3086,-7.16407 1.272,-0.442 2.5413,-0.38571 3.7403,0.23829 2.898,1.508 8.781,9.4136 9.498,12.4746 0.324,1.38601 0.084,1.84077 -0.5566,3.00977 -2.1,1.508 -4.2605,1.3188 -6.6875,1.0918 -0.317,-1.124 0.9084,-4.10913 1.2734,-5.32813 -8.322,4.8 -9.8968,2.76036 -18.5098,4.31836 -0.493,0.09 -1.581,0.25653 -1.957,0.51953 -1.799,1.259 -8.964702,15.28258 -11.177702,18.51758 -2.88,0.208 -5.5175,0.52935 -8.3145,1.27735 l -2.0722,-4.8086 c 1.856,-0.479 4.4152,-0.79367 5.4882,-2.51367 -1.384,-2.635 -5.905,-2.84967 -7.289,-6.13867 -2.295,-5.457 7.0598,-9.3961 10.0508,-12.9961 2.353,-2.833 3.4606,-6.04479 4.6386,-9.46679 l 0.7696,-1.23828 c 0.715,0.659 0.6177,1.48382 0.7617,2.42382 -0.649,8.77 -4.6226,9.74652 -6.2266,16.10352 l 0.6133,0.73047 c 0.169,-0.028 0.3369,-0.05 0.5039,-0.084 9.499002,-1.926 10.988002,-15.11142 15.293002,-21.85742 z m 2.8613,24.16406 c 0.8519,-0.009 1.7009,0.0224 2.4824,0.17188 1.083,0.207 1.1846,0.51156 1.8086,1.35156 0.08,1.317 0.074,1.57528 -0.5293,2.73828 -1.818,0.784 -3.4409,-0.14473 -5.3789,0.32227 -0.953,1.206 -0.6575,2.11719 -0.9355,3.49219 -0.283,1.399 -1.722,2.09476 -2.793,2.88476 -0.463,0.366 -0.9478,0.77469 -1.4688,1.05469 -1.065,0.571 -1.4907,0.65886 -2.5937,0.25586 -0.616,-1.43 -0.4802,-2.42958 0.01,-3.89258 1.223,-3.642 3.4573,-6.58255 6.9003,-8.31055 0.7955,-0.0106 1.6482,-0.0596 2.4981,-0.0684 z m 15.4824,1.88477 c 0.8279,0.022 1.6515,0.12241 2.5235,0.37891 1.094,0.847 1.607,1.76165 2.246,2.97265 -0.279,4.778 -5.9965,1.51802 -7.9335,3.66602 -0.773,0.857 -0.3928,3.32029 -2.2598,5.5293 -0.797,0.661 -1.8549,1.3665 -2.8809,1.5625 -0.966,0.18399 -1.149,0.19887 -1.957,-0.32813 -0.338,-0.805 -0.464,-1.32327 -0.291,-2.19727 0.91,-4.609 4.226,-8.86218 7.998,-11.49218 0.8945,-0.0565 1.7268,-0.1138 2.5547,-0.0918 z m 38.0508,6.16797 c 1.129,0.067 1.6953,0.25856 2.6543,0.85156 0.589,1.191 0.6091,1.23153 0.2891,2.51953 -1.131,1.217 -1.7315,1.34627 -3.2735,1.82227 -0.854,0.138 -1.7123,0.26486 -2.5703,0.38086 l -0.6465,-0.61719 c 0,-0.153 -0.01,-0.30598 0,-0.45898 0.104,-1.659 2.3559,-3.46505 3.5469,-4.49805 z m -12.5879,9.71484 c 3.82,0.36 2.6281,8.14803 4.8711,10.45703 3.062,-0.953 4.391,-5.26768 8,-5.92968 1.311,-0.24 2.1705,0.37432 3.1875,1.11132 1.554,2.253 1.5302,4.9628 1.2422,7.591803 -0.389,3.552 -1.9356,10.14089 -5.0586,12.33789 -0.935,0.658 -1.7394,0.64108 -2.8164,0.45508 -1.009,-1.57 -0.2962,-3.06398 -1.3262,-4.70898 -3.268,-1.099 -11.574,3.99148 -15.834,4.64648 -14.355,2.21 -22.9696,-13.629803 -33.1816,-21.091803 -0.809,4.214 -1.1103,8.510283 -1.9863,12.738283 2.112,1.347 3.2414,3.68064 5.2304,4.93165 1.073,0.67499 2.6636,-0.24821 3.5196,0.46679 0.074,0.062 0.1479,0.12431 0.2129,0.19531 1.799,1.981 2.4929,5.34894 4.1699,7.58594 4.871,6.5 12.0034,11.89211 18.4824,16.66211 -2.827,0.583 -5.7292,0.9225 -8.6152,0.6875 -12.852,-1.047 -12.5017,-15.19961 -19.2207,-23.09961 l -0.9922,-0.0293 c -0.6652,2.94369 1.7188,6.54466 -0.09,9.21485 -0.434,0.025 -0.7919,0.0521 -1.2129,-0.0859 -8.154,-2.674 -6.3396,-12.2893 -9.0976,-18.5293 -0.446,-1.009 -0.6441,-1.62901 -1.705102,-2.04101 -1.416,1.537 -1.1576,4.14489 -1.0996,6.08789 -0.01,0.829 -4e-4,1.65733 0.016,2.48633 0.194,8.965 4.816502,13.71664 10.939502,19.55664 1.307,9.613 5.9473,18.53605 3.7343,28.49804 -0.79,3.555 -3.0609,7.96501 -6.2949,9.875 -1.131,0.667 -2.3967,0.93146 -3.6777,0.56446 -9.234002,-2.646 -14.886402,-35.20052 -17.398402,-43.60352 -1.034,-3.459 -2.9706,-6.81529 -4.6016,-10.02929 2.523,-2.403 4.8235,-4.60825 6.3965,-7.78125 0.532,-1.073 0.6184,-1.10629 0.2343,-2.23829 -2.642,-0.594 -6.3994,1.33324 -9.2734,1.36524 -2.542,0.03 -5.1943,-0.7203 -6.9473,-2.6543 -1.091,-1.204 -1.4826,-2.30362 -1.4726,-3.890623 2.97,-4.144 14.1199,-0.33619 18.9629,-1.99219 4.109,-1.406 1.9766,-3.06933 3.5976,-5.73633 0.883,-1.453 2.8086,-2.084 4.3946,-2.375 5.133002,-0.942 23.825502,1.52759 27.728502,4.68359 2.42,1.95601 0.8555,4.25088 1.1855,6.796883 l 0.8672,0.54883 c 6.879,0.457 17.9327,-10.784523 24.9297,-13.728523 z m -40.1152,25.007813 c 0,-0.021 0.01,-0.0416 0.014,-0.0625 l -0.1015,0.0606 z m 0.014,-0.0625 0.4727,-0.27929 -0.3984,0.0117 c -0.028,0.0885 -0.053,0.17773 -0.074,0.26757 z m 2.9629,-9.69726 c 0.446,0.017 0.867,0.0563 1.295,0.19531 2.047,0.666 3.0173,2.54294 3.9043,4.33594 -1.151,-0.281 -2.6665,-0.63077 -3.6875,-1.25977 -1.291,-0.795 -1.2618,-1.92048 -1.5118,-3.27148 z m 43.211,12.91797 c 1.357,0.554 2.6703,1.14875 3.4043,2.46875 -0.206,1.575 -0.7279,1.94856 -1.7539,3.10156 -0.72,0.311 -1.4869,0.40411 -2.2539,0.53711 -0.733,-0.464 -1.0002,-0.53294 -1.1582,-1.46094 -0.302,-1.779 0.7097,-3.34348 1.7617,-4.64648 z m -19.5645,0.83789 c 1.039,0.124 2.4487,0.15609 3.3887,0.62109 0.79,0.39 0.8224,0.79936 1.1094,1.56836 -0.452,1.558 -1.426,2.38519 -2.541,3.49219 -1.01,0.387 -1.6887,0.48908 -2.7657,0.45508 l -0.6367,-0.69727 c -0.109,-1.929 0.7633,-3.66845 1.4453,-5.43945 z m -99.773402,41.27539 c 0.5564,-0.0179 1.113,-0.0165 1.6679,0.0215 5.934,0.406 10.3252,4.79249 13.9922,9.02149 -1.452,4.891 -3.5891,8.58128 -6.6191,12.61328 -0.201,-2.643 -0.1365,-5.89216 -0.9375,-8.41016 -0.422,-1.327 -1.1258,-2.46961 -2.3828,-3.09961 l -0.836,0.54883 c -2.507,6.117 0.178,24.9598 0.129,32.7168 l 0.1035,16.84375 c -2.303,-3.035 -4.6473,-6.07124 -6.3633,-9.49024 -4.358,-8.681 -8.2323,-36.82168 -5.0723,-45.80468 0.941,-2.675 2.1754,-3.68628 4.6524,-4.86328 0.5535,-0.0425 1.1096,-0.0798 1.666,-0.0977 z m 20.9453,11.4375 c 6.928,4.222 12.5665,11.98803 18.1855,17.83203 4.323,4.496 9.026,8.7508 13.836,12.7168 4.699,3.837 9.795202,7.16106 15.201102,9.91406 4.245,2.109 8.804,3.90092 12.754,6.54492 4.561,3.051 12.5743,11.62747 16.6093,15.85547 -8.765,2.479 -11.046,3.97088 -16.83,10.92188 -2.679,-1.737 -7.4269,-3.14282 -9.4239,-5.50782 -0.492,-0.582 -0.6499,-1.15648 -0.5468,-1.89648 0.3789,-2.74 4.2981,-6.4791 6.4531,-7.99609 0.098,-1.03 0.1869,-2.04655 -0.082,-3.06055 -0.707,-2.668 -2.961,-2.59455 -5,-3.81055 -2.61,-1.557 -1.6376,-3.3015 -2.4726,-5.6875 -0.395,-1.13 -1.4742,-1.77047 -2.5742,-2.10547 -1.314,-0.399 -2.2405,-0.17223 -3.3985,0.50977 -3.017002,1.778 -5.552302,0.74445 -8.736302,1.68945 -0.248,0.31 -0.5041,0.58128 -0.5801,0.98828 -0.377,2.032 -0.084,4.28438 -0.3769,6.35938 -0.199,1.416 -0.819,2.70403 -1.127,4.08203 -0.28,1.256 -0.096,2.03505 0.5508,3.12305 0.42,0.707 0.7965,1.4352 1.1875,2.1582 l -0.8574,0.24414 c -15.062,-3.811 -18.9443,-14.36877 -26.4883,-26.38477 2.536,-2.044 7.8169,-7.26154 8.1719,-10.56054 0.274,-2.544 -1.8136,-3.1638 -2.5606,-5.0918 -1.16,-2.998 -0.3389,-6.40977 -2.9199,-9.00977 -0.733,-0.738 -1.6554,-1.09373 -2.6934,-1.05273 -2.717,0.108 -4.5277,2.2808 -6.2617,4.0918 -1.381,-0.335 -2.713,-0.52669 -4.123,-0.67969 -0.839,0.43 -1.4764,0.76117 -2.4414,0.82617 -0.56,-3.005 4.7579,-12.19467 6.5449,-15.01367 z m -44.2402,13.07227 c 2.524,1.249 4.7913,4.03323 6.2793,6.36523 2.611,4.089 3.7894,9.02611 5.8164,13.41211 3.875,8.378 10.7242,18.207 16.5742,25.25 -0.14,2.398 -0.4177,4.69755 -0.8477,7.06055 l -0.541,0.13085 c -2.711,-1.073 -3.9605,-5.63815 -5.4355,-8.03515 -4.619,-7.506 -9.8095,-13.18944 -13.3965,-21.52344 -1.854,-4.307 -2.6747,-8.97597 -4.1367,-13.41797 -1.07,-3.251 -2.6985,-6.23518 -4.3125,-9.24218 z m 50.08,2.64843 c 0.7727,-0.0257 1.5055,0.4485 1.7696,1.21875 0.326,0.947 -0.1819,1.97878 -1.1309,2.30078 -0.943,0.319 -1.9661,-0.184 -2.2891,-1.125 -0.324,-0.941 0.1743,-1.96692 1.1153,-2.29492 0.1774,-0.0619 0.3568,-0.0937 0.5351,-0.0996 z m -7.3847,1.45703 c 0.656,0.16 1.0867,0.49219 1.6367,0.86719 0.336,1.578 -0.2116,2.5847 -0.6856,4.0957 -0.234,0.033 -0.5874,-0.14375 -0.8144,-0.21875 -0.576,-1.626 -0.3297,-3.07914 -0.1367,-4.74414 z m -48.6289006,3.53907 c 2.7220006,3.232 2.7007006,11.59656 4.5547006,15.85156 1.349,3.096 15.2915,26.07686 16.9785,26.75586 1.432,-1.373 2.0623,-3.67386 2.7773,-5.50586 0.156,2.864 0.561,5.71069 0.916,8.55469 -0.065,0.582 -0.1161,1.21048 -0.2871,1.77148 -0.396,1.295 -0.7693,1.61381 -1.8633,2.25781 -1.269,-0.086 -2.124,-0.60939 -3,-1.52539 -4.597,-4.803 -5.3384,-11.85026 -8.4824,-17.44726 -3.19,-5.68 -8.4266,-10.45263 -10.4726,-16.76563 -1.4550006,-4.489 -1.1931006,-9.29326 -1.1211006,-13.94726 z m 53.5957006,0.91992 c 0.857,0.215 1.1362,0.45664 1.7402,1.05664 -0.161,1.551 -0.899,2.15989 -1.832,3.33789 -0.641,-0.268 -0.8678,-0.53344 -1.3438,-1.02344 -0.115,-1.359 0.7196,-2.28709 1.4356,-3.37109 z m 6.414,2.62305 c 0.2373,-0.001 0.476,0.061 0.6875,0.1875 0.423,0.25199 0.6687,0.71993 0.6407,1.21093 -0.029,0.492 -0.3284,0.92691 -0.7774,1.12891 -0.636,0.285 -1.3849,0.0281 -1.7109,-0.58789 -0.326,-0.616 -0.1175,-1.37914 0.4765,-1.74414 0.2095,-0.1285 0.4464,-0.19407 0.6836,-0.19531 z m -5.957,5.1621 0.9063,0.47071 c 0.59,1.166 0.2571,1.43553 -0.1309,2.64453 -0.107,-0.075 -0.2313,-0.12961 -0.3203,-0.22461 -0.937,-1.005 -0.6011,-1.65563 -0.4551,-2.89063 z m 40.462902,17.72657 c 0.127,0.055 0.2568,0.10306 0.3808,0.16406 0.8531,0.419 1.9382,1.65569 2.2032,2.55469 0.334,1.14 -0.031,1.4665 -0.5742,2.4375 -0.328,-0.038 -0.4233,-0.0376 -0.7813,-0.14063 -1.357,-0.39 -1.6036,-0.64801 -2.3066,-1.79101 0,-1.332 0.4071,-2.09561 1.0781,-3.22461 z m -7.363302,1.33007 c 1.224,0.41 2.2369,0.90994 3.335902,1.58594 0.653,1.333 0.5194,1.38136 0.07,2.81836 -0.673002,0.001 -1.429902,0.0375 -2.087902,-0.10547 -1.141,-0.248 -1.5824,-0.76025 -2.2364,-1.65625 -0.01,-1.194 0.239,-1.67257 0.918,-2.64258 z m 11.378902,5.13868 c 1.518,0.205 2.6864,0.346 3.9824,1.25 0.579,1.286 0.4974,1.39925 0.1504,2.78125 -1.646,0.031 -2.9569,-0.0117 -4.2949,-1.05274 -0.414,-1.331 -0.2429,-1.62051 0.1621,-2.97851 z m -4.9863,0.37695 c 0.792,0.487 0.7063,0.74128 0.9433,1.61328 -0.256,1.261 -0.49,1.88977 -1.457,2.75977 l -1.584,-2.2793 0.1817,-0.85742 z m -8.607402,1.98242 c 0.658,0.1 1.3886,0.17925 2.0156,0.40625 1.251,0.453 1.5021,0.99942 2.0351,2.10742 l -2.2304,0.3086 c -1.304,-0.812 -1.3233,-1.46227 -1.8203,-2.82227 z m 9.660102,3.78321 c 1.611,0.13099 2.3825,0.22623 3.6055,1.24023 0.078,1.515 -0.3308,2.01273 -1.0508,3.30273 -1.188,-0.237 -1.7471,-0.65754 -2.6601,-1.43554 -0.532,-1.515 -0.4576,-1.59043 0.1054,-3.10742 z m -7.269502,3.0664 c 0.891,-0.037 1.7568,0.12581 2.6348,0.25781 1.234002,0.718 1.568102,1.37455 2.076102,2.68555 -0.718,-0.1 -1.4612,-0.19716 -2.156202,-0.41016 -1.348,-0.413 -1.9207,-1.3542 -2.5547,-2.5332 z m 38.824202,5.57227 c 1.1349,-5e-4 2.2678,0.2395 3.3613,0.75 3.298,1.54 5.8304,4.96022 7.0254,8.32422 0.776,2.182 0.867,4.59607 -0.209,6.70507 -3.774,7.392 -20.5857,11.46732 -27.9707,13.69532 -9.961,3.006 -19.263902,7.83022 -26.960902,14.82422 -1.522,1.383 -3.3783,2.76479 -4.3613,4.59179 l 0.2754,0.79492 c 1.897,0.206 4.4133,-1.39901 6.2363,-2.04101 6.342,-2.232 30.920702,1.0567 37.093702,4.2207 1.293,0.663 1.9013,1.09633 2.3633,2.48633 -0.547,1.565 -1.6659,2.17008 -2.9629,3.08008 -1.353,-1.482 -2.8417,-3.54721 -4.8027,-4.15821 -1.335,0.096 -1.8527,0.14624 -2.7617,1.24024 -1.401,1.687 -2.3146,3.72619 -4.2676,4.86719 -1.027,0.114 -1.9543,0.16189 -2.9863,0.0879 -3.503,-0.92 -7.2151,-0.1528 -10.7871,-1.0918 -0.193,-1.396 -1.6494,-3.17367 -2.4004,-4.38867 -1.612002,0.926 -3.077402,2.03853 -4.568402,3.14453 -9.76,-1.385 -17.958,-3.17323 -24.834,-10.86524 7.274,-7.21899 17.1811,-12.30353 25.9121,-17.51953 7.125002,-4.258 14.215002,-8.66875 21.459002,-12.71875 4.052,-2.265 8.7969,-4.01136 12.5469,-6.69336 l 0.018,-0.77148 c -2.178,-1.332 -5.5832,-0.28561 -7.9922,0.15039 2.162,-3.321 4.4092,-6.45558 8.1992,-8.01758 1.103,-0.4545 2.2401,-0.69676 3.375,-0.69726 z M 67.900778,287.8339 c 3.507,2.397 6.9595,4.78532 11.1035,5.94532 -1.835,0.936 -2.9416,2.43804 -4.2246,3.99804 -1.934,-1.538 -3.4546,-4.31392 -6.0156,-4.66992 l -1.6348,1.27344 c -0.605,-0.833 -1.3848,-1.49084 -1.2598,-2.58984 0.138,-1.217 1.3983,-2.91804 2.0313,-3.95704 z m 73.037102,4.08204 c 0.4946,0.0148 0.9382,0.22989 1.6914,0.54882 -1.854,2.223 -4.5487,6.30396 -7.7187,6.37696 -0.948,0.022 -2.0216,-0.21475 -2.9356,-0.46875 2.226,-2.045 4.772,-4.84203 7.543,-6.08203 0.619,-0.27694 1.0352,-0.38654 1.4199,-0.375 z m -61.521502,2.14453 c 4.344,0.858 9.192,2.77917 13.502,3.07617 l 1.4004,0.54492 -0.09,0.49024 c -3.705,0.75 -8.4526,-0.0672 -12.3066,-0.0332 -0.747,-1.413 -1.6389,-2.73712 -2.5059,-4.07812 z" />
</svg>
